<svg width="45" height="45" viewBox="0 0 45 45" fill="none" xmlns="http://www.w3.org/2000/svg">
<circle cx="22.5" cy="22.5" r="22.5" fill="#FFE396"/>
<g clip-path="url(#clip0_68003_15818)">
<path d="M31.125 20.0083C31.125 19.9 31.125 19.7917 31.125 19.7917V19.6833C31.125 19.575 31.0167 19.4667 30.9083 19.3583L24.5167 12.9667C24.4083 12.8583 24.3 12.8583 24.1917 12.75H24.0833C23.975 12.75 23.975 12.75 23.8667 12.75C23.8667 12.75 23.8667 12.75 23.7583 12.75H15.85C15.3083 12.75 14.875 13.1833 14.875 13.725V31.275C14.875 31.8167 15.3083 32.25 15.85 32.25H30.15C30.6917 32.25 31.125 31.8167 31.125 31.275V20.0083ZM24.7333 16.1083L27.7667 19.1417H24.7333V16.1083ZM16.825 30.3V14.7H22.7833V20.1167C22.7833 20.6583 23.2167 21.0917 23.7583 21.0917H29.175V30.3H16.825Z" fill="#936F38"/>
<path d="M25.8159 22.6083H19.4242C18.8826 22.6083 18.4492 23.0416 18.4492 23.5833C18.4492 24.1249 18.8826 24.5583 19.4242 24.5583H25.8159C26.3576 24.5583 26.7909 24.1249 26.7909 23.5833C26.7909 23.0416 26.3576 22.6083 25.8159 22.6083Z" fill="#936F38"/>
<path d="M25.8159 26.075H19.4242C18.8826 26.075 18.4492 26.5083 18.4492 27.05C18.4492 27.5916 18.8826 28.025 19.4242 28.025H25.8159C26.3576 28.025 26.7909 27.5916 26.7909 27.05C26.7909 26.5083 26.3576 26.075 25.8159 26.075Z" fill="#936F38"/>
<path d="M19.4242 21.0917H20.1826C20.7242 21.0917 21.1576 20.6584 21.1576 20.1167C21.1576 19.5751 20.7242 19.1417 20.1826 19.1417H19.4242C18.8826 19.1417 18.4492 19.5751 18.4492 20.1167C18.4492 20.6584 18.8826 21.0917 19.4242 21.0917Z" fill="#936F38"/>
</g>
<defs>
</defs>
</svg>
