<svg width="45" height="45" viewBox="0 0 45 45" fill="none" xmlns="http://www.w3.org/2000/svg">
<circle cx="22.5" cy="22.5" r="22.5" fill="#FFE396"/>
<g clip-path="url(#clip0_33919_11344)">
<path d="M30.6666 16.4993H27.4166V14.3327C27.4166 13.1302 26.4525 12.166 25.25 12.166H18.75C17.5475 12.166 16.5833 13.1302 16.5833 14.3327V16.4993H13.3333C12.1308 16.4993 11.1666 17.4635 11.1666 18.666V30.5827C11.1666 31.7852 12.1308 32.7493 13.3333 32.7493H30.6666C31.8691 32.7493 32.8333 31.7852 32.8333 30.5827V18.666C32.8333 17.4635 31.8691 16.4993 30.6666 16.4993ZM18.75 14.3327H25.25V16.4993H18.75V14.3327ZM30.6666 30.5827H13.3333V28.416H30.6666V30.5827ZM30.6666 25.166H13.3333V18.666H16.5833V20.8327H18.75V18.666H25.25V20.8327H27.4166V18.666H30.6666V25.166Z" fill="#936F38"/>
</g>
<defs>
<clipPath id="clip0_33919_11344">
<rect width="26" height="26" fill="white" transform="translate(9 10)"/>
</clipPath>
</defs>
</svg>
