<svg width="21" height="20" viewBox="0 0 21 20" fill="none" xmlns="http://www.w3.org/2000/svg">
<path d="M12.1667 10H8.83334V8.33333H12.1667V10ZM12.1667 13.3333H8.83334V11.6667H12.1667V13.3333ZM17.1667 6.66667H14.825C14.45 6.01667 13.9333 5.45833 13.3083 5.03333L14.6667 3.675L13.4917 2.5L11.6833 4.30833C11.3 4.21667 10.9167 4.16667 10.5 4.16667C10.0833 4.16667 9.7 4.21667 9.325 4.30833L7.50834 2.5L6.33334 3.675L7.68334 5.03333C7.06667 5.45833 6.55 6.01667 6.175 6.66667H3.83334V8.33333H5.575C5.53334 8.60833 5.5 8.88333 5.5 9.16667V10H3.83334V11.6667H5.5V12.5C5.5 12.7833 5.53334 13.0583 5.575 13.3333H3.83334V15H6.175C7.04167 16.4917 8.65 17.5 10.5 17.5C12.35 17.5 13.9583 16.4917 14.825 15H17.1667V13.3333H15.425C15.4667 13.0583 15.5 12.7833 15.5 12.5V11.6667H17.1667V10H15.5V9.16667C15.5 8.88333 15.4667 8.60833 15.425 8.33333H17.1667V6.66667Z" fill="#B51D09"/>
</svg>
