<svg width="20" height="21" viewBox="0 0 20 21" fill="none" xmlns="http://www.w3.org/2000/svg">
<path d="M11.6667 10.5H8.33337V8.83333H11.6667V10.5ZM11.6667 13.8333H8.33337V12.1667H11.6667V13.8333ZM16.6667 7.16667H14.325C13.95 6.51667 13.4334 5.95833 12.8084 5.53333L14.1667 4.175L12.9917 3L11.1834 4.80833C10.8 4.71667 10.4167 4.66667 10 4.66667C9.58337 4.66667 9.20004 4.71667 8.82504 4.80833L7.00837 3L5.83337 4.175L7.18337 5.53333C6.56671 5.95833 6.05004 6.51667 5.67504 7.16667H3.33337V8.83333H5.07504C5.03337 9.10833 5.00004 9.38333 5.00004 9.66667V10.5H3.33337V12.1667H5.00004V13C5.00004 13.2833 5.03337 13.5583 5.07504 13.8333H3.33337V15.5H5.67504C6.54171 16.9917 8.15004 18 10 18C11.85 18 13.4584 16.9917 14.325 15.5H16.6667V13.8333H14.925C14.9667 13.5583 15 13.2833 15 13V12.1667H16.6667V10.5H15V9.66667C15 9.38333 14.9667 9.10833 14.925 8.83333H16.6667V7.16667Z" fill="#835AA6"/>
</svg>
