<svg width="40" height="40" viewBox="0 0 40 40" fill="none" xmlns="http://www.w3.org/2000/svg">
<g clip-path="url(#clip0_27141_234478)">
<path fill-rule="evenodd" clip-rule="evenodd" d="M36.6666 20.0002C36.6666 29.2049 29.2047 36.6668 19.9999 36.6668C10.7952 36.6668 3.33325 29.2049 3.33325 20.0002C3.33325 10.7954 10.7952 3.3335 19.9999 3.3335C29.2047 3.3335 36.6666 10.7954 36.6666 20.0002ZM26.0869 10.0002H13.9129L10.4964 14.348H29.5041L26.0869 10.0002ZM14.3477 16.0871C14.3477 17.288 13.3747 18.261 12.1738 18.261C10.9729 18.261 9.99992 17.288 9.99992 16.0871V15.2175H14.3477V16.0871ZM25.6521 15.2175V16.0871C25.6521 17.288 26.6252 18.261 27.8261 18.261C29.027 18.261 30 17.288 30 16.0871V15.2175H25.6521ZM24.7825 16.0871C24.7825 17.288 23.8095 18.261 22.6086 18.261C21.4077 18.261 20.4347 17.288 20.4347 16.0871V15.2175H24.7825V16.0871ZM17.3912 18.261C18.5921 18.261 19.5651 17.288 19.5651 16.0871V15.2175H15.2173V16.0871C15.2173 17.288 16.1903 18.261 17.3912 18.261ZM27.826 19.1307C28.1303 19.1307 28.419 19.0724 28.6955 18.9889V28.261H29.5651V29.1306H10.4347V28.261H11.3042V18.9889C11.5808 19.0724 11.8695 19.1307 12.1738 19.1307C13.2868 19.1307 14.2511 18.5229 14.7816 17.6281C15.312 18.5229 16.2782 19.1307 17.3912 19.1307C18.5033 19.1307 19.4695 18.5237 19.9999 17.6298C20.5294 18.5237 21.4964 19.1307 22.6086 19.1307C23.7208 19.1307 24.6878 18.5229 25.2182 17.6281C25.7486 18.5229 26.7138 19.1307 27.826 19.1307ZM17.826 25.6523C18.066 25.6523 18.2608 25.4567 18.2608 25.2176V21.7393C18.2608 21.5002 18.066 21.3045 17.826 21.3045H14.3477C14.1077 21.3045 13.9129 21.5002 13.9129 21.7393V25.2176C13.9129 25.4567 14.1077 25.6523 14.3477 25.6523H17.826ZM20.8695 28.261H25.2173V21.7393C25.2173 21.5002 25.0216 21.3045 24.7825 21.3045H21.3042C21.0651 21.3045 20.8695 21.5002 20.8695 21.7393V28.261Z" fill="#2C608A"/>
</g>
<defs>
<clipPath id="clip0_27141_234478">
<rect width="40" height="40" fill="white"/>
</clipPath>
</defs>
</svg>
