<svg width="24" height="24" viewBox="0 0 24 24" fill="none" xmlns="http://www.w3.org/2000/svg">
<g clip-path="url(#clip0_4669_42623)">
<path fill-rule="evenodd" clip-rule="evenodd" d="M22 12C22 17.5228 17.5228 22 12 22C6.47715 22 2 17.5228 2 12C2 6.47715 6.47715 2 12 2C17.5228 2 22 6.47715 22 12ZM15.9301 6.27777H8.62575L6.57581 8.88647H17.9805L15.9301 6.27777ZM8.88645 9.9301C8.88645 10.6506 8.30264 11.2345 7.5821 11.2345C6.86156 11.2345 6.27775 10.6506 6.27775 9.9301V9.40837H8.88645V9.9301ZM15.669 9.40837V9.9301C15.669 10.6506 16.2528 11.2345 16.9734 11.2345C17.6939 11.2345 18.2777 10.6506 18.2777 9.9301V9.40837H15.669ZM15.1476 9.9301C15.1476 10.6506 14.5638 11.2345 13.8433 11.2345C13.1227 11.2345 12.5389 10.6506 12.5389 9.9301V9.40837H15.1476V9.9301ZM10.7127 11.2345C11.4332 11.2345 12.017 10.6506 12.017 9.9301V9.40837H9.40835V9.9301C9.40835 10.6506 9.99215 11.2345 10.7127 11.2345ZM16.9735 11.7562C17.1561 11.7562 17.3293 11.7213 17.4952 11.6712V17.2344H18.0169V17.7562H6.53868V17.2344H7.06041V11.6712C7.22634 11.7213 7.39955 11.7562 7.58215 11.7562C8.24997 11.7562 8.82855 11.3915 9.14681 10.8546C9.46509 11.3915 10.0448 11.7562 10.7126 11.7562C11.3799 11.7562 11.9595 11.392 12.2778 10.8557C12.5955 11.392 13.1757 11.7562 13.843 11.7562C14.5103 11.7562 15.0905 11.3915 15.4088 10.8546C15.727 11.3915 16.3062 11.7562 16.9735 11.7562ZM10.9735 15.6692C11.1175 15.6692 11.2343 15.5518 11.2343 15.4084V13.3214C11.2343 13.1779 11.1175 13.0605 10.9735 13.0605H8.8865C8.74248 13.0605 8.62563 13.1779 8.62563 13.3214V15.4084C8.62563 15.5518 8.74247 15.6692 8.8865 15.6692H10.9735ZM12.7995 17.2344H15.4082V13.3214C15.4082 13.1779 15.2908 13.0605 15.1474 13.0605H13.0604C12.9169 13.0605 12.7995 13.1779 12.7995 13.3214V17.2344Z" fill="#4b7600"/>
</g>
<defs>
<clipPath id="clip0_4669_42623">
<rect width="24" height="24" fill="white"/>
</clipPath>
</defs>
</svg>
