<svg width="48" height="48" viewBox="0 0 48 48" fill="none" xmlns="http://www.w3.org/2000/svg">
<circle cx="24" cy="24" r="24" fill="#E5A000"/>
<path d="M32.7376 20.631C32.7376 18.9025 32.2251 17.2128 31.2648 15.7757C30.3045 14.3385 28.9396 13.2184 27.3427 12.5569C25.7458 11.8954 23.9886 11.7224 22.2934 12.0596C20.5981 12.3968 19.0409 13.2291 17.8187 14.4513C16.5965 15.6736 15.7642 17.2308 15.4269 18.926C15.0897 20.6213 15.2628 22.3785 15.9243 23.9754C16.5857 25.5723 17.7059 26.9371 19.143 27.8974C20.5802 28.8577 22.2699 29.3703 23.9983 29.3703C26.3154 29.3678 28.5368 28.4462 30.1752 26.8078C31.8136 25.1694 32.7351 22.948 32.7376 20.631ZM23.9983 27.7813C22.5841 27.7813 21.2017 27.3619 20.0258 26.5763C18.8499 25.7906 17.9335 24.6738 17.3923 23.3673C16.8511 22.0607 16.7095 20.623 16.9854 19.236C17.2613 17.849 17.9423 16.5749 18.9423 15.5749C19.9423 14.5749 21.2163 13.8939 22.6034 13.618C23.9904 13.3421 25.4281 13.4837 26.7346 14.0249C28.0412 14.5661 29.1579 15.4826 29.9436 16.6584C30.7293 17.8343 31.1487 19.2168 31.1487 20.631C31.1466 22.5267 30.3926 24.3442 29.0521 25.6847C27.7116 27.0252 25.8941 27.7792 23.9983 27.7813ZM32.1497 29.4497C32.6289 29.4739 33.1077 29.3957 33.5543 29.2203C34.0009 29.045 34.405 28.7765 34.7397 28.4328C34.9611 27.9976 35.0869 27.5201 35.1088 27.0323C35.1308 26.5446 35.0483 26.0577 34.8669 25.6044C34.7231 25.1204 34.6692 24.6142 34.708 24.1108C34.9614 23.7027 35.2904 23.3468 35.6772 23.0621C36.1009 22.7944 36.462 22.4388 36.7361 22.0194C37.0103 21.5999 37.1911 21.1264 37.2662 20.631C37.1911 20.1355 37.0103 19.662 36.7361 19.2426C36.462 18.8231 36.1009 18.4675 35.6772 18.1998C35.2904 17.9151 34.9614 17.5592 34.708 17.1511C34.6692 16.6477 34.7231 16.1415 34.8669 15.6575C35.0483 15.2042 35.1308 14.7174 35.1088 14.2296C35.0869 13.7418 34.9611 13.2644 34.7397 12.8291C34.3915 12.4812 33.9736 12.2108 33.5136 12.0356C33.0536 11.8603 32.5618 11.7842 32.0703 11.8122C31.5738 11.8173 31.0815 11.7199 30.6243 11.5262C30.2978 11.1498 30.0493 10.7123 29.8934 10.2391C29.512 9.34931 29.083 8.33237 28.0979 8.01458C27.6215 7.93561 27.1338 7.96001 26.6677 8.08612C26.2016 8.21223 25.7681 8.43711 25.3966 8.7455C24.9772 9.04438 24.5015 9.25518 23.9983 9.3652C23.4952 9.25518 23.0195 9.04438 22.6 8.7455C22.2285 8.43711 21.795 8.21223 21.329 8.08612C20.8629 7.96001 20.3751 7.93561 19.8988 8.01458C18.9136 8.33237 18.4846 9.34931 18.1033 10.2391C17.9473 10.7123 17.6989 11.1498 17.3723 11.5262C16.9151 11.7199 16.4229 11.8173 15.9264 11.8122C15.4349 11.7842 14.9431 11.8603 14.483 12.0356C14.023 12.2108 13.6052 12.4812 13.2569 12.8291C13.0356 13.2644 12.9097 13.7418 12.8878 14.2296C12.8659 14.7174 12.9484 15.2042 13.1298 15.6575C13.2736 16.1415 13.3275 16.6477 13.2887 17.1511C13.0353 17.5592 12.7063 17.9151 12.3194 18.1998C11.8958 18.4675 11.5347 18.8231 11.2605 19.2426C10.9864 19.662 10.8056 20.1355 10.7305 20.631C10.8056 21.1264 10.9864 21.5999 11.2605 22.0194C11.5347 22.4388 11.8958 22.7944 12.3194 23.0621C12.7063 23.3468 13.0353 23.7027 13.2887 24.1108C13.3275 24.6142 13.2736 25.1204 13.1298 25.6044C12.9484 26.0577 12.8659 26.5446 12.8878 27.0323C12.9097 27.5201 13.0356 27.9976 13.2569 28.4328C13.5917 28.7765 13.9958 29.045 14.4424 29.2203C14.889 29.3957 15.3678 29.4739 15.8469 29.4497L11.6362 34.9475C11.5441 35.0741 11.4909 35.2249 11.4833 35.3812C11.4756 35.5376 11.5138 35.6928 11.5931 35.8278C11.6724 35.9628 11.7894 36.0717 11.9297 36.1411C12.07 36.2106 12.2276 36.2375 12.383 36.2187L16.0376 35.7261L16.5302 39.3966C16.5534 39.551 16.6215 39.6951 16.726 39.8109C16.8306 39.9268 16.967 40.0093 17.1181 40.0481C17.1856 40.0664 17.2548 40.0771 17.3247 40.0799C17.4479 40.0791 17.5692 40.05 17.6794 39.9949C17.7896 39.9398 17.8857 39.8601 17.9603 39.7621L23.9507 31.9126C23.9644 31.9023 23.9811 31.8967 23.9983 31.8967C24.0155 31.8967 24.0322 31.9023 24.046 31.9126L30.0364 39.7621C30.111 39.8601 30.2071 39.9398 30.3173 39.9949C30.4274 40.05 30.5488 40.0791 30.672 40.0799C30.7418 40.0771 30.8111 40.0664 30.8786 40.0481C31.0297 40.0093 31.1661 39.9268 31.2706 39.8109C31.3752 39.6951 31.4433 39.551 31.4665 39.3966L31.959 35.7261L35.6137 36.2187C35.7691 36.2375 35.9266 36.2106 36.0669 36.1411C36.2072 36.0717 36.3242 35.9628 36.4035 35.8278C36.4828 35.6928 36.521 35.5376 36.5134 35.3812C36.5057 35.2249 36.4526 35.0741 36.3605 34.9475L32.1497 29.4497ZM17.849 37.2833L17.5154 34.7251C17.4823 34.516 17.3694 34.328 17.2005 34.2005C17.0315 34.0731 16.8197 34.0162 16.6096 34.0418L14.0673 34.3914L17.5154 29.8787C17.759 30.2337 17.9565 30.6181 18.1033 31.0228C18.4846 31.9126 18.9136 32.9296 19.8988 33.2474C20.2227 33.3498 20.5677 33.3663 20.8998 33.295L17.849 37.2833ZM23.9983 30.3078C23.8051 30.3108 23.613 30.3374 23.4263 30.3872C23.4104 30.3872 23.4104 30.3872 23.3945 30.4031C23.3281 30.4038 23.2628 30.4201 23.2038 30.4508C23.188 30.4508 23.1721 30.4667 23.1403 30.4667C22.6687 30.6495 22.2163 30.8784 21.7897 31.1499C21.313 31.4359 20.6456 31.8332 20.3914 31.7378C20.0895 31.6425 19.7876 30.9275 19.5651 30.3872C19.3256 29.6459 18.8922 28.9821 18.3098 28.4646C18.1188 28.3213 17.9035 28.2137 17.6742 28.1468C17.5899 28.1038 17.4983 28.0768 17.4041 28.0673C16.9663 27.9586 16.5196 27.8895 16.0694 27.8608C15.4974 27.8131 14.7188 27.7336 14.544 27.4953C14.3692 27.257 14.544 26.5101 14.6711 25.954C14.9175 25.2 14.9614 24.3945 14.7982 23.6182C14.4766 22.9153 13.9785 22.3077 13.3523 21.8545C12.8915 21.4572 12.3194 20.9488 12.3194 20.631C12.3194 20.3132 12.8915 19.8047 13.3523 19.3916C13.9811 18.9479 14.4803 18.3446 14.7982 17.6437C14.9614 16.8674 14.9175 16.0619 14.6711 15.3079C14.544 14.7518 14.3692 14.005 14.544 13.7666C14.7188 13.5283 15.4974 13.4488 16.0694 13.4012C16.8567 13.4033 17.6302 13.1948 18.3098 12.7974C18.8922 12.2798 19.3256 11.616 19.5651 10.8747C19.7876 10.3345 20.0895 9.61943 20.3914 9.5241C20.4152 9.50968 20.4433 9.50406 20.4708 9.50821C20.9431 9.62864 21.3899 9.83318 21.7897 10.112C22.4393 10.5816 23.201 10.872 23.9983 10.9542C24.7957 10.872 25.5574 10.5816 26.207 10.112C26.6837 9.826 27.351 9.44465 27.6053 9.5241C27.9072 9.61943 28.2091 10.3345 28.4315 10.8747C28.6711 11.616 29.1045 12.2798 29.6868 12.7974C30.3664 13.1948 31.14 13.4033 31.9273 13.4012C32.4993 13.4488 33.2779 13.5283 33.4527 13.7666C33.6275 14.005 33.4527 14.7518 33.3256 15.3079C33.0791 16.0619 33.0353 16.8674 33.1984 17.6437C33.5164 18.3446 34.0155 18.9479 34.6444 19.3916C35.1052 19.8047 35.6772 20.3132 35.6772 20.631C35.6772 20.9488 35.1052 21.4572 34.6444 21.8545C34.0182 22.3077 33.5201 22.9153 33.1984 23.6182C33.0353 24.3945 33.0791 25.2 33.3256 25.954C33.4527 26.5101 33.6275 27.257 33.4527 27.4953C33.2779 27.7336 32.4993 27.8131 31.9273 27.8608C31.4383 27.8897 30.9537 27.9696 30.4813 28.0991C30.4654 28.0991 30.4495 28.115 30.4336 28.115C30.1645 28.1822 29.9108 28.3009 29.6868 28.4646C29.1045 28.9821 28.6711 29.6459 28.4315 30.3872C28.2091 30.9275 27.9072 31.6425 27.6053 31.7378C27.351 31.8173 26.6837 31.4359 26.207 31.1499C25.7803 30.8784 25.3279 30.6495 24.8564 30.4667C24.8246 30.4667 24.8087 30.4508 24.7928 30.4508C24.7339 30.4201 24.6686 30.4038 24.6021 30.4031C24.5862 30.3872 24.5862 30.3872 24.5704 30.3872C24.3836 30.3374 24.1915 30.3108 23.9983 30.3078ZM31.387 34.0418C31.1769 34.0162 30.9651 34.0731 30.7962 34.2005C30.6272 34.328 30.5143 34.516 30.4813 34.7251L30.1476 37.2833L27.0968 33.295C27.2429 33.3274 27.3921 33.3434 27.5417 33.3427C27.731 33.3407 27.9187 33.3085 28.0979 33.2474C29.083 32.9296 29.512 31.9126 29.8934 31.0228C30.0401 30.6181 30.2377 30.2337 30.4813 29.8787L33.9294 34.3914L31.387 34.0418ZM28.2679 18.9467L25.8098 18.5971L24.7102 16.3725C24.6376 16.2472 24.5333 16.1431 24.4078 16.0708C24.2823 15.9984 24.14 15.9603 23.9952 15.9603C23.8503 15.9603 23.708 15.9984 23.5825 16.0708C23.457 16.1431 23.3527 16.2472 23.2801 16.3725L22.1869 18.5971L19.7288 18.9546C19.582 18.9759 19.4442 19.0379 19.3308 19.1334C19.2175 19.229 19.1331 19.3544 19.0873 19.4955C19.0415 19.6365 19.0361 19.7875 19.0717 19.9315C19.1073 20.0754 19.1824 20.2065 19.2886 20.31L21.0667 22.0436L20.6472 24.4922C20.6226 24.638 20.6393 24.7879 20.6953 24.9248C20.7512 25.0617 20.8444 25.1803 20.9641 25.2672C21.0838 25.3541 21.2254 25.4058 21.373 25.4165C21.5205 25.4272 21.6681 25.3966 21.7992 25.3279L23.9983 24.1728L26.1975 25.3279C26.3286 25.3968 26.4763 25.4276 26.624 25.4169C26.7716 25.4062 26.9134 25.3545 27.0333 25.2676C27.1532 25.1808 27.2465 25.0622 27.3027 24.9252C27.3589 24.7882 27.3756 24.6382 27.351 24.4922L26.9316 22.0436L28.7096 20.31C28.8158 20.2065 28.891 20.0754 28.9266 19.9315C28.9621 19.7875 28.9567 19.6365 28.9109 19.4955C28.8651 19.3544 28.7808 19.229 28.6674 19.1334C28.5541 19.0379 28.4162 18.9759 28.2695 18.9546L28.2679 18.9467ZM25.5206 21.1887C25.4284 21.2788 25.3596 21.39 25.32 21.5126C25.2804 21.6352 25.2713 21.7656 25.2933 21.8926L25.511 23.1638L24.367 22.5631C24.2532 22.5036 24.1267 22.4724 23.9983 22.4724C23.8699 22.4724 23.7434 22.5036 23.6297 22.5631L22.4856 23.1638L22.7033 21.8926C22.7254 21.7656 22.7162 21.6352 22.6766 21.5126C22.637 21.39 22.5682 21.2788 22.4761 21.1887L21.5497 20.2877L22.8209 20.1018C22.9483 20.0831 23.0693 20.0337 23.1734 19.9579C23.2774 19.882 23.3615 19.782 23.4184 19.6665L23.9904 18.5081L24.5624 19.6665C24.6193 19.782 24.7033 19.882 24.8074 19.9579C24.9115 20.0337 25.0324 20.0831 25.1599 20.1018L26.431 20.2877L25.5206 21.1887Z" fill="white"/>
</svg>
