<svg width="20" height="21" viewBox="0 0 20 21" fill="none" xmlns="http://www.w3.org/2000/svg">
<path d="M9.99996 3C14.5833 3 18.3333 5.98333 18.3333 9.66667C18.3333 13.35 14.5833 16.3333 9.99996 16.3333C8.96663 16.3333 7.97496 16.1833 7.05829 15.9167C4.62496 18 1.66663 18 1.66663 18C3.60829 16.0583 3.91663 14.75 3.95829 14.25C2.54163 13.0583 1.66663 11.4417 1.66663 9.66667C1.66663 5.98333 5.41663 3 9.99996 3ZM14.1666 10.5V8.83333H12.5V10.5H14.1666ZM10.8333 10.5V8.83333H9.16663V10.5H10.8333ZM7.49996 10.5V8.83333H5.83329V10.5H7.49996Z" fill="#2378C3"/>
</svg>
