<svg width="72" height="72" viewBox="0 0 72 72" fill="none" xmlns="http://www.w3.org/2000/svg">
<rect width="72" height="72" rx="36" fill="#CFE8FF"/>
<g clip-path="url(#clip0_38138_8783)">
<path d="M58 36L53.12 30.42L53.8 23.04L46.58 21.4L42.8 15L36 17.92L29.2 15L25.42 21.38L18.2 23L18.88 30.4L14 36L18.88 41.58L18.2 48.98L25.42 50.62L29.2 57L36 54.06L42.8 56.98L46.58 50.6L53.8 48.96L53.12 41.58L58 36ZM32.18 45.44L24.58 37.82L27.54 34.86L32.18 39.52L43.88 27.78L46.84 30.74L32.18 45.44Z" fill="#0076D6"/>
</g>
<defs>
<clipPath id="clip0_38138_8783">
<rect width="48" height="48" fill="white" transform="translate(12 12)"/>
</clipPath>
</defs>
</svg>
