<svg width="25" height="25" viewBox="0 0 25 25" fill="none" xmlns="http://www.w3.org/2000/svg">
<path d="M12.2795 15.0929C12.1321 15.2432 11.9422 15.3165 11.7527 15.3165C11.5639 15.3165 11.3756 15.2438 11.2277 15.093L12.2795 15.0929ZM12.2795 15.0929L12.2794 15.0928L24.2775 2.84238C24.2777 2.84223 24.2778 2.84208 24.278 2.84193C24.574 2.53792 24.5741 2.03952 24.2778 1.73522C23.9859 1.43763 23.5143 1.43762 23.2222 1.73564C23.2221 1.73568 23.2221 1.73572 23.2221 1.73576L12.1098 13.084L11.7525 13.449L11.3953 13.084L8.50876 10.1347C8.50872 10.1347 8.50868 10.1346 8.50864 10.1346C8.21668 9.83661 7.74687 9.83653 7.45464 10.1348C7.15708 10.4387 7.15699 10.9365 7.45479 11.2407L11.2276 15.0929L12.2795 15.0929ZM23.0055 12.5003C23.0055 18.8088 18.011 23.9338 11.8722 23.9994H11.7525C5.55915 23.9994 0.5 18.8488 0.5 12.4997C0.5 6.15055 5.55926 1 11.7525 1C13.7869 1 15.814 1.59437 17.614 2.72109C17.968 2.94401 18.0848 3.42578 17.8616 3.79605C17.6417 4.16052 17.1827 4.26663 16.8365 4.05117C15.2789 3.07434 13.5213 2.55324 11.7524 2.55324C6.36526 2.55324 1.99989 7.02524 1.99989 12.5003C1.99989 17.9754 6.36497 22.4474 11.7524 22.4474C17.1397 22.4474 21.5048 17.9775 21.5048 12.5003C21.5048 11.7744 21.4066 11.0163 21.2115 10.1897L21.2115 10.1897C21.1106 9.76259 21.3703 9.34781 21.767 9.24986L21.7678 9.24968C22.1624 9.15162 22.5698 9.39595 22.6687 9.81974L22.669 9.82105C22.8972 10.7879 23.0055 11.6621 23.0055 12.5003Z" fill="#2C608A" stroke="#2C608A"/>
</svg>
