<svg width="100" height="101" viewBox="0 0 100 101" fill="none" xmlns="http://www.w3.org/2000/svg">
<path d="M42.849 19.3953L40.0058 28.1487C39.7791 28.8461 40.0278 29.6095 40.6197 30.0412C41.2151 30.4728 42.0135 30.4728 42.6088 30.0412L50.0493 24.6311L57.4897 30.0412C57.7874 30.2562 58.1358 30.3645 58.4843 30.3645C58.8327 30.3645 59.1828 30.2578 59.4788 30.0412C60.0725 29.6095 60.3194 28.8461 60.0928 28.1487L57.2495 19.3953L64.69 13.9852C65.2837 13.5536 65.5306 12.7901 65.304 12.0927C65.0773 11.3953 64.4329 10.9247 63.7005 10.9247H54.5027L51.6595 2.1697C51.4328 1.47228 50.7833 1 50.051 1C49.3186 1 48.6691 1.47228 48.4424 2.1697L45.5992 10.9247H36.4014C35.6673 10.9247 35.0195 11.397 34.7929 12.0944C34.5662 12.7918 34.8149 13.5553 35.4069 13.9869L42.849 19.3953ZM46.8289 14.3103C47.5629 14.3103 48.2107 13.838 48.4374 13.1406L50.051 8.16888L51.6646 13.1406C51.8912 13.838 52.5407 14.3103 53.2731 14.3103H58.4927L54.2693 17.3809C53.6756 17.8126 53.4287 18.576 53.6553 19.2735L55.2689 24.2417L51.0455 21.1711C50.7478 20.9561 50.3994 20.8477 50.051 20.8477C49.7025 20.8477 49.3541 20.9544 49.0564 21.1711L44.833 24.2417L46.4466 19.2735C46.6732 18.576 46.4246 17.8126 45.8326 17.3809L41.6092 14.3103H46.8289V14.3103ZM98.5043 40.2537L92.0009 33.745L96.177 25.5418C96.5102 24.8884 96.385 24.0945 95.8658 23.5765C95.3465 23.0568 94.5566 22.9332 93.9021 23.265L85.7056 27.4445L79.2021 20.9358C78.6829 20.4161 77.893 20.2925 77.2384 20.6243C76.5856 20.9578 76.2202 21.6738 76.3369 22.3966L77.7746 31.4885L69.5798 35.6662C68.9269 35.9997 68.5616 36.7158 68.6783 37.4386C68.7916 38.1631 69.3599 38.7319 70.0838 38.847L79.1683 40.2875L80.6094 49.3811C80.7227 50.1056 81.291 50.6727 82.0149 50.7878C82.1046 50.8013 82.1908 50.8081 82.2788 50.8081C82.908 50.8081 83.4949 50.456 83.7858 49.8838L87.9619 41.6824L97.0447 43.1229C97.7618 43.2329 98.4841 42.8724 98.8156 42.219C99.1488 41.5656 99.0219 40.7716 98.5043 40.2537ZM87.2752 38.1445C86.5411 38.0277 85.8341 38.395 85.5043 39.0484L83.1346 43.7035L82.3177 38.5423C82.2044 37.8178 81.6361 37.2507 80.9122 37.1356L75.7551 36.318L80.4064 33.9464C81.0593 33.6129 81.4246 32.8969 81.3079 32.1741L80.4927 27.0128L84.185 30.7064C84.7059 31.2278 85.4941 31.3497 86.1487 31.0179L90.8017 28.6446L88.4321 33.3014C88.0989 33.9549 88.224 34.7488 88.7433 35.2668L92.4339 38.9604L87.2752 38.1445ZM51.7407 37.3675V98.3072C51.7407 99.2433 50.9846 100 50.0493 100C49.1139 100 48.3579 99.2433 48.3579 98.3072V37.3675C48.3579 36.4331 49.1139 35.6747 50.0493 35.6747C50.9846 35.6747 51.7407 36.4314 51.7407 37.3675ZM73.5512 46.7657C73.9656 47.5952 73.6358 48.6007 72.8154 49.0256C72.5719 49.1627 60.1976 56.5483 60.1976 98.3072C60.1976 99.2433 59.4416 100 58.5062 100C57.5709 100 56.8148 99.2433 56.8148 98.3072C56.8148 53.762 70.6894 46.3053 71.2813 46.0091C72.1186 45.591 73.1317 45.9295 73.5512 46.7657ZM31.3221 37.4403C31.4372 36.7158 31.0735 35.9997 30.4206 35.6679L22.2258 31.4902L23.6635 22.3983C23.7785 21.6738 23.4149 20.9578 22.762 20.626C22.1074 20.2942 21.3175 20.4178 20.7983 20.9375L14.2949 27.4445L6.09838 23.265C5.44381 22.9332 4.65393 23.0568 4.13467 23.5765C3.61541 24.0945 3.49025 24.8884 3.82345 25.5418L7.9995 33.745L1.49609 40.2537C0.976833 40.7716 0.85167 41.5656 1.18487 42.219C1.51639 42.8724 2.24031 43.2397 2.95577 43.1229L12.0386 41.6824L16.2146 49.8838C16.5055 50.4577 17.0924 50.8081 17.7216 50.8081C17.8096 50.8081 17.8975 50.8013 17.9855 50.7878C18.7094 50.6727 19.2777 50.1056 19.391 49.3811L20.8321 40.2875L29.9166 38.847C30.6405 38.7319 31.2088 38.1648 31.3221 37.4403ZM19.09 37.1356C18.3661 37.2507 17.7978 37.8178 17.6844 38.5423L16.8675 43.7035L14.4978 39.0484C14.2069 38.4763 13.62 38.1242 12.9908 38.1242C12.9029 38.1242 12.8149 38.1309 12.727 38.1445L7.57158 38.9621L11.2622 35.2685C11.7815 34.7505 11.9066 33.9566 11.5734 33.3031L9.20039 28.6463L13.8534 31.0196C14.508 31.3514 15.2979 31.2295 15.8171 30.7081L19.5094 27.0145L18.6942 32.1758C18.5792 32.9003 18.9428 33.6163 19.5957 33.9481L24.247 36.3197L19.09 37.1356ZM43.1856 98.3072C43.1856 99.2433 42.4295 100 41.4942 100C40.5589 100 39.8028 99.2433 39.8028 98.3072C39.8028 56.3485 27.3085 49.0933 27.1816 49.0256C26.3714 48.5855 26.0484 47.5681 26.4746 46.7488C26.9008 45.9261 27.8971 45.596 28.7191 46.0091C29.3111 46.3053 43.1856 53.762 43.1856 98.3072ZM85.5703 59.3735C82.7727 59.3735 80.4961 61.652 80.4961 64.4518C80.4961 67.2517 82.7727 69.5301 85.5703 69.5301C88.3678 69.5301 90.6444 67.2517 90.6444 64.4518C90.6444 61.652 88.3695 59.3735 85.5703 59.3735ZM85.5703 66.1446C84.6366 66.1446 83.8789 65.3862 83.8789 64.4518C83.8789 63.5174 84.6366 62.759 85.5703 62.759C86.5039 62.759 87.2616 63.5174 87.2616 64.4518C87.2616 65.3862 86.5039 66.1446 85.5703 66.1446ZM12.8403 59.3735C10.0427 59.3735 7.76609 61.652 7.76609 64.4518C7.76609 67.2517 10.0427 69.5301 12.8403 69.5301C15.6378 69.5301 17.9145 67.2517 17.9145 64.4518C17.9145 61.652 15.6395 59.3735 12.8403 59.3735ZM12.8403 66.1446C11.9066 66.1446 11.1489 65.3862 11.1489 64.4518C11.1489 63.5174 11.9066 62.759 12.8403 62.759C13.7739 62.759 14.5317 63.5174 14.5317 64.4518C14.5317 65.3862 13.7739 66.1446 12.8403 66.1446ZM77.1133 15.3615C79.9108 15.3615 82.1875 13.083 82.1875 10.2832C82.1875 7.48331 79.9108 5.20484 77.1133 5.20484C74.3157 5.20484 72.0391 7.48331 72.0391 10.2832C72.0391 13.083 74.3157 15.3615 77.1133 15.3615ZM77.1133 8.59038C78.0469 8.59038 78.8047 9.35044 78.8047 10.2832C78.8047 11.2159 78.0469 11.9759 77.1133 11.9759C76.1796 11.9759 75.4219 11.2159 75.4219 10.2832C75.4219 9.35044 76.1813 8.59038 77.1133 8.59038ZM22.9886 15.3615C25.7862 15.3615 28.0628 13.083 28.0628 10.2832C28.0628 7.48331 25.7862 5.20484 22.9886 5.20484C20.1911 5.20484 17.9145 7.48331 17.9145 10.2832C17.9145 13.083 20.1911 15.3615 22.9886 15.3615ZM22.9886 8.59038C23.9223 8.59038 24.68 9.35044 24.68 10.2832C24.68 11.2159 23.9223 11.9759 22.9886 11.9759C22.055 11.9759 21.2973 11.2159 21.2973 10.2832C21.2973 9.35044 22.0567 8.59038 22.9886 8.59038Z" fill="white" stroke="white" stroke-width="0.5"/>
</svg>
