<svg width="50" height="50" viewBox="0 0 50 50" fill="none" xmlns="http://www.w3.org/2000/svg">
<path d="M21.73 9.60476L20.3216 13.9372C20.2093 14.2824 20.3325 14.6603 20.6257 14.8739C20.9206 15.0876 21.3161 15.0876 21.611 14.8739L25.2967 12.1962L28.9823 14.8739C29.1298 14.9803 29.3024 15.0339 29.4749 15.0339C29.6475 15.0339 29.821 14.9812 29.9676 14.8739C30.2617 14.6603 30.384 14.2824 30.2717 13.9372L28.8633 9.60476L32.549 6.92704C32.843 6.71339 32.9654 6.33553 32.8531 5.99034C32.7408 5.64515 32.4216 5.41223 32.0588 5.41223H27.5027L26.0943 1.07894C25.982 0.733756 25.6603 0.5 25.2975 0.5C24.9347 0.5 24.613 0.733756 24.5007 1.07894L23.0923 5.41223H18.5362C18.1725 5.41223 17.8516 5.64599 17.7394 5.99118C17.6271 6.33637 17.7503 6.71423 18.0435 6.92788L21.73 9.60476ZM23.7014 7.0879C24.065 7.0879 24.3859 6.85415 24.4982 6.50896L25.2975 4.04824L26.0968 6.50896C26.2091 6.85415 26.5308 7.0879 26.8936 7.0879H29.4791L27.3871 8.60774C27.093 8.82139 26.9707 9.19925 27.0829 9.54444L27.8822 12.0035L25.7901 10.4837C25.6427 10.3772 25.4701 10.3236 25.2975 10.3236C25.1249 10.3236 24.9523 10.3764 24.8048 10.4837L22.7128 12.0035L23.5121 9.54444C23.6243 9.19925 23.5012 8.82139 23.2079 8.60774L21.1159 7.0879H23.7014ZM49.299 19.9286L46.0775 16.7071L48.1461 12.6469C48.3112 12.3235 48.2492 11.9306 47.992 11.6742C47.7347 11.417 47.3435 11.3558 47.0192 11.5201L42.9591 13.5887L39.7376 10.3672C39.4804 10.11 39.0891 10.0488 38.7649 10.213C38.4415 10.3781 38.2605 10.7325 38.3183 11.0902L39.0305 15.5903L34.9711 17.658C34.6477 17.8231 34.4668 18.1775 34.5246 18.5353C34.5807 18.8939 34.8622 19.1754 35.2208 19.2323L39.7208 19.9453L40.4347 24.4462C40.4908 24.8048 40.7723 25.0855 41.1309 25.1424C41.1753 25.1491 41.2181 25.1525 41.2616 25.1525C41.5733 25.1525 41.864 24.9782 42.0081 24.695L44.0768 20.6357L48.5759 21.3487C48.9312 21.4032 49.2889 21.2247 49.4531 20.9013C49.6182 20.5779 49.5554 20.185 49.299 19.9286ZM43.7366 18.8846C43.373 18.8268 43.0228 19.0086 42.8594 19.332L41.6856 21.6361L41.2809 19.0815C41.2248 18.7229 40.9432 18.4423 40.5847 18.3853L38.0301 17.9806L40.3341 16.8068C40.6575 16.6417 40.8385 16.2873 40.7807 15.9296L40.3769 13.375L42.2059 15.2032C42.4639 15.4612 42.8544 15.5216 43.1786 15.3573L45.4835 14.1827L44.3097 16.4876C44.1446 16.811 44.2066 17.2039 44.4638 17.4603L46.292 19.2885L43.7366 18.8846ZM26.1345 18.5001V48.6622C26.1345 49.1255 25.76 49.5 25.2967 49.5C24.8333 49.5 24.4588 49.1255 24.4588 48.6622V18.5001C24.4588 18.0376 24.8333 17.6622 25.2967 17.6622C25.76 17.6622 26.1345 18.0367 26.1345 18.5001ZM36.9384 23.1517C37.1437 23.5623 36.9803 24.0599 36.5739 24.2702C36.4533 24.3381 30.3237 27.9936 30.3237 48.6622C30.3237 49.1255 29.9492 49.5 29.4858 49.5C29.0225 49.5 28.648 49.1255 28.648 48.6622C28.648 26.6145 35.5208 22.9238 35.814 22.7772C36.2287 22.5703 36.7306 22.7378 36.9384 23.1517ZM16.0201 18.5361C16.0771 18.1775 15.897 17.8231 15.5736 17.6589L11.5143 15.5911L12.2264 11.0911C12.2834 10.7325 12.1033 10.3781 11.7799 10.2139C11.4556 10.0497 11.0643 10.1108 10.8071 10.368L7.58564 13.5887L3.52549 11.5201C3.20125 11.3558 2.80998 11.417 2.55276 11.6742C2.29555 11.9306 2.23355 12.3235 2.3986 12.6469L4.46722 16.7071L1.24574 19.9286C0.988524 20.185 0.926524 20.5779 1.09158 20.9013C1.25579 21.2247 1.61439 21.4065 1.96879 21.3487L6.46797 20.6357L8.53659 24.695C8.6807 24.9791 8.97143 25.1525 9.2831 25.1525C9.32667 25.1525 9.37024 25.1491 9.4138 25.1424C9.7724 25.0855 10.0539 24.8048 10.11 24.4462L10.8239 19.9453L15.3239 19.2323C15.6825 19.1754 15.964 18.8947 16.0201 18.5361ZM9.96091 18.3853C9.60232 18.4423 9.3208 18.7229 9.26467 19.0815L8.85999 21.6361L7.68619 19.332C7.54208 19.0489 7.25135 18.8746 6.93967 18.8746C6.89611 18.8746 6.85254 18.8779 6.80897 18.8846L4.25525 19.2893L6.08341 17.4612C6.34062 17.2048 6.40262 16.8118 6.23757 16.4884L5.06208 14.1835L7.36697 15.3582C7.69121 15.5224 8.08248 15.4621 8.3397 15.204L10.1687 13.3759L9.76486 15.9304C9.70788 16.289 9.88802 16.6434 10.2114 16.8076L12.5155 17.9814L9.96091 18.3853ZM21.8967 48.6622C21.8967 49.1255 21.5222 49.5 21.0589 49.5C20.5956 49.5 20.221 49.1255 20.221 48.6622C20.221 27.8947 14.032 24.3038 13.9691 24.2702C13.5678 24.0524 13.4078 23.5489 13.6189 23.1434C13.83 22.7362 14.3235 22.5728 14.7307 22.7772C15.024 22.9238 21.8967 26.6145 21.8967 48.6622ZM42.8921 29.3919C41.5063 29.3919 40.3785 30.5197 40.3785 31.9054C40.3785 33.2912 41.5063 34.419 42.8921 34.419C44.2778 34.419 45.4056 33.2912 45.4056 31.9054C45.4056 30.5197 44.2787 29.3919 42.8921 29.3919ZM42.8921 32.7433C42.4296 32.7433 42.0542 32.3679 42.0542 31.9054C42.0542 31.443 42.4296 31.0676 42.8921 31.0676C43.3545 31.0676 43.7299 31.443 43.7299 31.9054C43.7299 32.3679 43.3545 32.7433 42.8921 32.7433ZM6.86511 29.3919C5.47932 29.3919 4.3516 30.5197 4.3516 31.9054C4.3516 33.2912 5.47932 34.419 6.86511 34.419C8.25089 34.419 9.37861 33.2912 9.37861 31.9054C9.37861 30.5197 8.25172 29.3919 6.86511 29.3919ZM6.86511 32.7433C6.40262 32.7433 6.02727 32.3679 6.02727 31.9054C6.02727 31.443 6.40262 31.0676 6.86511 31.0676C7.32759 31.0676 7.70294 31.443 7.70294 31.9054C7.70294 32.3679 7.32759 32.7433 6.86511 32.7433ZM38.7029 7.6082C40.0887 7.6082 41.2164 6.48047 41.2164 5.09469C41.2164 3.70891 40.0887 2.58118 38.7029 2.58118C37.3171 2.58118 36.1894 3.70891 36.1894 5.09469C36.1894 6.48047 37.3171 7.6082 38.7029 7.6082ZM38.7029 4.25686C39.1654 4.25686 39.5407 4.63304 39.5407 5.09469C39.5407 5.55634 39.1654 5.93253 38.7029 5.93253C38.2404 5.93253 37.865 5.55634 37.865 5.09469C37.865 4.63304 38.2412 4.25686 38.7029 4.25686ZM11.8921 7.6082C13.2779 7.6082 14.4056 6.48047 14.4056 5.09469C14.4056 3.70891 13.2779 2.58118 11.8921 2.58118C10.5063 2.58118 9.37861 3.70891 9.37861 5.09469C9.37861 6.48047 10.5063 7.6082 11.8921 7.6082ZM11.8921 4.25686C12.3546 4.25686 12.73 4.63304 12.73 5.09469C12.73 5.55634 12.3546 5.93253 11.8921 5.93253C11.4296 5.93253 11.0543 5.55634 11.0543 5.09469C11.0543 4.63304 11.4305 4.25686 11.8921 4.25686Z" fill="#4B7600" stroke="#4B7600" stroke-width="0.5"/>
</svg>
