<svg width="34" height="34" viewBox="0 0 34 34" fill="none" xmlns="http://www.w3.org/2000/svg">
<path d="M14.665 6.94597L13.7366 9.77532C13.6626 10.0008 13.7438 10.2475 13.9371 10.387C14.1315 10.5266 14.3921 10.5266 14.5866 10.387L17.0161 8.63833L19.4456 10.387C19.5428 10.4565 19.6566 10.4916 19.7704 10.4916C19.8841 10.4916 19.9985 10.4571 20.0951 10.387C20.289 10.2475 20.3696 10.0008 20.2956 9.77532L19.3672 6.94597L21.7967 5.19725C21.9906 5.05772 22.0712 4.81096 21.9972 4.58553C21.9232 4.3601 21.7128 4.20799 21.4736 4.20799H18.4703L17.5419 1.37809C17.4679 1.15266 17.2558 1 17.0166 1C16.7775 1 16.5654 1.15266 16.4914 1.37809L15.563 4.20799H12.5596C12.3199 4.20799 12.1084 4.36065 12.0344 4.58607C11.9604 4.8115 12.0416 5.05827 12.2349 5.1978L14.665 6.94597ZM15.9645 5.30231C16.2042 5.30231 16.4157 5.14965 16.4898 4.92422L17.0166 3.31721L17.5435 4.92422C17.6175 5.14965 17.8296 5.30231 18.0688 5.30231H19.7731L18.3941 6.29485C18.2002 6.43438 18.1196 6.68114 18.1936 6.90657L18.7205 8.51248L17.3414 7.51994C17.2442 7.45045 17.1304 7.41543 17.0166 7.41543C16.9029 7.41543 16.7891 7.4499 16.6919 7.51994L15.3128 8.51248L15.8397 6.90657C15.9137 6.68114 15.8325 6.43438 15.6392 6.29485L14.2601 5.30231H15.9645ZM32.8382 13.6881L30.7146 11.5842L32.0782 8.9327C32.187 8.7215 32.1461 8.46488 31.9766 8.29745C31.807 8.12947 31.5491 8.08953 31.3354 8.19677L28.659 9.5477L26.5354 7.44388C26.3658 7.2759 26.1079 7.23596 25.8942 7.3432C25.681 7.45099 25.5617 7.68244 25.5998 7.91608L26.0693 10.8549L23.3934 12.2053C23.1802 12.313 23.0609 12.5445 23.099 12.7781C23.136 13.0123 23.3216 13.1962 23.558 13.2334L26.5243 13.699L26.9949 16.6383C27.0319 16.8725 27.2175 17.0558 27.4539 17.093C27.4831 17.0974 27.5113 17.0996 27.54 17.0996C27.7455 17.0996 27.9371 16.9858 28.0321 16.8008L29.3957 14.1499L32.3615 14.6155C32.5957 14.651 32.8315 14.5345 32.9398 14.3233C33.0486 14.1121 33.0072 13.8555 32.8382 13.6881ZM29.1715 13.0063C28.9318 12.9685 28.7009 13.0873 28.5932 13.2985L27.8195 14.8032L27.5527 13.1349C27.5157 12.9007 27.3301 12.7174 27.0938 12.6802L25.4098 12.4159L26.9286 11.6493C27.1418 11.5416 27.2611 11.3101 27.223 11.0765L26.9568 9.40818L28.1624 10.6021C28.3326 10.7706 28.5899 10.81 28.8037 10.7028L30.323 9.93564L29.5493 11.4409C29.4405 11.6521 29.4813 11.9087 29.6509 12.0761L30.856 13.27L29.1715 13.0063ZM17.5684 12.7551V32.4528C17.5684 32.7554 17.3215 33 17.0161 33C16.7107 33 16.4638 32.7554 16.4638 32.4528V12.7551C16.4638 12.4531 16.7107 12.208 17.0161 12.208C17.3215 12.208 17.5684 12.4526 17.5684 12.7551ZM24.6902 15.793C24.8255 16.0611 24.7178 16.3861 24.4499 16.5234C24.3704 16.5677 20.3298 18.955 20.3298 32.4528C20.3298 32.7554 20.083 33 19.7775 33C19.4721 33 19.2253 32.7554 19.2253 32.4528C19.2253 18.0544 23.7557 15.6441 23.949 15.5484C24.2224 15.4132 24.5532 15.5227 24.6902 15.793ZM10.9011 12.7787C10.9387 12.5445 10.8199 12.313 10.6067 12.2058L7.93088 10.8554L8.40033 7.91663C8.43789 7.68244 8.31914 7.45099 8.10596 7.34375C7.89222 7.23651 7.6343 7.27645 7.46475 7.44443L5.34118 9.5477L2.66478 8.19677C2.45104 8.08953 2.19312 8.12947 2.02356 8.29745C1.85401 8.46488 1.81314 8.7215 1.92194 8.9327L3.28555 11.5842L1.16199 13.6881C0.992435 13.8555 0.951566 14.1121 1.06037 14.3233C1.16862 14.5345 1.405 14.6532 1.63862 14.6155L4.60443 14.1499L5.96804 16.8008C6.06303 16.9863 6.25468 17.0996 6.46013 17.0996C6.48885 17.0996 6.51757 17.0974 6.54629 17.093C6.78267 17.0558 6.96824 16.8725 7.00524 16.6383L7.47579 13.699L10.4422 13.2334C10.6785 13.1962 10.8641 13.0129 10.9011 12.7787ZM6.90693 12.6802C6.67055 12.7174 6.48498 12.9007 6.44798 13.1349L6.18122 14.8032L5.40746 13.2985C5.31246 13.1135 5.12082 12.9997 4.91537 12.9997C4.88665 12.9997 4.85793 13.0019 4.82921 13.0063L3.14582 13.2706L4.35092 12.0767C4.52048 11.9092 4.56135 11.6526 4.45255 11.4414L3.67768 9.93619L5.19704 10.7033C5.41077 10.8105 5.66869 10.7712 5.83825 10.6026L7.0439 9.40873L6.7777 11.077C6.74014 11.3112 6.85888 11.5426 7.07207 11.6499L8.59087 12.4165L6.90693 12.6802ZM14.7749 32.4528C14.7749 32.7554 14.528 33 14.2226 33C13.9172 33 13.6703 32.7554 13.6703 32.4528C13.6703 18.8904 9.59052 16.5453 9.5491 16.5234C9.28455 16.3812 9.17906 16.0523 9.31824 15.7875C9.45742 15.5216 9.78272 15.4149 10.0511 15.5484C10.2444 15.6441 14.7749 18.0544 14.7749 32.4528ZM28.6148 19.8682C27.7013 19.8682 26.9579 20.6047 26.9579 21.5097C26.9579 22.4147 27.7013 23.1512 28.6148 23.1512C29.5283 23.1512 30.2717 22.4147 30.2717 21.5097C30.2717 20.6047 29.5288 19.8682 28.6148 19.8682ZM28.6148 22.0568C28.3099 22.0568 28.0625 21.8117 28.0625 21.5097C28.0625 21.2076 28.3099 20.9625 28.6148 20.9625C28.9196 20.9625 29.1671 21.2076 29.1671 21.5097C29.1671 21.8117 28.9196 22.0568 28.6148 22.0568ZM4.86621 19.8682C3.95272 19.8682 3.20934 20.6047 3.20934 21.5097C3.20934 22.4147 3.95272 23.1512 4.86621 23.1512C5.7797 23.1512 6.52309 22.4147 6.52309 21.5097C6.52309 20.6047 5.78026 19.8682 4.86621 19.8682ZM4.86621 22.0568C4.56135 22.0568 4.31392 21.8117 4.31392 21.5097C4.31392 21.2076 4.56135 20.9625 4.86621 20.9625C5.17108 20.9625 5.4185 21.2076 5.4185 21.5097C5.4185 21.8117 5.17108 22.0568 4.86621 22.0568ZM25.8533 5.64209C26.7668 5.64209 27.5102 4.90562 27.5102 4.00062C27.5102 3.09562 26.7668 2.35914 25.8533 2.35914C24.9398 2.35914 24.1964 3.09562 24.1964 4.00062C24.1964 4.90562 24.9398 5.64209 25.8533 5.64209ZM25.8533 3.45346C26.1582 3.45346 26.4056 3.69913 26.4056 4.00062C26.4056 4.3021 26.1582 4.54777 25.8533 4.54777C25.5484 4.54777 25.301 4.3021 25.301 4.00062C25.301 3.69913 25.549 3.45346 25.8533 3.45346ZM8.17997 5.64209C9.09346 5.64209 9.83684 4.90562 9.83684 4.00062C9.83684 3.09562 9.09346 2.35914 8.17997 2.35914C7.26647 2.35914 6.52309 3.09562 6.52309 4.00062C6.52309 4.90562 7.26647 5.64209 8.17997 5.64209ZM8.17997 3.45346C8.48483 3.45346 8.73226 3.69913 8.73226 4.00062C8.73226 4.3021 8.48483 4.54777 8.17997 4.54777C7.8751 4.54777 7.62767 4.3021 7.62767 4.00062C7.62767 3.69913 7.87565 3.45346 8.17997 3.45346Z" fill="#835DA4" stroke="#835DA4" stroke-width="0.5"/>
</svg>
