<svg width="19" height="20" viewBox="0 0 19 20" fill="none" xmlns="http://www.w3.org/2000/svg">
<path d="M14.8636 3.04545H11.6336C11.3091 2.14909 10.4591 1.5 9.45455 1.5C8.45 1.5 7.6 2.14909 7.27545 3.04545H4.04545C3.19545 3.04545 2.5 3.74091 2.5 4.59091V16.9545C2.5 17.8045 3.19545 18.5 4.04545 18.5H14.8636C15.7136 18.5 16.4091 17.8045 16.4091 16.9545V4.59091C16.4091 3.74091 15.7136 3.04545 14.8636 3.04545ZM9.45455 3.04545C9.87955 3.04545 10.2273 3.39318 10.2273 3.81818C10.2273 4.24318 9.87955 4.59091 9.45455 4.59091C9.02955 4.59091 8.68182 4.24318 8.68182 3.81818C8.68182 3.39318 9.02955 3.04545 9.45455 3.04545ZM14.8636 16.9545H4.04545V4.59091H5.59091V6.90909H13.3182V4.59091H14.8636V16.9545Z" fill="#076FCE"/>
</svg>
