<svg width="72" height="72" viewBox="0 0 72 72" fill="none" xmlns="http://www.w3.org/2000/svg">
<rect width="72" height="72" rx="36" fill="#DACEE4"/>
<g clip-path="url(#clip0_38138_8785)">
<ellipse cx="35.9999" cy="35.9999" rx="20.8696" ry="20.8696" fill="#422D53"/>
<path d="M36.0013 27.9717C37.772 27.9717 39.212 29.4117 39.212 31.1824C39.212 32.0686 39.9296 32.7878 40.8173 32.7878C41.7051 32.7878 42.4227 32.0686 42.4227 31.1824C42.4227 28.1997 40.3694 25.7065 37.6066 24.989V23.1556C37.6066 22.2695 36.889 21.5503 36.0013 21.5503C35.1135 21.5503 34.3959 22.2695 34.3959 23.1556V24.989C31.6331 25.7065 29.5799 28.1997 29.5799 31.1824C29.5799 34.7238 32.4599 37.6038 36.0013 37.6038C37.772 37.6038 39.212 39.0438 39.212 40.8145C39.212 42.5852 37.772 44.0252 36.0013 44.0252C34.2306 44.0252 32.7906 42.5852 32.7906 40.8145C32.7906 39.9284 32.073 39.2092 31.1852 39.2092C30.2974 39.2092 29.5799 39.9284 29.5799 40.8145C29.5799 43.7973 31.6331 46.2904 34.3959 47.008V48.8413C34.3959 49.7274 35.1135 50.4466 36.0013 50.4466C36.889 50.4466 37.6066 49.7274 37.6066 48.8413V47.008C40.3694 46.2904 42.4227 43.7973 42.4227 40.8145C42.4227 37.2731 39.5427 34.3931 36.0013 34.3931C34.2306 34.3931 32.7906 32.9531 32.7906 31.1824C32.7906 29.4117 34.2306 27.9717 36.0013 27.9717Z" fill="#E6E6E6"/>
<path d="M48.845 37.6046C49.7316 37.6046 50.4503 36.8859 50.4503 35.9994C50.4503 35.1128 49.7316 34.3941 48.845 34.3941C47.9584 34.3941 47.2396 35.1128 47.2396 35.9994C47.2396 36.8859 47.9584 37.6046 48.845 37.6046Z" fill="#E6E6E6"/>
<path d="M23.1586 37.6046C24.0452 37.6046 24.7639 36.8859 24.7639 35.9994C24.7639 35.1128 24.0452 34.3941 23.1586 34.3941C22.272 34.3941 21.5532 35.1128 21.5532 35.9994C21.5532 36.8859 22.272 37.6046 23.1586 37.6046Z" fill="#E6E6E6"/>
</g>
<defs>
<clipPath id="clip0_38138_8785">
<rect width="48" height="48" fill="white" transform="translate(12 12)"/>
</clipPath>
</defs>
</svg>
