<svg width="247" height="252" viewBox="0 0 247 252" fill="none" xmlns="http://www.w3.org/2000/svg">
<circle cx="123.5" cy="129" r="123" fill="#7FB135"/>
<mask id="mask0_53799_50835" style="mask-type:alpha" maskUnits="userSpaceOnUse" x="0" y="6" width="247" height="246">
<circle cx="123.5" cy="129" r="123" fill="#7FB135"/>
</mask>
<g mask="url(#mask0_53799_50835)">
<rect x="33.5" width="180" height="252" rx="12" fill="#F0F0F0"/>
</g>
<rect x="33.5" width="180" height="140" rx="12" fill="#F0F0F0"/>
<path opacity="0.05" d="M84.2754 0C58.6979 22.0068 42.5 54.6113 42.5 91C42.5 157.274 96.2258 211 162.5 211C187.673 211 211.033 203.247 230.329 190.001C209.134 227.04 169.233 252 123.5 252C55.569 252 0.5 196.931 0.5 129C0.5 96.6014 13.0263 67.1285 33.5 45.1602V12C33.5 5.37258 38.8726 3.38235e-07 45.5 0H84.2754Z" fill="#5C5C5C"/>
<path d="M117.259 81.807L51.4732 121.085C50.3451 121.758 49.6543 122.976 49.6543 124.289V202.957C49.6543 205.019 51.3252 206.69 53.3865 206.69H193.343C195.405 206.69 197.075 205.019 197.075 202.957V124.414C197.075 123.034 196.313 121.766 195.094 121.118L120.924 81.7155C119.77 81.1028 118.381 81.1375 117.259 81.807Z" fill="#3369CA"/>
<rect x="70.4922" y="67" width="105.123" height="123.473" rx="6.2203" fill="white"/>
<circle cx="123.492" cy="108.99" r="24" fill="#7DAD37"/>
<path d="M113.16 109.045L119.645 116.208C120.113 116.724 120.921 116.735 121.403 116.231L134.227 102.791" stroke="white" stroke-width="6.58333" stroke-linecap="round"/>
<path d="M120.847 157.706L55.2115 120.859C52.7237 119.462 49.6523 121.26 49.6523 124.114V202.334C49.6523 204.396 51.3233 206.067 53.3845 206.067H193.652C195.714 206.067 197.385 204.396 197.385 202.334V124.042C197.385 121.205 194.345 119.405 191.858 120.769L124.469 157.724C123.339 158.344 121.971 158.337 120.847 157.706Z" fill="#5087EC"/>
<path d="M121.352 147.432L51.3823 200.29C48.5257 202.448 50.0519 207 53.632 207H193.425C197.004 207 198.531 202.452 195.678 200.293L125.855 147.434C124.523 146.426 122.685 146.425 121.352 147.432Z" fill="#7AA6F7"/>
<path d="M144.871 40.1339L190.752 20.8379C191.825 20.3868 192.673 21.8215 191.761 22.5437L150.596 55.1325C150.058 55.558 149.262 55.3289 149.033 54.6829L144.316 41.3901C144.139 40.8905 144.382 40.3394 144.871 40.1339Z" fill="#5087EC"/>
<path d="M154.91 48.2983L159.261 51.4628C159.581 51.6952 159.517 52.1888 159.149 52.3328L150.051 55.8929C149.59 56.0737 149.175 55.5441 149.461 55.139L154.208 48.4143C154.368 48.1864 154.685 48.1342 154.91 48.2983Z" fill="#3369CA"/>
<path d="M133.618 31.0857L190.765 19.9046C191.949 19.6731 192.455 21.3463 191.341 21.8093L144.547 41.2727C144.209 41.4129 143.823 41.3583 143.538 41.1302L133.185 32.8479C132.52 32.3159 132.782 31.2492 133.618 31.0857Z" fill="#7AA6F7"/>
<path d="M171.038 58.1618L193.731 22.8126C194.325 21.8883 193.211 20.822 192.313 21.4554L155.218 47.64C154.637 48.0502 154.658 48.9188 155.258 49.3006L169.66 58.4653C170.124 58.7609 170.741 58.6253 171.038 58.1618Z" fill="#7AA6F7"/>
</svg>
