<svg width="172" height="193" viewBox="0 0 172 193" fill="none" xmlns="http://www.w3.org/2000/svg">
<path d="M143.022 31.7475H128.746L130.496 29.1216C125.461 24.7815 119.448 22.6678 112.162 22.6678C96.1425 22.6678 83.1074 35.7028 83.1074 51.7228C83.1074 56.8112 84.4311 61.5947 86.7393 65.7583V65.6925H94.003H101.267V78.6384C102.44 79.1144 103.657 79.4991 104.899 79.8207V62.6182H119.426V79.8953C120.566 79.5665 121.787 79.1254 123.058 78.5295V49.9064H137.586V62.4126C141.038 54.5148 142.863 44.2702 143.022 31.7475ZM130.321 46.275C129.143 46.275 128.059 45.8899 127.167 45.2527L117.39 52.095C117.519 52.5581 117.61 53.0355 117.61 53.5387C117.61 56.5422 115.166 58.9865 112.162 58.9865C109.158 58.9865 106.714 56.5422 106.714 53.5387C106.714 53.3136 106.754 53.0975 106.782 52.8796L97.7745 48.3761C96.7938 49.3185 95.4683 49.9068 94.0026 49.9068C90.9991 49.9068 88.5548 47.4625 88.5548 44.459C88.5548 41.4555 90.9991 39.0112 94.0026 39.0112C97.0061 39.0112 99.4504 41.4555 99.4504 44.459C99.4504 44.6841 99.4103 44.9001 99.3831 45.118L108.39 49.6216C109.371 48.6792 110.696 48.0908 112.162 48.0908C113.34 48.0908 114.425 48.476 115.316 49.1131L125.091 42.2708C124.964 41.8097 124.874 41.3303 124.874 40.8272C124.874 37.8237 127.318 35.3794 130.321 35.3794C133.325 35.3794 135.769 37.8237 135.769 40.8272C135.769 43.8307 133.325 46.275 130.321 46.275Z" fill="#ADADAD"/>
<path d="M131.392 40.309C131.392 41.3119 130.579 42.125 129.576 42.125C128.573 42.125 127.76 41.312 127.76 40.309C127.76 39.3061 128.573 38.4931 129.576 38.4931C130.579 38.4931 131.392 39.3061 131.392 40.309Z" fill="#ADADAD"/>
<path d="M113.233 53.0206C113.233 54.0235 112.42 54.8365 111.417 54.8365C110.414 54.8365 109.601 54.0235 109.601 53.0206C109.601 52.0177 110.414 51.2047 111.417 51.2047C112.42 51.2047 113.233 52.0177 113.233 53.0206Z" fill="#ADADAD"/>
<path d="M153.184 0L134.784 27.5974H145.92V29.4134C145.92 51.8206 140.857 67.7118 130.873 76.6501C122.032 84.56 112.523 83.9937 111.329 83.8919C93.3479 83.8446 78.7312 69.1987 78.7312 51.205C78.7312 33.1821 93.3953 18.518 111.418 18.518C119.336 18.518 126.176 20.8879 131.779 25.5639L134.697 21.1836L132.505 21.6323L131.868 21.2003C127.738 18.3765 123.131 16.4735 118.177 15.5399L117.057 15.3292L115.473 9.43835H107.361L105.777 15.3273L104.657 15.538C99.701 16.4732 95.0957 18.3747 90.9659 21.1985L90.0216 21.8412L84.7501 18.8033L79.0155 24.5379L82.0534 29.8095L81.4106 30.7538C78.5869 34.8832 76.6839 39.4903 75.7502 44.4445L75.5395 45.565L69.6509 47.1506V55.2626L75.5399 56.8462L75.7506 57.9668C76.6858 62.9224 78.5873 67.5278 81.411 71.6575L82.0538 72.6018L79.0159 77.8734L84.7505 83.608L90.022 80.5701L90.9663 81.2128C95.0957 84.0366 99.7029 85.9396 104.657 86.8732L105.778 87.084L107.363 92.9726H109.602C109.849 92.9835 128.78 93.4194 143.31 79.3477C154.681 68.3358 160.448 51.5362 160.448 29.4147V27.5987H171.584L153.184 0Z" fill="#E6E6E6"/>
<path d="M128.519 73.8782C130.244 72.3237 131.804 70.5206 133.208 68.4887V53.0208H125.944V75.9055C126.803 75.3078 127.666 74.6487 128.519 73.8788V73.8782Z" fill="#E6E6E6"/>
<path d="M95.0729 43.9409C95.0729 44.9438 94.2599 45.7568 93.257 45.7568C92.254 45.7568 91.441 44.9438 91.441 43.9409C91.441 42.938 92.254 42.125 93.257 42.125C94.2599 42.125 95.0729 42.938 95.0729 43.9409Z" fill="#ADADAD"/>
<path d="M96.8892 76.3286V68.8062H89.6255V70.3578C91.7048 72.72 94.1525 74.7396 96.8892 76.3286Z" fill="#ADADAD"/>
<path d="M111.416 80.2597L111.616 80.2707C111.647 80.2745 112.976 80.3925 115.048 80.1326V65.7319H107.785V80.0067C108.978 80.1573 110.184 80.259 111.416 80.259L111.416 80.2597Z" fill="#757575"/>
<path fill-rule="evenodd" clip-rule="evenodd" d="M58.2193 63.0457C60.6197 64.4878 62.9783 65.1845 64.0854 64.9001C66.8616 64.1869 67.1168 54.0644 64.9688 50.0738C62.8207 46.0832 51.7778 44.3438 51.2212 52.2505C51.028 54.9946 52.1841 57.4436 53.8922 59.4419L50.8295 73.6698H59.726L58.2193 63.0457Z" fill="#ADADAD"/>
<path fill-rule="evenodd" clip-rule="evenodd" d="M59.898 45.4745C58.7254 45.2828 55.5683 45.151 54.9861 45.1511C54.614 45.1511 54.2108 45.2359 53.9905 44.8953C53.81 44.6165 53.8761 44.1449 53.8222 43.8213C53.7597 43.4454 53.6709 43.0744 53.581 42.7043C53.3254 41.6511 52.9387 40.6492 52.3978 39.7085C51.3827 37.9436 49.8957 36.5611 48.0184 35.7567C45.9454 34.8685 43.5995 34.6651 41.3697 34.8452C38.9834 35.038 36.8233 35.8231 34.5703 36.562C32.4233 37.266 30.1746 37.5432 27.929 37.1994C25.6666 36.853 23.9571 35.6308 22.0487 34.4708C20.0951 33.2832 17.8625 32.5065 15.553 32.6851C13.3972 32.8518 11.4102 33.739 9.62756 34.9242C7.95966 36.0331 6.58344 37.3672 5.80645 39.2449C4.97059 41.2647 4.97136 43.4818 6.34588 45.2668C8.3382 47.8543 12.0369 48.5234 15.114 48.4568C16.8939 48.4185 18.6419 48.0946 20.3223 47.5056C22.5633 46.7199 24.4999 45.3884 26.5964 44.308C27.5804 43.801 28.5974 43.3846 29.6634 43.0847C30.6978 42.7935 31.7167 42.66 32.6533 43.2828C33.6441 43.9417 34.5319 44.589 35.6654 45.0014C36.7528 45.3971 37.9046 45.6185 39.0631 45.6095C41.3171 45.5922 43.539 44.8922 45.7282 44.4233C47.5135 44.0411 49.4236 43.6601 51.2436 44.0275C52.0031 44.1809 53.1124 44.4975 53.3867 45.2842C48.77 46.1181 46.9568 51.8088 48.2583 55.9864C48.9607 58.2411 53.1833 60.8769 54.825 59.6916C55.8652 58.9406 55.2337 57.9547 54.825 57.3039C54.0424 56.0576 53.7747 54.4566 55.2228 53.5889C56.4719 52.8405 57.7853 54.6177 57.8101 54.6157C58.1534 54.5888 61.1199 52.9166 63.1638 50.4766C65.1801 50.5957 65.486 49.2706 65.0046 48.1869C64.5231 47.1032 61.518 45.7394 59.898 45.4745Z" fill="#5C5C5C"/>
<path fill-rule="evenodd" clip-rule="evenodd" d="M43.6545 104.335C44.3229 113.427 87.3819 140.196 87.6331 140.947C87.8006 141.448 74.2304 172.604 74.2304 172.604L77.9944 174.061C77.9944 174.061 98.8087 141.066 97.7396 137.55C96.209 132.516 64.3307 104.432 64.3307 104.432L43.6545 104.335Z" fill="#ADADAD"/>
<path fill-rule="evenodd" clip-rule="evenodd" d="M75.2209 167.913L81.3663 170.142C94.3246 155.57 99.404 143.546 98.4778 137.42C97.5517 131.294 65.1841 104.357 65.1841 104.357L43.2138 104.357C43.9634 125.414 83.8737 141.028 84.4075 141.925C84.9414 142.822 79.6879 151.61 75.2209 167.913Z" fill="#494949"/>
<path fill-rule="evenodd" clip-rule="evenodd" d="M74.9876 172.739C74.0513 172.04 72.6921 172.011 72.014 172.965C71.7472 173.34 71.5173 173.712 71.4111 174.003C71.0681 174.942 70.7241 176.857 70.7241 176.857C71.8172 177.254 90.3708 183.985 90.3708 183.985C90.3708 183.985 92.0581 181.739 90.4816 180.939C88.9051 180.139 87.873 179.581 87.873 179.581L80.6878 172.659C80.2829 172.269 79.635 172.29 79.2546 172.705L78.5865 173.434C78.5865 173.434 76.7997 173.59 75.8447 173.244C75.5858 173.15 75.2864 172.963 74.9876 172.739Z" fill="#E4E4E4"/>
<path fill-rule="evenodd" clip-rule="evenodd" d="M48.6053 104.335L29.4237 150.232L10.5711 189.034H15.0191L63.6826 104.335H48.6053Z" fill="#ADADAD"/>
<path fill-rule="evenodd" clip-rule="evenodd" d="M12.6085 187.313C11.4896 186.975 10.2036 187.411 9.89351 188.538C9.77147 188.982 9.68304 189.41 9.68304 189.72C9.68304 190.719 10.0171 192.637 10.0171 192.637C11.1803 192.637 30.9246 192.637 30.9246 192.637C30.9246 192.637 31.7396 189.951 29.9837 189.737C28.2279 189.523 27.0665 189.35 27.0665 189.35L17.9385 185.295C17.4245 185.066 16.8233 185.306 16.6083 185.826L16.2306 186.739C16.2306 186.739 14.6051 187.495 13.5889 187.495C13.3129 187.495 12.9666 187.421 12.6085 187.313Z" fill="#E4E4E4"/>
<path fill-rule="evenodd" clip-rule="evenodd" d="M12.2736 180.974L22.157 182.821C29.7988 171.623 61.7799 125.709 65.2863 104.335H43.2838C31.574 119.786 19.5578 169.591 12.2736 180.974Z" fill="#646262"/>
<path fill-rule="evenodd" clip-rule="evenodd" d="M95.399 88.339L81.9673 94.2182L86.2562 99.6945L96.3157 92.0073C101.34 91.0874 103.671 90.2972 103.306 89.6366C102.999 89.0796 102.428 89.0482 101.902 89.0193C101.492 88.9967 101.11 88.9757 100.901 88.7089C100.423 88.0995 101.601 86.2172 102.796 84.4785C103.99 82.7398 102.871 82.8026 102.215 83.0105C100.024 84.226 97.752 86.0021 95.399 88.339ZM35.2605 97.3397L27.6645 95.8375C22.5129 109.371 19.4416 116.787 18.4507 118.086C17.724 119.038 13.2426 121.492 10.2093 122.802C8.99183 123.328 9.25324 124.354 9.61034 124.682C11.8628 126.751 13.9568 126.026 16.2362 125.236C16.8961 125.008 17.5715 124.774 18.2708 124.601C20.0809 124.153 20.6317 125.08 21.1523 125.957C21.6132 126.733 22.0503 127.47 23.3167 127.176C23.2591 126.928 23.1883 126.651 23.112 126.351C22.6183 124.415 21.8902 121.56 22.9704 119.901C23.5247 119.049 27.6214 111.529 35.2605 97.3397Z" fill="#ADADAD"/>
<path fill-rule="evenodd" clip-rule="evenodd" d="M55.9061 67.5117L59.1115 66.9637C66.0931 73.7138 68.9422 89.9308 73.5949 92.0773C77.9939 94.1069 84.2299 92.1429 91.6422 89.4911L93.9122 94.5461C87.1774 101.808 72.8296 107.944 67.0138 104.441C57.7156 98.8412 55.569 78.84 55.9061 67.5117Z" fill="#757575"/>
<path fill-rule="evenodd" clip-rule="evenodd" d="M41.933 107.66C41.933 107.66 61.2116 107.66 70.2949 107.66C71.5909 107.66 71.3467 105.795 71.1593 104.854C68.9971 93.9916 60.5568 82.2825 60.5568 66.8203L52.3759 65.5417C45.6093 76.3885 43.2692 89.7431 41.933 107.66Z" fill="#DDE3E9"/>
<path fill-rule="evenodd" clip-rule="evenodd" d="M51.9416 65.5417H51.8482C33.4985 76.8119 22.409 94.2824 18.5796 117.953L24.5245 119.114C28.4625 114.541 33.3224 107.057 39.1042 96.6626C37.3303 102.924 36.0352 109.346 35.6313 115.419H61.1614C66.1038 102.97 55.0874 65.5417 55.0874 65.5417H53.3248H51.9416Z" fill="#ADADAD"/>
</svg>
