<svg width="48" height="48" viewBox="0 0 48 48" fill="none" xmlns="http://www.w3.org/2000/svg">
<circle cx="24" cy="24" r="24" fill="#835AA6"/>
<path d="M35.47 38.6384H17.4452C17.4088 38.6384 17.4088 38.6384 17.3724 38.6384C17.336 38.6384 17.2996 38.6384 17.2631 38.6384C15.5517 38.6384 14.168 37.2547 14.168 35.5432C14.168 35.1427 14.4957 34.815 14.8962 34.815C15.2968 34.815 15.6245 35.1427 15.6245 35.5432C15.6245 36.4536 16.3528 37.1819 17.2631 37.1819C18.1735 37.1819 18.9018 36.4536 18.9018 35.5432V33.8318C18.9018 33.4312 19.2295 33.1035 19.63 33.1035H37.8369C38.2375 33.1035 38.5652 33.4312 38.5652 33.8318V35.5797C38.5652 37.2547 37.1815 38.6384 35.47 38.6384ZM19.8849 37.1819H35.47C36.3804 37.1819 37.1087 36.4536 37.1087 35.5432V34.5601H20.3583V35.5797C20.3583 36.1623 20.1762 36.7085 19.8849 37.1819Z" fill="white"/>
<path d="M33.1033 13.1486C32.7027 13.1486 32.375 12.8209 32.375 12.4204C32.375 11.51 31.6467 10.7817 30.7364 10.7817H12.3474C11.9469 10.7817 11.6191 10.454 11.6191 10.0535C11.6191 9.65292 11.9469 9.3252 12.3474 9.3252H30.7364C32.4478 9.3252 33.8316 10.7089 33.8316 12.4204C33.8316 12.8573 33.5038 13.1486 33.1033 13.1486Z" fill="white"/>
<path d="M14.8962 36.3805C14.4957 36.3805 14.168 36.0528 14.168 35.6522V12.3474C14.168 11.9469 14.4957 11.6191 14.8962 11.6191C15.2968 11.6191 15.6245 11.9469 15.6245 12.3474V35.6522C15.6245 36.0528 15.2968 36.3805 14.8962 36.3805Z" fill="white"/>
<path d="M33.1033 34.5598C32.7027 34.5598 32.375 34.232 32.375 33.8315V22.5432C32.375 22.1427 32.7027 21.8149 33.1033 21.8149C33.5038 21.8149 33.8316 22.1427 33.8316 22.5432V33.8315C33.8316 34.232 33.5038 34.5598 33.1033 34.5598Z" fill="white"/>
<path d="M33.1033 15.6247C32.7027 15.6247 32.375 15.2969 32.375 14.8964V12.3474C32.375 11.9469 32.7027 11.6191 33.1033 11.6191C33.5038 11.6191 33.8316 11.9469 33.8316 12.3474V14.8964C33.8316 15.2969 33.5038 15.6247 33.1033 15.6247Z" fill="white"/>
<path d="M14.8976 15.6248H10.1638C9.76327 15.6248 9.43555 15.2971 9.43555 14.8965V12.4204C9.43555 10.7089 10.8193 9.3252 12.5307 9.3252C14.2422 9.3252 15.6259 10.7089 15.6259 12.4204C15.6259 12.8209 15.2982 13.1486 14.8976 13.1486C14.4971 13.1486 14.1693 12.8209 14.1693 12.4204C14.1693 11.51 13.4411 10.7817 12.5307 10.7817C11.6204 10.7817 10.8921 11.51 10.8921 12.4204V14.1682H14.8976C15.2982 14.1682 15.6259 14.496 15.6259 14.8965C15.6259 15.2971 15.2982 15.6248 14.8976 15.6248Z" fill="white"/>
<path d="M30.9186 24.7646C30.7365 24.7646 30.5544 24.6918 30.4088 24.5461L29.0979 23.2716H27.2772C26.8766 23.2716 26.5489 22.9439 26.5489 22.5433V20.7227L25.238 19.4118C25.0924 19.2661 25.0195 19.084 25.0195 18.902C25.0195 18.7199 25.0924 18.5378 25.238 18.3922L26.5489 17.0813V15.2606C26.5489 14.86 26.8766 14.5323 27.2772 14.5323H29.0979L30.4088 13.2214C30.7001 12.9301 31.137 12.9301 31.4284 13.2214L32.7393 14.5323H34.5599C34.9605 14.5323 35.2882 14.86 35.2882 15.2606V17.0813L36.5991 18.3922C36.7448 18.5378 36.8176 18.7199 36.8176 18.902C36.8176 19.084 36.7448 19.2661 36.5991 19.4118L35.2882 20.7227V22.5433C35.2882 22.9439 34.9605 23.2716 34.5599 23.2716H32.7393L31.4284 24.5825C31.2827 24.6918 31.1006 24.7646 30.9186 24.7646ZM28.0055 21.8151H29.4256C29.6077 21.8151 29.7897 21.8879 29.9354 22.0335L30.9186 23.0167L31.9017 22.0335C32.0474 21.8879 32.2295 21.8151 32.4115 21.8151H33.8317V20.3949C33.8317 20.2129 33.9045 20.0308 34.0502 19.8851L35.0333 18.902L34.0502 17.9188C33.9045 17.7731 33.8317 17.5911 33.8317 17.409V15.9889H32.4115C32.2295 15.9889 32.0474 15.916 31.9017 15.7704L30.9186 14.7872L29.9354 15.7704C29.7897 15.916 29.6077 15.9889 29.4256 15.9889H28.0055V17.409C28.0055 17.5911 27.9326 17.7731 27.787 17.9188L26.8038 18.902L27.787 19.8851C27.9326 20.0308 28.0055 20.2129 28.0055 20.3949V21.8151Z" fill="white"/>
<path d="M29.4621 30.19H18.9021C18.5016 30.19 18.1738 29.8622 18.1738 29.4617C18.1738 29.0611 18.5016 28.7334 18.9021 28.7334H29.4621C29.8627 28.7334 30.1904 29.0611 30.1904 29.4617C30.1904 29.8622 29.8627 30.19 29.4621 30.19Z" fill="white"/>
<path d="M25.8207 25.8203H18.9021C18.5016 25.8203 18.1738 25.4926 18.1738 25.092C18.1738 24.6915 18.5016 24.3638 18.9021 24.3638H25.8207C26.2213 24.3638 26.549 24.6915 26.549 25.092C26.549 25.4926 26.2213 25.8203 25.8207 25.8203Z" fill="white"/>
<path d="M22.1793 21.4507H18.9021C18.5016 21.4507 18.1738 21.123 18.1738 20.7224C18.1738 20.3219 18.5016 19.9941 18.9021 19.9941H22.1793C22.5799 19.9941 22.9076 20.3219 22.9076 20.7224C22.9076 21.123 22.5799 21.4507 22.1793 21.4507Z" fill="white"/>
<path d="M23.6359 17.0811H18.9021C18.5016 17.0811 18.1738 16.7533 18.1738 16.3528C18.1738 15.9522 18.5016 15.6245 18.9021 15.6245H23.6359C24.0364 15.6245 24.3642 15.9522 24.3642 16.3528C24.3642 16.7533 24.0364 17.0811 23.6359 17.0811Z" fill="white"/>
</svg>
