<svg width="45" height="45" viewBox="0 0 45 45" fill="none" xmlns="http://www.w3.org/2000/svg">
<circle cx="22.5" cy="22.5" r="22.5" fill="#FAF3D1"/>
<path d="M22.9492 10.8C16.7361 10.8 11.6992 15.837 11.6992 22.0502C11.6992 28.2634 16.7357 33.3 22.9492 33.3C29.1623 33.3 34.1992 28.2634 34.1992 22.0502C34.1992 15.837 29.1623 10.8 22.9492 10.8ZM23.8375 28.0912V30.1048H21.9029V28.2289C20.5804 28.17 19.2974 27.8147 18.5471 27.3804L19.139 25.0706C19.9684 25.5248 21.1331 25.9391 22.4162 25.9391C23.5414 25.9391 24.3112 25.5049 24.3112 24.7151C24.3112 23.9652 23.6796 23.4913 22.2187 22.9979C20.1064 22.2871 18.6654 21.2999 18.6654 19.3849C18.6654 17.6477 19.8894 16.2857 22.0016 15.871V13.9957H23.9361V15.733C25.2589 15.7922 26.1473 16.0686 26.7989 16.3846L26.2262 18.6151C25.7129 18.3978 24.8048 17.9442 23.3836 17.9442C22.1004 17.9442 21.6857 18.4967 21.6857 19.0492C21.6857 19.701 22.3767 20.1152 24.0546 20.7472C26.404 21.5762 27.3514 22.6617 27.3514 24.4386C27.3514 26.1958 26.1076 27.6961 23.8375 28.0912Z" fill="#E5A000"/>
</svg>
