<svg width="45" height="45" viewBox="0 0 45 45" fill="none" xmlns="http://www.w3.org/2000/svg">
<circle cx="22.5" cy="22.5" r="22.5" fill="#DEFFF8"/>
<g clip-path="url(#clip0_33919_11352)">
<path d="M30.235 23.5179C30.2783 23.1929 30.3 22.8571 30.3 22.4996C30.3 22.1529 30.2783 21.8063 30.2241 21.4813L32.4233 19.7696C32.6183 19.6179 32.6725 19.3254 32.5533 19.1088L30.4733 15.5121C30.3433 15.2738 30.0725 15.1979 29.8341 15.2738L27.245 16.3138C26.7033 15.9021 26.1291 15.5554 25.49 15.2954L25.1 12.5438C25.0566 12.2838 24.84 12.0996 24.58 12.0996H20.42C20.16 12.0996 19.9541 12.2838 19.9108 12.5438L19.5208 15.2954C18.8816 15.5554 18.2966 15.9129 17.7658 16.3138L15.1766 15.2738C14.9383 15.1871 14.6675 15.2738 14.5375 15.5121L12.4683 19.1088C12.3383 19.3363 12.3816 19.6179 12.5983 19.7696L14.7975 21.4813C14.7433 21.8063 14.7 22.1638 14.7 22.4996C14.7 22.8354 14.7216 23.1929 14.7758 23.5179L12.5766 25.2296C12.3816 25.3813 12.3275 25.6738 12.4466 25.8904L14.5266 29.4871C14.6566 29.7254 14.9275 29.8013 15.1658 29.7254L17.755 28.6854C18.2966 29.0971 18.8708 29.4438 19.51 29.7038L19.9 32.4554C19.9541 32.7154 20.16 32.8996 20.42 32.8996H24.58C24.84 32.8996 25.0566 32.7154 25.0891 32.4554L25.4791 29.7038C26.1183 29.4438 26.7033 29.0971 27.2341 28.6854L29.8233 29.7254C30.0616 29.8121 30.3325 29.7254 30.4625 29.4871L32.5425 25.8904C32.6725 25.6521 32.6183 25.3813 32.4125 25.2296L30.235 23.5179ZM22.5 26.3996C20.355 26.3996 18.6 24.6446 18.6 22.4996C18.6 20.3546 20.355 18.5996 22.5 18.5996C24.645 18.5996 26.4 20.3546 26.4 22.4996C26.4 24.6446 24.645 26.3996 22.5 26.3996Z" fill="#009F7F"/>
</g>
<defs>
<clipPath id="clip0_33919_11352">
<rect width="26" height="26" fill="white" transform="translate(9.5 9.5)"/>
</clipPath>
</defs>
</svg>
