<svg width="45" height="45" viewBox="0 0 45 45" fill="none" xmlns="http://www.w3.org/2000/svg">
<circle cx="22.5" cy="22.5" r="22.5" fill="#0076D6"/>
<path d="M28.8689 22.9821C32.2275 18.9749 33.0846 13.3926 32.9919 11.7017C32.9919 11.5164 32.8993 11.3543 32.7835 11.2152C32.6676 11.0993 32.5056 11.0068 32.297 11.0068C30.6061 10.9142 25.0238 11.7481 21.0397 15.1067L20.1133 14.7593C18.4919 14.1571 16.6619 14.6434 15.5501 15.9638L12.979 18.998C12.6084 19.4148 12.7937 20.0866 13.3264 20.272L16.0829 21.2912C15.4807 22.3104 15.0636 23.1674 14.7858 23.7697C14.5541 24.2562 14.6699 24.8353 15.0637 25.229L18.7699 28.9581C19.1405 29.3288 19.7196 29.4446 20.2292 29.2129C20.8314 28.935 21.6885 28.518 22.7077 27.9158L23.7036 30.6723C23.889 31.205 24.5606 31.3672 24.9776 31.0197L27.9889 28.4486C29.3093 27.3368 29.7956 25.5068 29.1934 23.8854L28.8689 22.9821ZM27.1316 20.0867C26.2514 20.967 24.8153 20.967 23.912 20.0867C23.0317 19.2065 23.0317 17.7704 23.912 16.8671C24.7922 15.9868 26.2283 15.9868 27.1316 16.8671C28.0119 17.7704 28.0119 19.2065 27.1316 20.0867Z" fill="white"/>
<path d="M17.1727 29.9078L15.5049 31.5523C15.1807 31.8765 15.1807 32.4325 15.5049 32.7568C15.8292 33.0811 16.3852 33.0811 16.7094 32.7568L18.3772 31.089C18.7015 30.7648 18.7015 30.2088 18.3772 29.8845C18.0296 29.5602 17.497 29.5602 17.1727 29.9078V29.9078Z" fill="white"/>
<path d="M16.2249 27.7754C15.9006 27.4512 15.3446 27.4512 15.0204 27.7754L12.3799 30.4391C12.0557 30.7634 12.0557 31.3194 12.3799 31.6436C12.7042 31.9679 13.2602 31.9679 13.5844 31.6436L16.2249 28.9567C16.5724 28.6324 16.5724 28.0997 16.2249 27.7754V27.7754Z" fill="white"/>
<path d="M14.1155 26.8509C14.4397 26.5266 14.4397 25.9706 14.1155 25.6463C13.7912 25.3221 13.2352 25.3221 12.9109 25.6463L11.2432 27.3141C10.9189 27.6384 10.9189 28.1943 11.2432 28.5186C11.5675 28.8429 12.1234 28.8429 12.4477 28.5186L14.1155 26.8509Z" fill="white"/>
</svg>
