<svg width="20" height="21" viewBox="0 0 20 21" fill="none" xmlns="http://www.w3.org/2000/svg">
<path d="M12.5583 9.87533L11.8083 10.642C11.2083 11.242 10.8333 11.7503 10.8333 13.0003H9.16663V12.5837C9.16663 11.6587 9.54163 10.8253 10.1416 10.2253L11.175 9.17533C11.4833 8.87533 11.6666 8.45866 11.6666 8.00033C11.6666 7.07533 10.9166 6.33366 9.99996 6.33366C9.55793 6.33366 9.13401 6.50925 8.82145 6.82181C8.50889 7.13438 8.33329 7.5583 8.33329 8.00033H6.66663C6.66663 7.11627 7.01782 6.26842 7.64294 5.6433C8.26806 5.01818 9.1159 4.66699 9.99996 4.66699C10.884 4.66699 11.7319 5.01818 12.357 5.6433C12.9821 6.26842 13.3333 7.11627 13.3333 8.00033C13.3333 8.73366 13.0333 9.39199 12.5583 9.87533ZM10.8333 16.3337H9.16663V14.667H10.8333V16.3337ZM9.99996 2.16699C8.90561 2.16699 7.82198 2.38254 6.81093 2.80133C5.79988 3.22012 4.88122 3.83395 4.1074 4.60777C2.5446 6.17057 1.66663 8.29019 1.66663 10.5003C1.66663 12.7105 2.5446 14.8301 4.1074 16.3929C4.88122 17.1667 5.79988 17.7805 6.81093 18.1993C7.82198 18.6181 8.90561 18.8337 9.99996 18.8337C12.2101 18.8337 14.3297 17.9557 15.8925 16.3929C17.4553 14.8301 18.3333 12.7105 18.3333 10.5003C18.3333 5.89199 14.5833 2.16699 9.99996 2.16699Z" fill="#7A591A"/>
</svg>
