<svg width="61" height="60" viewBox="0 0 61 60" fill="none" xmlns="http://www.w3.org/2000/svg">
<path d="M8 48.75C9.5533 48.75 10.8125 47.4908 10.8125 45.9375C10.8125 44.3842 9.5533 43.125 8 43.125C6.4467 43.125 5.1875 44.3842 5.1875 45.9375C5.1875 47.4908 6.4467 48.75 8 48.75Z" fill="#538200"/>
<path d="M12.6875 50.625C12.6875 50.1277 12.49 49.6508 12.1383 49.2992C11.7867 48.9475 11.3098 48.75 10.8125 48.75H5.1875C4.69022 48.75 4.21331 48.9475 3.86167 49.2992C3.51004 49.6508 3.3125 50.1277 3.3125 50.625V58.125H12.6875V50.625Z" fill="#538200"/>
<path d="M30.5 48.75C32.0533 48.75 33.3125 47.4908 33.3125 45.9375C33.3125 44.3842 32.0533 43.125 30.5 43.125C28.9467 43.125 27.6875 44.3842 27.6875 45.9375C27.6875 47.4908 28.9467 48.75 30.5 48.75Z" fill="#538200"/>
<path d="M25.8125 50.625V58.125H35.1875V50.625C35.1875 50.1277 34.99 49.6508 34.6383 49.2992C34.2867 48.9475 33.8098 48.75 33.3125 48.75H27.6875C27.1902 48.75 26.7133 48.9475 26.3617 49.2992C26.01 49.6508 25.8125 50.1277 25.8125 50.625Z" fill="#538200"/>
<path d="M53 48.75C54.5533 48.75 55.8125 47.4908 55.8125 45.9375C55.8125 44.3842 54.5533 43.125 53 43.125C51.4467 43.125 50.1875 44.3842 50.1875 45.9375C50.1875 47.4908 51.4467 48.75 53 48.75Z" fill="#538200"/>
<path d="M48.3125 50.625V58.125H57.6875V50.625C57.6875 50.1277 57.49 49.6508 57.1383 49.2992C56.7867 48.9475 56.3098 48.75 55.8125 48.75H50.1875C49.6902 48.75 49.2133 48.9475 48.8617 49.2992C48.51 49.6508 48.3125 50.1277 48.3125 50.625Z" fill="#538200"/>
<path d="M8.9375 39.375H29.5625V41.25H31.4375V39.375H52.0625V41.25H53.9375V38.4375C53.9375 38.1889 53.8387 37.9504 53.6629 37.7746C53.4871 37.5988 53.2486 37.5 53 37.5H31.4375V35.625H29.5625V37.5H8C7.75136 37.5 7.5129 37.5988 7.33709 37.7746C7.16127 37.9504 7.0625 38.1889 7.0625 38.4375V41.25H8.9375V39.375Z" fill="#538200"/>
<path d="M18.5872 23.1253C18.8479 23.1228 19.1027 23.2032 19.3149 23.3548C19.527 23.5064 19.6855 23.7215 19.7675 23.9691C19.9687 24.6134 20.2279 25.2381 20.5419 25.8356C20.6616 26.0689 20.7036 26.3343 20.662 26.5931C20.6203 26.852 20.4971 27.0907 20.3103 27.2747C20.1977 27.3873 20.1084 27.5209 20.0474 27.668C19.9864 27.8151 19.9551 27.9728 19.9551 28.132C19.9551 28.2913 19.9864 28.4489 20.0474 28.596C20.1084 28.7431 20.1977 28.8768 20.3103 28.9894L22.1319 30.8109C22.2444 30.9236 22.3781 31.0129 22.5252 31.0739C22.6723 31.1348 22.83 31.1662 22.9892 31.1662C23.1485 31.1662 23.3061 31.1348 23.4532 31.0739C23.6003 31.0129 23.734 30.9236 23.8466 30.8109C24.0305 30.6241 24.2693 30.5009 24.5281 30.4593C24.787 30.4176 25.0524 30.4597 25.2856 30.5794C25.8829 30.8932 26.5073 31.1523 27.1512 31.3538C27.3998 31.4348 27.6161 31.5929 27.7689 31.8051C27.9216 32.0173 28.0027 32.2726 28.0006 32.5341C28.0001 32.6936 28.0311 32.8516 28.0918 32.9991C28.1525 33.1466 28.2417 33.2807 28.3543 33.3936C28.4669 33.5066 28.6007 33.5962 28.7481 33.6574C28.8954 33.7185 29.0533 33.75 29.2128 33.75H31.7872C31.9465 33.7501 32.1042 33.7189 32.2514 33.658C32.3985 33.5971 32.5323 33.5079 32.6449 33.3953C32.7576 33.2827 32.847 33.149 32.908 33.0019C32.9689 32.8548 33.0003 32.6971 33.0003 32.5378C32.9982 32.2764 33.0794 32.021 33.2321 31.8088C33.3848 31.5966 33.6011 31.4385 33.8497 31.3575C34.4936 31.1561 35.118 30.8969 35.7153 30.5831C35.9486 30.4634 36.214 30.4214 36.4728 30.463C36.7316 30.5047 36.9704 30.6279 37.1544 30.8147C37.2669 30.9273 37.4006 31.0166 37.5477 31.0776C37.6948 31.1386 37.8525 31.1699 38.0117 31.1699C38.171 31.1699 38.3286 31.1386 38.4757 31.0776C38.6228 31.0166 38.7565 30.9273 38.8691 30.8147L40.6906 28.9931C40.8032 28.8806 40.8926 28.7469 40.9535 28.5998C41.0145 28.4527 41.0459 28.295 41.0459 28.1358C41.0459 27.9765 41.0145 27.8189 40.9535 27.6718C40.8926 27.5247 40.8032 27.391 40.6906 27.2784C40.5038 27.0945 40.3806 26.8557 40.3389 26.5969C40.2973 26.338 40.3394 26.0726 40.4591 25.8394C40.7772 25.2343 41.0392 24.6013 41.2419 23.9484C41.3202 23.707 41.4735 23.4968 41.6796 23.3486C41.8856 23.2003 42.1337 23.1218 42.3875 23.1244H42.4137C42.7351 23.1241 43.0432 22.9963 43.2703 22.769C43.4974 22.5417 43.625 22.2335 43.625 21.9122V20.625H38C38 22.6141 37.2098 24.5218 35.8033 25.9283C34.3968 27.3348 32.4891 28.125 30.5 28.125C28.5109 28.125 26.6032 27.3348 25.1967 25.9283C23.7902 24.5218 23 22.6141 23 20.625H17.375V21.9122C17.3749 22.0715 17.4061 22.2292 17.467 22.3764C17.5279 22.5235 17.6171 22.6573 17.7297 22.7699C17.8423 22.8826 17.976 22.972 18.1231 23.033C18.2702 23.0939 18.4279 23.1253 18.5872 23.1253Z" fill="#7FB135"/>
<path d="M43.625 16.875H41.75V9.375L36.125 6.5625V16.875H34.25V3.75L30.5 1.875L26.75 3.75V16.875H24.875V6.5625L19.25 9.375V16.875H17.375V18.75H43.625V16.875ZM32.375 14.0625H28.625V13.125H32.375V14.0625ZM32.375 10.3125H28.625V9.375H32.375V10.3125ZM32.375 6.5625H28.625V5.625H32.375V6.5625Z" fill="#7FB135"/>
</svg>
