<svg width="61" height="60" viewBox="0 0 61 60" fill="none" xmlns="http://www.w3.org/2000/svg">
<path d="M53 33.125H44.5625V56.5625H42.6875V27.5L33.3125 20.9375V36.875H39.875V56.5625H38V38.75H26.75V56.5625H24.875V36.875H31.4375V13.4375H28.625V9.6875H25.8125V5H23.9375V9.6875H21.125V13.4375H18.3125V56.5625H16.4375V32.1875L8 38.75V56.5625H2.375V58.4375H58.625V56.5625H53V33.125ZM25.8125 17.2906H29.5625V19.1656H25.8125V17.2906ZM25.8125 26.6656H29.5625V28.5406H25.8125V26.6656ZM25.8125 31.25H29.5625V33.125H25.8125V31.25ZM23.9375 28.5406H20.1875V26.6656H23.9375V28.5406ZM23.9375 23.8531H20.1875V21.9781H23.9375V23.8531ZM23.9375 19.1656H20.1875V17.2906H23.9375V19.1656Z" fill="#538200"/>
<rect x="26.5" y="38" width="12" height="18" fill="#7FB135"/>
<rect x="44.5" y="33" width="9" height="23" fill="#7FB135"/>
<path d="M7.5 38L16.5 32V56H7.5V38Z" fill="#7FB135"/>
</svg>
