<svg width="61" height="60" viewBox="0 0 61 60" fill="none" xmlns="http://www.w3.org/2000/svg">
<path d="M13.9 16L9.5 55.6923L49.1 60L53.5 20.3077L13.9 16ZM49.0482 34.2051L31.9141 27.5385L34.5024 21.1282L50.2906 22.8718L49.0482 34.2051ZM28.1871 36.7179L31.2929 29.0769L36.5212 31.1282L33.3635 38.8718L28.1871 36.7179ZM27.1518 39.3846L37.7118 43.6923L34.8129 50.6667L24.3047 46.4103L27.1518 39.3846ZM45.2694 56.7179L21.1988 54.1026L23.6835 48L45.2694 56.7179ZM36.4176 51.2821L39.3165 44.359L47.5471 47.7436L46.6671 55.4872L36.4176 51.2821ZM34.9682 39.4872L38.1259 31.7436L48.8929 35.9487L47.9094 44.8205L34.9682 39.4872ZM31.5518 20.7692L29.2741 26.4615L16.2294 21.3846L16.4882 19.0769L31.5518 20.7692ZM16.0224 23.1795L28.6529 28.0513L21.6647 45.3333L13.9 42.2051L16.0224 23.1795ZM13.6929 43.9487L20.9918 46.9231L18.1965 53.7949L12.6576 53.1795L13.6929 43.9487Z" fill="#7FB135"/>
<path fill-rule="evenodd" clip-rule="evenodd" d="M41 1.64062C34.6617 1.64062 29.5156 6.78672 29.5156 13.125C29.5156 14.9712 30.477 17.5733 31.882 20.2907C34.9778 26.2779 40.1354 32.9355 40.1354 32.9355C40.3427 33.203 40.662 33.3594 41 33.3594C41.338 33.3594 41.6573 33.203 41.8646 32.9355C41.8646 32.9355 47.0222 26.2779 50.118 20.2907C51.523 17.5733 52.4844 14.9712 52.4844 13.125C52.4844 6.78672 47.3383 1.64062 41 1.64062ZM41 8.20312C38.2837 8.20312 36.0781 10.4087 36.0781 13.125C36.0781 15.8413 38.2837 18.0469 41 18.0469C43.7163 18.0469 45.9219 15.8413 45.9219 13.125C45.9219 10.4087 43.7163 8.20312 41 8.20312Z" fill="#538200"/>
</svg>
