<svg width="48" height="48" viewBox="0 0 48 48" fill="none" xmlns="http://www.w3.org/2000/svg">
<circle cx="24" cy="24" r="24" fill="#009EC1"/>
<path d="M15.0027 12.2H21.1764V11.3773C21.1764 8.47579 26.8266 8.47579 26.8266 11.3773V12.2H32.9999C33.4315 12.2 33.7819 12.5503 33.7819 12.9819V38.0169C33.7819 38.4486 33.4315 38.7989 32.9999 38.7989H15.0027C14.571 38.7989 14.2207 38.4486 14.2207 38.0169V12.9819C14.2207 12.5503 14.571 12.2 15.0027 12.2ZM19.2109 34.3205C17.5304 34.3205 17.5304 32.7566 19.2109 32.7566H28.7921C30.4729 32.7566 30.4729 34.3205 28.7921 34.3205H19.2109ZM24.0017 24.3562C25.5418 24.3562 26.4974 25.5726 26.4974 27.0462H21.5056C21.5056 25.5722 22.4612 24.3562 24.0017 24.3562ZM24.0013 21.3303C24.7727 21.3303 25.3979 21.9555 25.3979 22.7269C25.3979 23.4984 24.7727 24.1235 24.0013 24.1235C23.2299 24.1235 22.6047 23.4984 22.6047 22.7269C22.6047 21.9555 23.2299 21.3303 24.0013 21.3303ZM24.0013 17.9103C27.4291 17.9103 30.2145 20.6958 30.2145 24.1235C30.2145 27.5549 27.4326 30.3368 24.0013 30.3368C20.5747 30.3368 17.7881 27.5502 17.7881 24.1235C17.7881 20.6922 20.57 17.9103 24.0013 17.9103ZM24.0013 19.4743C21.4333 19.4743 19.352 21.5555 19.352 24.1235C19.352 26.6955 21.4294 28.7728 24.0013 28.7728C26.5693 28.7728 28.6505 26.6916 28.6505 24.1235C28.6505 21.552 26.5728 19.4743 24.0013 19.4743ZM21.1764 13.7639H15.7847V37.235H32.2179V13.7639H26.8266V16.1388H21.1764V13.7639ZM22.7403 11.3773V14.5748H25.2626V11.3773C25.2626 10.5621 22.7403 10.5617 22.7403 11.3773Z" fill="white"/>
</svg>
