<svg width="75" height="75" viewBox="0 0 75 75" fill="none" xmlns="http://www.w3.org/2000/svg">
<path d="M37.3645 2.00018C36.7727 2.01058 36.2093 2.25425 35.7983 2.6777C35.3868 3.10114 35.1617 3.6697 35.1721 4.25808V8.96006C24.1922 10.0675 15.6183 19.2728 15.6183 30.4794V32.3817L12.2229 32.3822C12.1521 32.3787 12.0809 32.3787 12.0096 32.3822C11.2579 32.4748 10.6048 32.9404 10.2755 33.6179C9.94575 34.2959 9.98409 35.0938 10.3776 35.7371C10.7712 36.3804 11.4661 36.7816 12.2228 36.8024H15.6183V59.5364L12.2228 59.5359C11.631 59.5384 11.0646 59.7741 10.6476 60.1921C10.2307 60.6096 9.99752 61.1747 10 61.7636V70.7901C10.0025 71.3755 10.2371 71.9362 10.6536 72.3502C11.0701 72.7643 11.634 72.998 12.2228 73H62.6512C63.241 72.999 63.8059 72.7657 64.2233 72.3517C64.6408 71.9377 64.8764 71.3761 64.8784 70.7902V61.7637C64.8809 61.1743 64.6473 60.6083 64.2293 60.1908C63.8119 59.7728 63.2439 59.5376 62.6511 59.5361H59.177V36.8021H62.568L62.5685 36.8026C63.1927 36.858 63.8114 36.6505 64.2742 36.2301C64.7365 35.8096 65 35.2153 65 34.5922C65 33.9692 64.7365 33.3749 64.2742 32.9544C63.8114 32.534 63.1927 32.3264 62.5685 32.3824H59.177V30.4801C59.177 19.2769 50.6097 10.0739 39.6359 8.96075V4.25826C39.6469 3.65652 39.4108 3.07608 38.9829 2.65011C38.5544 2.22418 37.9706 1.98994 37.3648 2.00033L37.3645 2.00018ZM37.2947 13.2717C37.366 13.2752 37.4372 13.2752 37.5085 13.2717C47.084 13.3321 54.7132 20.9448 54.7132 30.4803V32.3826H20.0818V30.4803C20.0818 20.9412 27.7136 13.3262 37.2955 13.2717H37.2947ZM20.081 36.8019H28.6463V59.5359H20.0815L20.081 36.8019ZM33.1144 36.8019H41.6797V59.5359H33.1144V36.8019ZM46.1426 36.8019H54.7124V59.5359H46.1426V36.8019ZM14.4622 63.9772H60.4092V68.5622L14.4622 68.5617V63.9772Z" fill="#4B79A7"/>
</svg>
