<svg width="75" height="75" viewBox="0 0 75 75" fill="none" xmlns="http://www.w3.org/2000/svg">
<path d="M15.1599 4C9.0152 4 4 9.01568 4 15.1599V59.8442C4 65.9885 9.0152 71 15.1599 71H59.8442C65.9885 71 71 65.9885 71 59.8442V15.1599C71 9.01568 65.9885 4 59.8442 4L15.1599 4ZM29.0876 15.9858C29.6545 15.9914 30.1948 16.2265 30.585 16.6373C30.9753 17.0481 31.1828 17.5996 31.1594 18.1655C31.1361 18.732 30.8846 19.2643 30.4617 19.6419L22.2708 27.1378C21.8796 27.4925 21.3693 27.6851 20.8412 27.6795C20.3135 27.6734 19.8079 27.4682 19.4246 27.1051L15.5928 23.4896C15.0516 22.9732 14.8268 22.2071 15.0035 21.4804C15.1801 20.7532 15.7311 20.1756 16.449 19.9653C17.1673 19.7545 17.9426 19.9433 18.4843 20.4597L20.8767 22.7334L27.6324 16.5503C27.9796 16.2264 28.4264 16.0301 28.8999 15.9941C28.9625 15.9885 29.025 15.9854 29.0876 15.9858ZM36.7181 19.7359H57.9583C58.5219 19.7233 59.0664 19.9383 59.4693 20.3323C59.8721 20.7263 60.0993 21.2661 60.0993 21.8297C60.0993 22.3934 59.8721 22.9332 59.4693 23.3272C59.0664 23.7212 58.5219 23.9361 57.9583 23.9235H36.7181C36.1544 23.9362 35.61 23.7212 35.2071 23.3272C34.8042 22.9332 34.5771 22.3934 34.5771 21.8297C34.5771 21.2661 34.8042 20.7263 35.2071 20.3323C35.61 19.9383 36.1544 19.7233 36.7181 19.7359ZM29.0997 31.6521C29.6666 31.6601 30.2054 31.8966 30.5943 32.3088C30.9836 32.7205 31.1887 33.2725 31.1635 33.8384C31.1387 34.4049 30.8854 34.9362 30.4615 35.3124L22.2706 42.8083C21.8799 43.1635 21.3696 43.357 20.842 43.3518C20.3143 43.3467 19.8082 43.142 19.4245 42.7798L15.5926 39.1648C15.1879 38.7816 14.9524 38.253 14.9374 37.6959C14.9225 37.1389 15.13 36.5986 15.5137 36.1943C15.8969 35.79 16.4259 35.5545 16.983 35.5405C17.5401 35.526 18.0799 35.7339 18.4842 36.1181L20.8765 38.4039L27.6322 32.2249C28.0285 31.8501 28.5547 31.6442 29.0997 31.6521ZM36.7181 35.4064H57.9583C58.5219 35.3938 59.0664 35.6088 59.4693 36.0028C59.8721 36.3972 60.0993 36.9366 60.0993 37.5002C60.0993 38.0639 59.8721 38.6032 59.4693 38.9977C59.0664 39.3917 58.5219 39.6066 57.9583 39.594H36.7181C36.1544 39.6066 35.61 39.3917 35.2071 38.9977C34.8042 38.6032 34.5771 38.0639 34.5771 37.5002C34.5771 36.9366 34.8042 36.3973 35.2071 36.0028C35.61 35.6088 36.1544 35.3938 36.7181 35.4064ZM29.1325 47.3146C29.6994 47.3272 30.2364 47.5689 30.6214 47.9843C31.007 48.3998 31.2075 48.9536 31.1771 49.5196C31.1472 50.0851 30.8887 50.6146 30.4616 50.9867L22.2707 58.4663C21.8814 58.8229 21.372 59.0192 20.8443 59.0159C20.3167 59.0131 19.8096 58.8107 19.4245 58.4499L15.5927 54.8349C15.188 54.4517 14.9524 53.9231 14.9375 53.366C14.9225 52.809 15.13 52.2687 15.5137 51.8644C15.8969 51.4601 16.426 51.2251 16.983 51.2106C17.5401 51.1961 18.0799 51.4041 18.4842 51.7882L20.8766 54.0619L27.6322 47.8952C27.9771 47.5652 28.4239 47.3633 28.8997 47.3226C28.9773 47.3156 29.0549 47.3127 29.1325 47.3146ZM36.518 51.081C36.5849 51.0777 36.6517 51.0777 36.7185 51.081H57.9588C58.5224 51.0684 59.0669 51.2833 59.4697 51.6773C59.8726 52.0713 60.0997 52.6111 60.0997 53.1748C60.0997 53.7379 59.8726 54.2777 59.4697 54.6718C59.0669 55.0657 58.5224 55.2807 57.9588 55.2686H36.7185C35.9806 55.2873 35.2879 54.9167 34.8935 54.2932C34.499 53.6698 34.4616 52.8846 34.7949 52.2261C35.1276 51.5676 35.782 51.1329 36.518 51.081Z" fill="#2C608A"/>
</svg>
