<svg width="518" height="248" viewBox="0 0 518 248" fill="none" xmlns="http://www.w3.org/2000/svg">
<rect opacity="0.1" width="518" height="248" rx="12" fill="#7FB135"/>
<rect x="40" y="40" width="40" height="40" rx="8" fill="#7FB135"/>
<rect opacity="0.5" x="90" y="47" width="228" height="24" rx="8" fill="#7FB135"/>
<path fill-rule="evenodd" clip-rule="evenodd" d="M69.9869 53.5812C70.0403 53.9486 69.9223 54.3453 69.7775 54.5584L59.9338 69.0428C59.789 69.2558 59.4728 69.4981 59.1299 69.5567C58.7869 69.6153 58.4172 69.4902 58.219 69.3358L50.4896 63.3135C50.2914 63.1591 50.0665 62.821 50.0131 62.4536C49.9597 62.0861 50.0777 61.6894 50.2225 61.4764L51.8148 59.1333C51.9596 58.9203 52.2758 58.678 52.6188 58.6194C52.9617 58.5608 53.3314 58.686 53.5296 58.8404L58.088 62.392L65.4708 51.5286C65.6155 51.3156 65.9318 51.0733 66.2747 51.0147C66.6177 50.9561 66.9873 51.0812 67.1855 51.2357L69.3656 52.9342C69.7353 53.0594 69.9335 53.2138 69.9869 53.5812Z" fill="white"/>
<rect x="120" y="104" width="40" height="40" rx="8" fill="#7FB135"/>
<rect opacity="0.5" x="170" y="111" width="228" height="24" rx="8" fill="#7FB135"/>
<path fill-rule="evenodd" clip-rule="evenodd" d="M149.987 117.581C150.04 117.949 149.922 118.345 149.778 118.558L139.934 133.043C139.789 133.256 139.473 133.498 139.13 133.557C138.787 133.615 138.417 133.49 138.219 133.336L130.49 127.314C130.291 127.159 130.067 126.821 130.013 126.454C129.96 126.086 130.078 125.689 130.222 125.476L131.815 123.133C131.96 122.92 132.276 122.678 132.619 122.619C132.962 122.561 133.331 122.686 133.53 122.84L138.088 126.392L145.471 115.529C145.616 115.316 145.932 115.073 146.275 115.015C146.618 114.956 146.987 115.081 147.186 115.236L149.366 116.934C149.735 117.059 149.933 117.214 149.987 117.581Z" fill="white"/>
<rect x="200" y="168" width="40" height="40" rx="8" fill="#7FB135"/>
<rect opacity="0.5" x="250" y="175" width="228" height="24" rx="8" fill="#7FB135"/>
<path fill-rule="evenodd" clip-rule="evenodd" d="M229.987 181.581C230.04 181.949 229.922 182.345 229.778 182.558L219.934 197.043C219.789 197.256 219.473 197.498 219.13 197.557C218.787 197.615 218.417 197.49 218.219 197.336L210.49 191.314C210.291 191.159 210.067 190.821 210.013 190.454C209.96 190.086 210.078 189.689 210.222 189.476L211.815 187.133C211.96 186.92 212.276 186.678 212.619 186.619C212.962 186.561 213.331 186.686 213.53 186.84L218.088 190.392L225.471 179.529C225.616 179.316 225.932 179.073 226.275 179.015C226.618 178.956 226.987 179.081 227.186 179.236L229.366 180.934C229.735 181.059 229.933 181.214 229.987 181.581Z" fill="white"/>
</svg>
