<svg width="75" height="75" viewBox="0 0 75 75" fill="none" xmlns="http://www.w3.org/2000/svg">
<path d="M61.2609 6.00068H21.755C20.3279 6.00068 18.9588 6.56659 17.9493 7.57439C16.9385 8.5822 16.3687 9.94923 16.3657 11.3763V13.8732H15.2221C13.5706 13.8772 11.988 14.5366 10.8217 15.7048C9.65548 16.874 9 18.4586 9 20.1099V63.7781C9.00394 65.4266 9.66039 67.0071 10.8266 68.1734C11.9929 69.3396 13.5734 69.9961 15.2219 70H53.065C54.7165 70 56.3001 69.3445 57.4691 68.1783C58.6382 67.012 59.2967 65.4295 59.3007 63.7779V62.1275H61.2621C62.6863 62.1235 64.0513 61.5557 65.0591 60.5488C66.0659 59.541 66.6337 58.176 66.6377 56.7519V11.3755C66.6337 9.95143 66.0659 8.58542 65.0591 7.57862C64.0513 6.57082 62.6862 6.00393 61.2621 6L61.2609 6.00068ZM55.0664 63.7781C55.0586 64.8794 54.164 65.7671 53.0636 65.7671H15.2206C14.1222 65.7671 13.2315 64.8764 13.2315 63.7781V20.1099C13.2315 19.0086 14.1203 18.114 15.2206 18.1062H53.0636C54.1669 18.114 55.0586 19.0067 55.0664 20.1099V63.7781ZM62.4035 56.7235C62.4035 57.3543 61.8918 57.8661 61.2609 57.8661H59.2994V20.1087C59.2994 18.4543 58.6419 16.8689 57.4727 15.6986C56.3035 14.5294 54.7169 13.8719 53.0636 13.8719H20.5266V11.375C20.5345 10.7412 21.0502 10.2324 21.683 10.2324H61.2595C61.8904 10.2324 62.4022 10.7442 62.4022 11.375L62.4035 56.7235ZM49.1544 28.3487C49.1544 29.518 48.2076 30.4657 47.0384 30.4657H20.7246C19.5564 30.4657 18.6087 29.518 18.6087 28.3487C18.6087 27.1805 19.5564 26.2328 20.7246 26.2328H47.0384C48.2076 26.2328 49.1544 27.1805 49.1544 28.3487ZM49.1544 38.973C49.1544 40.1422 48.2076 41.09 47.0384 41.09H20.7246C19.5564 41.09 18.6087 40.1422 18.6087 38.973C18.6087 37.8048 19.5564 36.857 20.7246 36.857H47.0384C48.2076 36.857 49.1544 37.8048 49.1544 38.973ZM49.1544 49.5973C49.1544 50.7665 48.2076 51.7143 47.0384 51.7143H20.7246C19.5564 51.7143 18.6087 50.7665 18.6087 49.5973C18.6087 48.4291 19.5564 47.4813 20.7246 47.4813H47.0384C48.2076 47.4813 49.1544 48.4291 49.1544 49.5973Z" fill="#4B79A7"/>
</svg>
