<svg width="518" height="248" viewBox="0 0 518 248" fill="none" xmlns="http://www.w3.org/2000/svg">
<rect opacity="0.6" width="518" height="248" rx="12" fill="#E7F6F8"/>
<circle cx="84" cy="146" r="44" fill="white"/>
<path d="M97.7243 128.269C91.7405 121.511 86.9829 118.705 81.4244 118.513C78.8248 118.352 77.4922 118.833 75.2374 119.646L71.3428 121.05C70.0617 121.512 68.9671 122.424 68.2403 123.655C67.9701 124.14 67.7793 124.531 67.6676 124.83C67.6398 124.904 67.5606 124.998 67.5327 125.072C66.8009 124.303 65.7993 124.018 64.8256 124.369L59.1375 126.421C57.4464 127.03 56.6686 128.99 57.4612 130.901L60.9576 139.331C61.7268 141.185 63.6885 142.223 65.4311 141.594L70.9424 139.542C71.9161 139.191 72.5076 138.203 72.4188 137.137C72.4932 137.174 72.6424 137.25 72.7917 137.325C73.0897 137.476 73.4626 137.665 73.938 137.816L74.0124 137.854L87.9745 171.516C88.3708 172.471 89.3402 172.962 90.2113 172.648L97.7444 169.931C98.6155 169.617 98.9788 168.646 98.5825 167.691L84.5496 133.859L84.4797 133.691C83.8038 132.061 84.1059 129.949 85.9507 129.284C89.9479 127.843 91.4623 128.653 94.8171 130.351C95.19 130.539 95.5628 130.728 95.9352 130.916C96.3824 131.142 96.8112 131.182 97.2213 131.034C97.5287 130.923 97.7383 130.718 97.9247 130.457C98.377 129.842 98.2835 128.907 97.7243 128.269L97.7243 128.269ZM90.3495 168.72L77.5994 137.981L78.112 137.796L82.0532 136.504L94.7334 167.075L90.3263 168.664L90.3495 168.72ZM84.5758 125.969C81.7572 126.985 80.3648 129.877 80.9341 133.096L76.7878 134.462C76.1215 134.702 75.4135 134.699 74.7376 134.49C74.3881 134.358 74.1643 134.244 73.9407 134.131C72.897 133.603 72.049 133.263 70.409 133.854C69.3842 134.224 68.8161 135.269 68.9282 136.391L64.0832 138.202L60.5869 129.773L65.6602 127.943C66.3871 128.844 67.5381 129.204 68.5629 128.835C70.0256 128.243 70.4309 127.515 70.8172 126.601C70.9521 126.358 71.064 126.059 71.2271 125.742C71.5764 125.164 72.1492 124.699 72.8155 124.459L76.71 123.054C78.8112 122.297 79.6823 121.983 81.6765 122.103C84.4302 122.209 86.9277 123.117 89.6162 125.054C88.1771 124.993 86.5746 125.248 84.5757 125.968L84.5758 125.969Z" fill="#009EC1"/>
<circle cx="313" cy="164" r="44" fill="white"/>
<path d="M293.958 147.338C292.688 148.607 292 150.247 292 151.993C292 153.738 292.688 155.431 293.958 156.648L320.3 183.043C321.57 184.313 323.209 185 324.955 185C326.7 185 328.393 184.312 329.61 183.043L332.043 180.662C333.313 179.393 334 177.753 334 176.007C334 174.262 333.312 172.569 332.043 171.352L305.701 144.957C304.431 143.687 302.791 143 301.046 143C299.3 143 297.607 143.688 296.391 144.957L293.958 147.338ZM303.056 147.602L329.398 173.944C329.98 174.526 330.245 175.267 330.245 176.007C330.245 176.748 329.98 177.488 329.398 178.07L327.018 180.45C325.907 181.561 324.056 181.561 322.892 180.45L321.887 179.445L325.166 176.166C325.907 175.425 325.907 174.262 325.166 173.574C324.426 172.833 323.262 172.833 322.574 173.574L319.348 176.8L315.222 172.675L318.448 169.448C319.189 168.707 319.189 167.544 318.448 166.856C317.708 166.115 316.544 166.115 315.856 166.856L312.63 170.083L308.504 165.957L311.73 162.73C312.471 161.989 312.471 160.826 311.73 160.138C310.99 159.397 309.826 159.397 309.138 160.138L305.912 163.365L301.733 159.239L304.96 156.012C305.7 155.272 305.7 154.108 304.96 153.42C304.219 152.68 303.056 152.68 302.368 153.42L299.141 156.647L296.602 154.055C295.491 152.944 295.491 151.093 296.602 149.929L298.93 147.602C300.093 146.438 301.945 146.438 303.056 147.602L303.056 147.602Z" fill="#009EC1"/>
<circle cx="434" cy="99" r="44" fill="white"/>
<path d="M444.858 75.0448C440.834 74.7254 436.703 76.1154 433.635 79.1847C429.669 83.1506 428.549 88.8793 430.244 93.8696L411.83 112.284C409.39 114.724 409.39 118.731 411.83 121.17C414.269 123.61 418.276 123.61 420.716 121.17L439.131 102.738C444.123 104.437 449.848 103.333 453.816 99.3659C457.908 95.2738 458.998 89.2926 457.063 84.1987L457.063 84.1983C456.858 83.6519 456.39 83.2476 455.819 83.1245C455.249 83.0019 454.655 83.1779 454.244 83.5917L447.766 90.0868C446.404 91.4497 444.276 91.4497 442.913 90.0868C441.55 88.7238 441.55 86.5965 442.913 85.2331L449.408 78.756H449.408C449.822 78.3445 449.998 77.7511 449.875 77.1807C449.752 76.6104 449.348 76.1416 448.801 75.9369C447.528 75.4534 446.199 75.151 444.858 75.0447L444.858 75.0448ZM444.59 78.471C444.658 78.4766 444.719 78.518 444.787 78.5244L440.486 82.8069C437.823 85.4703 437.823 89.8328 440.486 92.4958C443.149 95.1592 447.512 95.1592 450.175 92.4958L454.476 88.1954C454.792 91.318 453.79 94.5374 451.389 96.9388C448.126 100.202 443.331 100.944 439.362 99.2052H439.362C439.047 99.0681 438.699 99.0291 438.361 99.0928C438.024 99.1566 437.714 99.3199 437.47 99.562L418.289 118.744C417.149 119.883 415.395 119.883 414.256 118.744C413.117 117.604 413.117 115.85 414.256 114.711L433.42 95.5292H433.421C433.663 95.2859 433.826 94.9756 433.89 94.6386C433.953 94.3013 433.914 93.9528 433.777 93.6377C432.038 89.6687 432.798 84.8744 436.061 81.611C438.406 79.2659 441.537 78.2231 444.59 78.4704V78.471Z" fill="#009EC1"/>
<circle cx="206" cy="84" r="44" fill="white"/>
<path d="M213.869 62.5369L188.204 88.2011C188.058 88.3494 187.94 88.523 187.856 88.7142C187.833 88.7647 187.815 88.8149 187.792 88.8698C187.769 88.9248 187.737 88.9843 187.723 89.0485L184.057 103.714C183.897 104.342 184.08 105.008 184.54 105.466C184.999 105.923 185.666 106.104 186.293 105.941L200.959 102.275C201.023 102.275 201.078 102.224 201.137 102.206L201.293 102.142C201.484 102.058 201.658 101.941 201.807 101.794L227.471 76.1296C227.811 75.784 228.001 75.3176 227.998 74.8326C227.998 71.4293 226.646 68.1654 224.239 65.7585C221.833 63.3515 218.569 62 215.165 62C214.679 61.9997 214.213 62.1929 213.869 62.5369ZM190.899 91.4729C192.819 91.7715 194.592 92.674 195.964 94.0492C197.335 95.4248 198.232 97.2016 198.525 99.1218L188.355 101.642L190.899 91.4729ZM201.747 96.6607C201.303 95.2621 200.621 93.9505 199.73 92.7836C199.812 92.737 199.89 92.6852 199.964 92.628L222.796 69.7912C223.657 71.0757 224.176 72.5583 224.304 74.0992L201.747 96.6607ZM220.207 67.2025L197.37 90.0343C197.313 90.1085 197.261 90.1865 197.214 90.268C196.048 89.3777 194.736 88.6955 193.337 88.2514L215.894 65.6946C217.437 65.8215 218.921 66.3406 220.207 67.2025Z" fill="#009EC1"/>
</svg>
