<svg width="518" height="248" viewBox="0 0 518 248" fill="none" xmlns="http://www.w3.org/2000/svg">
<rect opacity="0.1" width="518" height="248" rx="12" fill="#835AA6"/>
<rect x="403" y="176" width="75" height="25" rx="9" fill="#835AA6"/>
<rect opacity="0.2" x="250" y="176" width="143" height="25" rx="9" fill="#835AA6"/>
<rect opacity="0.3" x="200" y="168" width="40" height="40" rx="9" fill="#835AA6"/>
<path d="M232.909 185.55C232.661 184.827 231.916 184.346 231.172 184.346H224.844C224.596 184.346 224.348 184.225 224.224 183.984L222.239 178.204C221.991 177.482 221.246 177 220.502 177C219.758 177 219.013 177.482 218.765 178.204L216.78 183.864C216.656 184.105 216.408 184.225 216.16 184.225H209.832C208.964 184.225 208.343 184.707 208.095 185.429C207.847 186.152 208.095 186.995 208.715 187.476L213.802 191.089C214.05 191.209 214.05 191.571 214.05 191.812L212.065 197.592C211.817 198.314 212.065 199.157 212.686 199.639C213.306 200.12 214.174 200.12 214.919 199.639L220.006 196.026C220.254 195.906 220.502 195.906 220.75 196.026L225.837 199.639C226.209 199.88 226.581 200 226.954 200C227.326 200 227.698 199.88 228.07 199.639C228.69 199.157 228.939 198.435 228.69 197.592L226.705 191.812C226.581 191.571 226.705 191.33 226.954 191.089L232.04 187.476C232.909 187.115 233.157 186.272 232.909 185.55Z" fill="#835AA6"/>
<rect x="243" y="48" width="75" height="25" rx="8" fill="#835AA6"/>
<rect opacity="0.3" x="40" y="40" width="40" height="40" rx="8" fill="#835AA6"/>
<rect opacity="0.2" x="90" y="48" width="143" height="25" rx="8" fill="#835AA6"/>
<path d="M61.7902 58.4474C59.0905 57.4978 57.9914 56.8237 57.9914 55.8432C57.9914 54.9857 58.6506 54.097 60.6911 54.097C62.9511 54.097 64.4264 54.8013 65.2109 55.1692L66.1525 51.7067C65.054 51.2171 63.6418 50.7571 61.5696 50.6962V48H58.4934V50.9105C55.1345 51.5233 53.1882 53.6373 53.1882 56.3641C53.1882 59.3362 55.4797 60.8676 58.8382 61.9707C61.1928 62.7366 62.1979 63.4722 62.1979 64.6359C62.1979 65.8306 60.9735 66.5353 59.1528 66.5353C57.1123 66.5353 55.2605 65.8918 53.942 65.1871L53 68.772C54.1929 69.4154 56.2331 69.9972 58.3366 70.0895V73H61.4441V69.8445C65.054 69.2626 67 66.9339 67 64.2071C67.0007 61.4194 65.5254 59.7341 61.7903 58.4473L61.7902 58.4474Z" fill="#835AA6"/>
<rect x="323" y="112" width="75" height="25" rx="8" fill="#835AA6"/>
<rect opacity="0.2" x="170" y="112" width="143" height="25" rx="8" fill="#835AA6"/>
<rect opacity="0.3" x="120" y="104" width="40" height="40" rx="8" fill="#835AA6"/>
<path d="M147.555 118.713C147.918 117.841 147.974 116.871 147.713 115.963C147.461 115.104 146.936 114.35 146.217 113.815C145.498 113.28 144.625 112.994 143.729 113C142.156 113.009 140.662 113.691 139.625 114.874C138.588 113.691 137.094 113.009 135.521 113C134.625 112.994 133.752 113.28 133.033 113.815C132.314 114.35 131.789 115.104 131.536 115.963C131.276 116.871 131.332 117.841 131.695 118.713C131.193 118.921 130.765 119.273 130.463 119.725C130.162 120.176 130 120.707 130 121.25V132.25C130 132.979 130.29 133.679 130.805 134.195C131.321 134.71 132.021 135 132.75 135H146.5C147.229 135 147.929 134.71 148.445 134.195C148.96 133.679 149.25 132.979 149.25 132.25V121.25C149.25 120.707 149.088 120.176 148.787 119.725C148.485 119.273 148.057 118.921 147.555 118.713H147.555ZM138.25 132.25H132.75V128.125H138.25V132.25ZM138.25 125.375H132.75V121.25H138.25V125.375ZM135.5 118.5C135.009 118.5 134.555 118.238 134.309 117.813C134.063 117.387 134.063 116.863 134.309 116.438C134.555 116.012 135.009 115.75 135.5 115.75C136.229 115.75 136.929 116.04 137.444 116.556C137.96 117.072 138.25 117.771 138.25 118.5L135.5 118.5ZM143.75 115.75V115.75C144.241 115.75 144.695 116.012 144.941 116.438C145.186 116.863 145.186 117.387 144.941 117.813C144.695 118.238 144.241 118.5 143.75 118.5H141C141 117.771 141.29 117.071 141.806 116.556C142.321 116.04 143.021 115.75 143.75 115.75V115.75ZM146.5 132.25H141V128.125H146.5V132.25ZM146.5 125.375H141V121.25H146.5V125.375Z" fill="#835AA6"/>
</svg>
