<svg width="13" height="12" viewBox="0 0 13 12" fill="none" xmlns="http://www.w3.org/2000/svg">
<path d="M7.25012 0.595578C7.25012 0.266649 6.99829 0 6.68763 0C6.37698 0 6.12514 0.266649 6.12514 0.595578V1.79025C6.12514 2.11918 6.37698 2.38583 6.68763 2.38583C6.99829 2.38583 7.25012 2.11918 7.25012 1.79025V0.595578Z" fill="#FEE685"/>
<path d="M2.39802 2.01241C2.61769 1.77947 2.97384 1.77947 3.1935 2.01241L3.98899 2.85592C4.20865 3.08885 4.20865 3.46651 3.98899 3.69944C3.76932 3.93237 3.41317 3.93237 3.1935 3.69944L2.39802 2.85592C2.17836 2.62299 2.17836 2.24534 2.39802 2.01241Z" fill="#FEE685"/>
<path d="M7.71188 11.5077C7.45176 11.8229 7.09899 12 6.73122 12H6.26878C5.90102 12 5.54825 11.8229 5.28812 11.5077C5.028 11.1925 4.88188 10.765 4.88188 10.3192V10.039H8.11813V10.3192C8.11813 10.765 7.97201 11.1925 7.71188 11.5077Z" fill="#FEE685"/>
<path d="M4.63764 9.0443C4.7646 9.15265 4.84692 9.30905 4.86747 9.48046H8.10521C8.12952 9.30595 8.21377 9.1471 8.34188 9.0345C9.03304 8.45345 9.44651 7.57795 9.47129 6.64305C9.49614 5.70806 9.12983 4.80931 8.4706 4.18789C7.86678 3.61947 7.07174 3.3345 6.26654 3.39781C5.46144 3.46112 4.71466 3.86726 4.19662 4.52378C3.67842 5.18031 3.43292 6.03133 3.516 6.88286C3.59909 7.73445 4.00375 8.51425 4.63764 9.0443Z" fill="#FEE685"/>
<path d="M1.06332 5.96467C0.752208 5.96467 0.5 6.23172 0.5 6.56113C0.5 6.89054 0.752207 7.15759 1.06332 7.15759H2.18664C2.49775 7.15759 2.74996 6.89054 2.74996 6.56113C2.74996 6.23172 2.49776 5.96467 2.18664 5.96467H1.06332Z" fill="#FEE685"/>
<path d="M10.7386 2.01246C10.9582 2.2454 10.9582 2.62305 10.7386 2.85598L9.94309 3.6995C9.72342 3.93243 9.36727 3.93243 9.14761 3.6995C8.92794 3.46657 8.92794 3.08891 9.14761 2.85598L9.94309 2.01246C10.1628 1.77953 10.5189 1.77953 10.7386 2.01246Z" fill="#FEE685"/>
<path d="M11.9365 7.03142C12.2477 7.03142 12.4999 6.76437 12.4999 6.43496C12.4999 6.10555 12.2477 5.8385 11.9365 5.8385L10.8132 5.8385C10.5021 5.8385 10.2499 6.10554 10.2499 6.43496C10.2499 6.76437 10.5021 7.03142 10.8132 7.03142H11.9365Z" fill="#FEE685"/>
</svg>
