<svg width="14" height="14" viewBox="0 0 14 14" fill="none" xmlns="http://www.w3.org/2000/svg">
<path d="M7 3.49967C7.92826 3.49967 8.8185 3.86842 9.47487 4.5248C10.1313 5.18118 10.5 6.07142 10.5 6.99967C10.5 8.29467 9.79417 9.42634 8.75 10.033V11.083C8.75 11.2377 8.68854 11.3861 8.57915 11.4955C8.46975 11.6049 8.32138 11.6663 8.16667 11.6663H5.83333C5.67862 11.6663 5.53025 11.6049 5.42085 11.4955C5.31146 11.3861 5.25 11.2377 5.25 11.083V10.033C4.20583 9.42634 3.5 8.29467 3.5 6.99967C3.5 6.07142 3.86875 5.18118 4.52513 4.5248C5.1815 3.86842 6.07174 3.49967 7 3.49967V3.49967ZM8.16667 12.2497V12.833C8.16667 12.9877 8.10521 13.1361 7.99581 13.2455C7.88642 13.3549 7.73804 13.4163 7.58333 13.4163H6.41667C6.26196 13.4163 6.11358 13.3549 6.00419 13.2455C5.89479 13.1361 5.83333 12.9877 5.83333 12.833V12.2497H8.16667ZM11.6667 6.41634H13.4167V7.58301H11.6667V6.41634ZM0.583334 6.41634H2.33333V7.58301H0.583334V6.41634ZM7.58333 0.583008V2.33301H6.41667V0.583008H7.58333ZM2.87 2.04134L4.1125 3.28967L3.28417 4.11217L2.04167 2.87551L2.87 2.04134ZM9.8875 3.28384L11.1242 2.04134L11.9583 2.87551L10.7158 4.11217L9.8875 3.28384Z" fill="#FEE685"/>
</svg>
