<svg width="20" height="20" viewBox="0 0 20 20" fill="none" xmlns="http://www.w3.org/2000/svg">
<g clip-path="url(#clip0_4615_15270)">
<path d="M10.9377 3.24447C10.9377 2.83331 10.6229 2.5 10.2345 2.5C9.84622 2.5 9.53143 2.83331 9.53143 3.24447V4.73781C9.53143 5.14897 9.84622 5.48229 10.2345 5.48229C10.6229 5.48229 10.9377 5.14898 10.9377 4.73781V3.24447Z" fill="#4D8055"/>
<path d="M4.87253 5.01551C5.14711 4.72434 5.5923 4.72434 5.86688 5.01551L6.86123 6.0699C7.13582 6.36107 7.13582 6.83314 6.86123 7.1243C6.58665 7.41547 6.14146 7.41547 5.86688 7.1243L4.87253 6.0699C4.59795 5.77874 4.59795 5.30667 4.87253 5.01551Z" fill="#4D8055"/>
<path d="M11.5149 16.8846C11.1897 17.2786 10.7487 17.5 10.289 17.5H9.71098C9.25127 17.5 8.81031 17.2786 8.48515 16.8846C8.16 16.4907 7.97734 15.9562 7.97734 15.399V15.0488H12.0227V15.399C12.0227 15.9562 11.84 16.4907 11.5149 16.8846Z" fill="#4D8055"/>
<path d="M7.67206 13.8054C7.83074 13.9408 7.93365 14.1363 7.95933 14.3506H12.0065C12.0369 14.1324 12.1422 13.9339 12.3024 13.7931C13.1663 13.0668 13.6831 11.9724 13.7141 10.8038C13.7452 9.63508 13.2873 8.51164 12.4632 7.73486C11.7085 7.02434 10.7147 6.66813 9.70817 6.74726C8.7018 6.8264 7.76832 7.33408 7.12077 8.15472C6.47302 8.97539 6.16615 10.0392 6.27 11.1036C6.37387 12.1681 6.87968 13.1428 7.67206 13.8054Z" fill="#4D8055"/>
<path d="M3.20415 9.95584C2.81526 9.95584 2.5 10.2896 2.5 10.7014C2.5 11.1132 2.81526 11.447 3.20415 11.447H4.6083C4.99719 11.447 5.31245 11.1132 5.31245 10.7014C5.31245 10.2896 4.99719 9.95584 4.6083 9.95584H3.20415Z" fill="#4D8055"/>
<path d="M15.2982 5.01558C15.5728 5.30674 15.5728 5.77881 15.2982 6.06998L14.3039 7.12438C14.0293 7.41554 13.5841 7.41554 13.3095 7.12438C13.0349 6.83321 13.0349 6.36114 13.3095 6.06998L14.3039 5.01558C14.5784 4.72442 15.0236 4.72442 15.2982 5.01558Z" fill="#4D8055"/>
<path d="M16.7957 11.2893C17.1846 11.2893 17.4998 10.9555 17.4998 10.5437C17.4998 10.1319 17.1846 9.79813 16.7957 9.79813L15.3915 9.79813C15.0026 9.79813 14.6874 10.1319 14.6874 10.5437C14.6874 10.9555 15.0026 11.2893 15.3915 11.2893H16.7957Z" fill="#4D8055"/>
</g>
<defs>
<clipPath id="clip0_4615_15270">
<rect width="20" height="20" fill="white"/>
</clipPath>
</defs>
</svg>
