<svg width="20" height="21" viewBox="0 0 20 21" fill="none" xmlns="http://www.w3.org/2000/svg">
<path d="M10 5.49967C11.3261 5.49967 12.5979 6.02646 13.5356 6.96414C14.4733 7.90182 15 9.17359 15 10.4997C15 12.3497 13.9917 13.9663 12.5 14.833V16.333C12.5 16.554 12.4122 16.766 12.256 16.9223C12.0997 17.0785 11.8877 17.1663 11.6667 17.1663H8.33337C8.11236 17.1663 7.9004 17.0785 7.74412 16.9223C7.58784 16.766 7.50004 16.554 7.50004 16.333V14.833C6.00837 13.9663 5.00004 12.3497 5.00004 10.4997C5.00004 9.17359 5.52682 7.90182 6.46451 6.96414C7.40219 6.02646 8.67396 5.49967 10 5.49967ZM11.6667 17.9997V18.833C11.6667 19.054 11.5789 19.266 11.4226 19.4223C11.2663 19.5785 11.0544 19.6663 10.8334 19.6663H9.16671C8.94569 19.6663 8.73373 19.5785 8.57745 19.4223C8.42117 19.266 8.33337 19.054 8.33337 18.833V17.9997H11.6667ZM16.6667 9.66634H19.1667V11.333H16.6667V9.66634ZM0.833374 9.66634H3.33337V11.333H0.833374V9.66634ZM10.8334 1.33301V3.83301H9.16671V1.33301H10.8334ZM4.10004 3.41634L5.87504 5.19967L4.69171 6.37467L2.91671 4.60801L4.10004 3.41634ZM14.125 5.19134L15.8917 3.41634L17.0834 4.60801L15.3084 6.37467L14.125 5.19134Z" fill="#4D8055"/>
</svg>
