<svg width="24" height="24" viewBox="0 0 24 24" fill="none" xmlns="http://www.w3.org/2000/svg">
<g clip-path="url(#clip0_4669_42699)">
<path d="M16.0006 4C14.9396 4 13.9222 4.42132 13.172 5.17153C12.422 5.92176 12.0005 6.93913 12.0005 7.9999V8.99982H14.0005V7.9999C14.0005 7.28543 14.3818 6.6252 15.0005 6.26788C15.6194 5.91056 16.3818 5.91056 17.0005 6.26788C17.6192 6.6252 18.0005 7.28543 18.0005 7.9999V16C18.0005 16.7144 17.6192 17.3747 17.0005 17.732C16.3818 18.0893 15.6194 18.0893 15.0005 17.732C14.3818 17.3747 14.0005 16.7144 14.0005 16V14.9999H12.0005V16C12.0005 17.4289 12.7629 18.7495 14.0005 19.464C15.2382 20.1787 16.7629 20.1787 18.0005 19.464C19.2381 18.7495 20.0006 17.4289 20.0006 16V7.9999C20.0006 6.93909 19.5792 5.92171 18.829 5.17153C18.0788 4.4213 17.0614 4 16.0007 4H16.0006Z" fill="#1B1B1B"/>
<path d="M16.0008 10.9989H7.41589L9.41595 8.99883L8.00081 7.58386L4.29332 11.2913C4.10551 11.479 4 11.7334 4 11.9989C4 12.2643 4.10551 12.5187 4.29332 12.7064L8.00081 16.4138L9.41595 14.9989L7.41589 12.9988H16.0008V10.9989Z" fill="#1B1B1B"/>
</g>
<defs>
<clipPath id="clip0_4669_42699">
<rect width="24" height="24" fill="white"/>
</clipPath>
</defs>
</svg>
