<svg width="32" height="32" viewBox="0 0 32 32" fill="none" xmlns="http://www.w3.org/2000/svg">
<rect width="32" height="32" rx="16" fill="#6F4C8D"/>
<g clip-path="url(#clip0_28427_63994)">
<path d="M16 8V5L12 9L16 13V10C19.31 10 22 12.69 22 16C22 17.01 21.75 17.97 21.3 18.8L22.76 20.26C23.54 19.03 24 17.57 24 16C24 11.58 20.42 8 16 8ZM16 22C12.69 22 10 19.31 10 16C10 14.99 10.25 14.03 10.7 13.2L9.24 11.74C8.46 12.97 8 14.43 8 16C8 20.42 11.58 24 16 24V27L20 23L16 19V22Z" fill="white"/>
</g>
<defs>
<clipPath id="clip0_28427_63994">
<rect width="24" height="24" fill="white" transform="translate(4 4)"/>
</clipPath>
</defs>
</svg>
