<svg width="51" height="65" viewBox="0 0 51 65" fill="none" xmlns="http://www.w3.org/2000/svg">
<path d="M40.6401 34.5054H26.8706C25.8682 34.5054 25.1328 35.3073 25.1328 36.2432C25.1328 37.179 25.9348 37.9809 26.8706 37.9809H40.6401C41.6425 37.9809 42.3779 37.179 42.3779 36.2432C42.3779 35.3073 41.6426 34.5054 40.6401 34.5054Z" fill="#009EC1"/>
<path d="M40.6401 43.2617H26.8706C25.8682 43.2617 25.1328 44.0637 25.1328 44.9995C25.1328 45.9353 25.9348 46.7373 26.8706 46.7373H40.6401C41.6425 46.7373 42.3779 45.9353 42.3779 44.9995C42.3779 44.0637 41.6426 43.2617 40.6401 43.2617Z" fill="#009EC1"/>
<path d="M40.6401 52.0181H26.8706C25.8682 52.0181 25.1328 52.82 25.1328 53.7558C25.1328 54.6917 25.9348 55.4936 26.8706 55.4936H40.6401C41.6425 55.4936 42.3779 54.6917 42.3779 53.7558C42.3779 52.82 41.6426 52.0181 40.6401 52.0181Z" fill="#009EC1"/>
<path d="M20.6536 34.5054H19.0493C18.0469 34.5054 17.3115 35.3073 17.3115 36.2432C17.3115 37.179 18.1135 37.9809 19.0493 37.9809H20.6536C21.6561 37.9809 22.3914 37.179 22.3914 36.2432C22.3919 35.3074 21.6566 34.5054 20.6536 34.5054Z" fill="#009EC1"/>
<path d="M20.6536 43.2617H19.0493C18.0469 43.2617 17.3115 44.0637 17.3115 44.9995C17.3115 45.9353 18.1135 46.7373 19.0493 46.7373H20.6536C21.6561 46.7373 22.3914 45.9353 22.3914 44.9995C22.3919 44.0637 21.6566 43.2617 20.6536 43.2617Z" fill="#009EC1"/>
<path d="M20.6536 52.0181H19.0493C18.0469 52.0181 17.3115 52.82 17.3115 53.7558C17.3115 54.6917 18.1135 55.4936 19.0493 55.4936H20.6536C21.6561 55.4936 22.3914 54.6917 22.3914 53.7558C22.3919 52.8201 21.6566 52.0181 20.6536 52.0181Z" fill="#009EC1"/>
<path d="M50.2652 24.8131L38.3005 12.8484C37.9662 12.5141 37.4985 12.3136 37.0303 12.3136H28.9427C27.5392 5.76317 21.657 0.75 14.6384 0.75C6.6175 0.75 0 7.30042 0 15.3884C0 21.404 3.67644 26.6177 8.89001 28.8237V62.5122C8.89001 63.5147 9.69198 64.25 10.6278 64.25H48.9284C49.9308 64.25 50.6662 63.448 50.6662 62.5122L50.6666 26.0832C50.8004 25.6155 50.6 25.1474 50.2656 24.8136L50.2652 24.8131ZM37.3647 16.8588L46.2547 25.7488H37.3647V16.8588ZM3.54252 15.3883C3.54252 9.23878 8.48896 4.29234 14.6384 4.29234C20.7879 4.29234 25.7344 9.23878 25.7344 15.3883C25.7344 21.5378 20.7879 26.4842 14.6384 26.4842C8.48896 26.4842 3.54252 21.471 3.54252 15.3883ZM12.4997 60.7073V29.8262C13.235 29.96 13.9037 30.0267 14.7055 30.0267C22.5927 30.0267 29.0098 23.7434 29.2771 15.923H33.8894V27.6204C33.8894 28.6228 34.6913 29.3581 35.6271 29.3581H47.3245V60.774H12.4997V60.7073Z" fill="#009EC1"/>
<path d="M20.7884 10.9102C20.1198 10.2415 18.9835 10.2415 18.3154 10.9102L13.1684 16.0571L11.0292 13.9179C10.3606 13.2493 9.22433 13.2493 8.55615 13.9179C7.88753 14.5865 7.88753 15.7228 8.55615 16.391L11.8983 19.7331C12.2326 20.0674 12.7002 20.2679 13.1684 20.2679C13.6365 20.2679 14.1041 20.0674 14.4385 19.7331L20.8556 13.316C21.4571 12.7145 21.4571 11.5782 20.7885 10.9102H20.7884Z" fill="#009EC1"/>
</svg>
