<svg width="26" height="27" viewBox="0 0 26 27" fill="none" xmlns="http://www.w3.org/2000/svg">
<circle cx="13" cy="13.5" r="12" stroke="#2E6276" stroke-width="2"/>
<path d="M17.4191 12.533H17.4122H16.9736H16.4736V12.033L16.4736 10.1934C16.4736 10.1933 16.4736 10.1931 16.4736 10.193C16.4692 8.31349 14.9204 6.77734 13.0011 6.77734C11.0809 6.77734 9.53235 8.31304 9.52781 10.1921C9.52781 10.1925 9.52781 10.1929 9.52781 10.1933L9.52819 10.3239H9.96519L9.96481 10.1938L9.9648 10.1906C9.97041 8.532 11.3345 7.19709 13.001 7.19709C14.6665 7.19709 16.031 8.53236 16.0355 10.1909L16.0355 10.1921L16.0363 12.0329L16.0366 12.5331H15.5363H8.58859C8.50416 12.5331 8.44531 12.5999 8.44531 12.6687V19.3641C8.44531 19.4329 8.50402 19.4996 8.58859 19.4996H17.4122C17.4982 19.4996 17.5564 19.4323 17.5564 19.3641V12.6686L17.4191 12.533ZM17.4191 12.533C17.5009 12.5365 17.5563 12.6019 17.5564 12.6685L17.4191 12.533ZM16.1098 14.4252L15.8752 14.1934L15.8744 14.1927C15.5505 13.8739 15.0274 13.8728 14.7026 14.193L14.7023 14.1933L12.8836 15.9893L11.7692 14.8884L11.7688 14.888C11.4446 14.5683 10.9211 14.5683 10.5968 14.888L10.5962 14.8886L10.2457 15.2353C10.2456 15.2355 10.2454 15.2356 10.2453 15.2358C9.91698 15.5594 9.91701 16.0874 10.2458 16.4109C10.246 16.4111 10.2462 16.4113 10.2464 16.4114L12.2974 18.4373L12.2977 18.4376L12.6491 18.0819M16.1098 14.4252L13.47 18.4377L13.4701 18.4376L13.8216 18.0903L13.4702 17.7345M16.1098 14.4252L16.1473 14.3881L16.1719 14.4866L16.2268 14.5408L16.2268 14.5408C16.5545 14.8647 16.5547 15.3925 16.2255 15.7164L16.2174 15.7243L13.8217 18.0902M16.1098 14.4252L13.8217 18.0902M12.6491 18.0819C12.746 18.1778 12.8887 18.2016 13.0085 18.1537M12.6491 18.0819L10.5967 16.0547L12.6491 18.0819ZM13.0085 18.1537L13.1918 18.6189C13.1922 18.6187 13.1926 18.6186 13.1929 18.6185C13.1933 18.6183 13.1936 18.6182 13.194 18.618L13.0085 18.1537ZM13.0085 18.1537C13.0489 18.1378 13.0864 18.1138 13.1187 18.0819L13.4702 17.7345M13.4702 17.7345L13.8217 18.0902M13.4702 17.7345L13.8217 18.0902" fill="#2E6276" stroke="#2E6276"/>
</svg>
