<svg width="45" height="45" viewBox="0 0 45 45" fill="none" xmlns="http://www.w3.org/2000/svg">
<circle cx="22.5" cy="22.5" r="22.5" fill="#D9E8F6"/>
<path d="M24.2776 13.5H27.1527L23.6823 19.2914H18.6254L24.2776 13.5ZM33.592 22.5966C33.1191 23.7332 32.0259 24.4728 30.8189 24.4728H23.6498C23.4051 24.4728 23.2012 24.6777 23.2012 24.9284C23.2012 25.012 23.2256 25.0996 23.2664 25.1707L27.6056 32.4H24.7223L17.1207 24.6067C17.0351 24.519 16.925 24.473 16.8066 24.473H10.0248C9.9556 24.4688 9.89844 24.4103 9.89844 24.3351V24.331C9.89844 21.9033 12.0639 20.2025 15.1632 20.2025H31.7694C31.8917 20.2025 32.0059 20.1524 32.0916 20.0647L35.142 16.8471L35.9984 16.8469L33.592 22.5966Z" fill="#2378C3"/>
</svg>
