<svg width="100" height="100" viewBox="0 0 100 100" fill="none" xmlns="http://www.w3.org/2000/svg">
<g clip-path="url(#clip0_16657_240911)">
<rect x="0.78125" y="-0.78125" width="100" height="100" rx="25" fill="#E7F6F8"/>
<path d="M10.9375 99.2188H89.0625C94.6875 99.2188 99.2188 94.6875 99.2188 89.0625V10.9375C99.2188 5.3125 94.6875 0.78125 89.0625 0.78125H10.9375C5.3125 0.78125 0.78125 5.3125 0.78125 10.9375V21.875V89.0625C0.78125 94.6875 5.3125 99.2188 10.9375 99.2188ZM5.46875 10.9375C5.46875 7.89062 7.89062 5.46875 10.9375 5.46875H89.0625C92.1094 5.46875 94.5312 7.89062 94.5312 10.9375V22.6562H5.46875V10.9375ZM5.46875 27.3438H94.5312V89.0625C94.5312 92.1094 92.1094 94.5312 89.0625 94.5312H10.9375C7.89062 94.5312 5.46875 92.1094 5.46875 89.0625V27.3438Z" fill="#2C608A"/>
<path d="M17.1875 11.7188H14.0625C12.7344 11.7188 11.7188 12.7344 11.7188 14.0625C11.7188 15.3906 12.7344 16.4062 14.0625 16.4062H17.1875C18.5156 16.4062 19.5312 15.3906 19.5312 14.0625C19.5312 12.7344 18.5156 11.7188 17.1875 11.7188Z" fill="#2C608A"/>
<path d="M29.6875 11.7188H26.5625C25.2344 11.7188 24.2188 12.7344 24.2188 14.0625C24.2188 15.3906 25.2344 16.4062 26.5625 16.4062H29.6875C31.0156 16.4062 32.0312 15.3906 32.0312 14.0625C32.0312 12.7344 31.0156 11.7188 29.6875 11.7188Z" fill="#2C608A"/>
<path d="M31.169 47.8649H35.761V61.9609H39.329V65.8809H35.761V71.0009H31.265L31.281 65.8809H20.625V62.0409L31.169 47.8649ZM24.945 61.9609H31.281V53.4809L24.945 61.9609Z" fill="#2C608A"/>
<path d="M50.585 47.5449C53.337 47.5449 55.5077 48.5743 57.097 50.6329C58.6863 52.6809 59.481 55.6303 59.481 59.4809C59.481 63.3103 58.697 66.2489 57.129 68.2969C55.561 70.3343 53.3797 71.3529 50.585 71.3529C47.7797 71.3529 45.5877 70.3343 44.009 68.2969C42.441 66.2596 41.657 63.3263 41.657 59.4969C41.657 56.9369 42.0197 54.7663 42.745 52.9849C43.4703 51.2036 44.4997 49.8543 45.833 48.9369C47.1663 48.0089 48.7503 47.5449 50.585 47.5449ZM50.585 67.5289C51.961 67.5289 52.969 66.9156 53.609 65.6889C54.249 64.4516 54.569 62.3876 54.569 59.4969C54.569 56.5423 54.2437 54.4249 53.593 53.1449C52.9423 51.8649 51.9343 51.2249 50.569 51.2249C49.2037 51.2249 48.185 51.8703 47.513 53.1609C46.8517 54.4516 46.521 56.5636 46.521 59.4969C46.521 62.3769 46.8517 64.4356 47.513 65.6729C48.1743 66.9103 49.1983 67.5289 50.585 67.5289Z" fill="#2C608A"/>
<path d="M72.669 47.8649H77.261V61.9609H80.829V65.8809H77.261V71.0009H72.765L72.781 65.8809H62.125V62.0409L72.669 47.8649ZM66.445 61.9609H72.781V53.4809L66.445 61.9609Z" fill="#2C608A"/>
</g>
<defs>
<clipPath id="clip0_16657_240911">
<rect width="100" height="100" fill="white"/>
</clipPath>
</defs>
</svg>
