<svg width="45" height="45" viewBox="0 0 45 45" fill="none" xmlns="http://www.w3.org/2000/svg">
<circle cx="22.5" cy="22.5" r="22.5" fill="#F4E3DB"/>
<path d="M23.0145 15.2467C22.9659 15.1954 22.9052 15.159 22.8398 15.1343V18.659H26.3658C26.3398 18.5945 26.3021 18.5342 26.2508 18.4831L23.0145 15.2467Z" fill="#BE4E1E"/>
<path d="M21.8208 19.1679V15.0991H13.6808C13.3958 15.0991 13.1719 15.323 13.1719 15.608V31.8919C13.1719 32.1717 13.3958 32.4008 13.6808 32.4008H25.8934C26.1732 32.4008 26.4023 32.1717 26.4023 31.8919V19.6769H22.3298C22.0485 19.6769 21.8209 19.4491 21.8209 19.1681L21.8208 19.1679ZM23.3473 28.8512H16.2231C15.9419 28.8512 15.7142 28.6234 15.7142 28.3423C15.7142 28.0611 15.9418 27.8334 16.2231 27.8334H23.3473C23.6286 27.8334 23.8562 28.0611 23.8562 28.3423C23.8562 28.6234 23.6286 28.8512 23.3473 28.8512ZM23.3473 25.7981H16.2231C15.9419 25.7981 15.7142 25.5703 15.7142 25.2892C15.7142 25.0081 15.9418 24.7803 16.2231 24.7803H23.3473C23.6286 24.7803 23.8562 25.0081 23.8562 25.2892C23.8562 25.5701 23.6286 25.7981 23.3473 25.7981ZM23.8562 22.236C23.8562 22.5171 23.6286 22.7449 23.3473 22.7449H16.2231C15.9419 22.7449 15.7142 22.5171 15.7142 22.236C15.7142 21.9548 15.9418 21.7271 16.2231 21.7271H23.3473C23.6286 21.7271 23.8562 21.955 23.8562 22.236Z" fill="#BE4E1E"/>
<path d="M26.9106 15.6057V11.5369H18.7706C18.4856 11.5369 18.2617 11.7608 18.2617 12.0458V14.0813H22.6585C23.0749 14.0813 23.4746 14.2515 23.7547 14.5481L26.9704 17.7632C27.2606 18.0527 27.4212 18.4351 27.4212 18.8388V28.8382H30.9833C31.2631 28.8382 31.4922 28.6091 31.4922 28.3293V16.1143H27.4197C27.1384 16.1143 26.9108 15.8865 26.9108 15.6054L26.9106 15.6057Z" fill="#BE4E1E"/>
<path d="M28.1004 11.6836C28.0518 11.6323 27.9911 11.5959 27.9258 11.5712V15.0959H31.4517C31.4257 15.0315 31.3881 14.9711 31.3368 14.92L28.1004 11.6836Z" fill="#BE4E1E"/>
</svg>
