<svg width="18" height="18" viewBox="0 0 18 18" fill="none" xmlns="http://www.w3.org/2000/svg">
<path d="M7.33317 12.7501L12.3332 9.00008L7.33317 5.25008V12.7501ZM8.99984 0.666748C4.39984 0.666748 0.666504 4.40008 0.666504 9.00008C0.666504 13.6001 4.39984 17.3334 8.99984 17.3334C13.5998 17.3334 17.3332 13.6001 17.3332 9.00008C17.3332 4.40008 13.5998 0.666748 8.99984 0.666748ZM8.99984 15.6667C5.32484 15.6667 2.33317 12.6751 2.33317 9.00008C2.33317 5.32508 5.32484 2.33341 8.99984 2.33341C12.6748 2.33341 15.6665 5.32508 15.6665 9.00008C15.6665 12.6751 12.6748 15.6667 8.99984 15.6667Z" fill="#5C5C5C"/>
</svg>
