<svg width="24" height="24" viewBox="0 0 24 24" fill="none" xmlns="http://www.w3.org/2000/svg">
<g clip-path="url(#clip0_4669_42671)">
<path d="M12 2C6.48421 2 2 6.48421 2 12C2 17.5158 6.48421 22 12 22C17.5158 22 22 17.5158 22 12C22 6.48421 17.5158 2 12 2ZM12 20.3789C7.36842 20.3789 3.62105 16.6316 3.62105 12C3.62105 7.36842 7.36842 3.62105 12 3.62105C16.6316 3.62105 20.3789 7.36842 20.3789 12C20.3789 16.6316 16.6316 20.3789 12 20.3789Z" fill="#1B1B1B"/>
<path d="M14.4421 12C13.7683 12.5264 12.9263 12.8421 12 12.8421C11.0736 12.8421 10.2316 12.5473 9.55781 12.021C8.63146 12.4842 7.95785 13.3894 7.81044 14.4632L7.59986 16C7.53671 16.4 7.85244 16.7789 8.27362 16.7789H15.7262C16.1263 16.7789 16.442 16.421 16.4 16L16.1894 14.4632C16.0421 13.3684 15.3685 12.4842 14.4422 12L14.4421 12Z" fill="#1B1B1B"/>
<path d="M12.0002 11.3899C13.4317 11.3899 14.6108 10.211 14.6108 8.77933C14.6108 7.34782 13.4319 6.16876 12.0002 6.16876C10.5687 6.16876 9.38965 7.34767 9.38965 8.77933C9.38965 10.2108 10.5687 11.3899 12.0002 11.3899Z" fill="#1B1B1B"/>
</g>
<defs>
<clipPath id="clip0_4669_42671">
<rect width="24" height="24" fill="white"/>
</clipPath>
</defs>
</svg>
