<svg width="17" height="18" viewBox="0 0 17 18" fill="none" xmlns="http://www.w3.org/2000/svg">
<path d="M1.9953 0.0909119H15.0054C15.4983 0.0909119 15.9711 0.298965 16.3196 0.669302C16.6682 1.03964 16.864 1.54192 16.864 2.06566V15.8889C16.864 16.4126 16.6682 16.9149 16.3196 17.2852C15.9711 17.6556 15.4983 17.8636 15.0054 17.8636H1.9953C1.50238 17.8636 1.02964 17.6556 0.681086 17.2852C0.332533 16.9149 0.136719 16.4126 0.136719 15.8889V2.06566C0.136719 1.54192 0.332533 1.03964 0.681086 0.669302C1.02964 0.298965 1.50238 0.0909119 1.9953 0.0909119V0.0909119ZM9.42965 9.96465V4.04041H7.57106V9.96465H9.42965ZM9.42965 13.9141V11.9394H7.57106V13.9141H9.42965Z" fill="#2C608A"/>
</svg>
