<svg width="45" height="45" viewBox="0 0 45 45" fill="none" xmlns="http://www.w3.org/2000/svg">
<circle cx="22.5" cy="22.5" r="22.5" fill="#FAF3D1"/>
<g clip-path="url(#clip0_68003_15837)">
<path d="M16.9414 30.4404C17.2448 30.1154 17.7433 30.1156 18.0684 30.4189C18.3713 30.7224 18.3716 31.2426 18.0684 31.5459L16.5078 33.1054C16.2044 33.4088 15.6843 33.4088 15.3809 33.1054C15.0775 32.802 15.0775 32.2819 15.3809 31.9785L16.9414 30.4404ZM14.9258 28.4453C15.2292 28.1419 15.7493 28.1419 16.0527 28.4453C16.3778 28.7487 16.3779 29.2474 16.0527 29.5507L13.582 32.0644C13.2786 32.3676 12.7584 32.3677 12.4551 32.0644C12.1519 31.7611 12.1519 31.2409 12.4551 30.9375L14.9258 28.4453ZM31.0928 12.7558C31.2878 12.7559 31.4395 12.8428 31.5479 12.9511C31.6562 13.0812 31.7431 13.2329 31.7432 13.4062C31.8299 14.9882 31.0281 20.2118 27.8857 23.9609L28.1885 24.8056C28.7519 26.3226 28.2969 28.035 27.0615 29.0752L24.2451 31.4804C23.855 31.8056 23.2261 31.6536 23.0527 31.1552L22.1211 28.5761C21.1675 29.1395 20.3652 29.53 19.8018 29.79C19.325 30.0067 18.7833 29.8985 18.4365 29.5517L14.9688 26.0625C14.6006 25.6941 14.4923 25.1523 14.709 24.6972C14.969 24.1337 15.3595 23.3323 15.9229 22.3789L13.3438 21.4248C12.8455 21.2514 12.6721 20.6234 13.0186 20.2334L15.4238 17.3945C16.464 16.1592 18.1764 15.7041 19.6934 16.2675L20.5606 16.5918C24.288 13.4497 29.5108 12.6692 31.0928 12.7558ZM12.9531 26.4531C13.2564 26.1498 13.7767 26.15 14.0801 26.4531C14.3835 26.7565 14.3835 27.2767 14.0801 27.58L12.5205 29.1406C12.2172 29.4439 11.697 29.4438 11.3936 29.1406C11.0902 28.8372 11.0902 28.317 11.3936 28.0136L12.9531 26.4531ZM26.2598 18.2392C25.4147 17.4158 24.0716 17.4159 23.2481 18.2392C22.4245 19.0844 22.4245 20.4284 23.2481 21.2519C24.0932 22.075 25.4363 22.0751 26.2598 21.2519C27.0833 20.4284 27.0833 19.0844 26.2598 18.2392Z" fill="#DE632E"/>
</g>
<defs>
<clipPath id="clip0_68003_15837">
<rect width="26" height="26" fill="white" transform="translate(9 9.5)"/>
</clipPath>
</defs>
</svg>
