<svg width="45" height="45" viewBox="0 0 45 45" fill="none" xmlns="http://www.w3.org/2000/svg">
<circle cx="22.5" cy="22.5" r="22.5" fill="#D8EFD2"/>
<path fill-rule="evenodd" clip-rule="evenodd" d="M25.1409 14.3225C25.5668 14.4928 25.9928 14.6632 26.4185 14.8336L28.4629 13.3003C28.8889 13.0448 29.4 13.13 29.6554 13.3855L31.5295 15.2596C31.8702 15.6003 31.8702 16.1114 31.6147 16.452L30.1666 18.5817C30.337 19.0076 30.5073 19.4335 30.6777 19.8593L33.2333 20.2853C33.6592 20.2853 34 20.7112 34 21.1372V23.7779C34 24.2038 33.6592 24.6298 33.2333 24.715L30.6777 25.1409C30.5073 25.5669 30.3369 25.9928 30.1666 26.4186L31.6999 28.463C31.9554 28.8889 31.8702 29.4001 31.6147 29.6555L29.7406 31.5295C29.3999 31.8703 28.8887 31.8703 28.5481 31.6147L26.4185 30.1666C25.9925 30.337 25.5666 30.5074 25.1408 30.6777L24.7149 33.2333C24.6297 33.6592 24.2037 34 23.7778 34H21.137C20.7111 34 20.2851 33.6592 20.2851 33.2333L19.8592 30.6777C19.4332 30.5074 19.0073 30.337 18.5815 30.1666L16.4519 31.6147C16.1111 31.8703 15.6 31.8703 15.2594 31.5295L13.3853 29.6555C13.1298 29.3999 13.0446 28.8888 13.3002 28.548L14.8334 26.4184C14.5778 25.9924 14.4075 25.5665 14.3223 25.1407L11.7667 24.7148C11.3408 24.6296 11 24.2036 11 23.7777V21.137C11 20.711 11.3408 20.2851 11.7667 20.2851L14.3223 19.8591C14.4075 19.348 14.5779 19.0072 14.8334 18.5814L13.3002 16.4518C13.0446 16.1111 13.1298 15.5999 13.4705 15.2593L15.3446 13.3853C15.6001 13.1298 16.1113 13.0446 16.4521 13.3001L18.5817 14.8334C19.0076 14.663 19.4336 14.4926 19.8594 14.3223L20.2853 11.7667C20.2853 11.3408 20.7113 11 21.1372 11H23.778C24.2039 11 24.6299 11.3408 24.715 11.7667L25.141 14.3223L25.1409 14.3225ZM22.5001 17.6447C19.8593 17.6447 17.6447 19.8595 17.6447 22.5001C17.6447 25.1407 19.8595 27.3555 22.5001 27.3555C25.1407 27.3555 27.3555 25.1407 27.3555 22.5001C27.3555 19.8595 25.1407 17.6447 22.5001 17.6447Z" fill="#209F00"/>
</svg>
