<svg width="24" height="25" viewBox="0 0 24 25" fill="none" xmlns="http://www.w3.org/2000/svg">
<path d="M9.5 3.01758C11.2239 3.01758 12.8772 3.70625 14.0962 4.93209C15.3152 6.15794 16 7.82054 16 9.55414C16 11.1732 15.41 12.6615 14.44 13.8079L14.71 14.0795H15.5L20.5 19.1076L19 20.616L14 15.5879V14.7935L13.73 14.5219C12.59 15.4974 11.11 16.0907 9.5 16.0907C7.77609 16.0907 6.12279 15.402 4.90381 14.1762C3.68482 12.9503 3 11.2877 3 9.55414C3 7.82054 3.68482 6.15794 4.90381 4.93209C6.12279 3.70625 7.77609 3.01758 9.5 3.01758V3.01758ZM9.5 5.02883C7 5.02883 5 7.04008 5 9.55414C5 12.0682 7 14.0795 9.5 14.0795C12 14.0795 14 12.0682 14 9.55414C14 7.04008 12 5.02883 9.5 5.02883Z" fill="url(#paint0_linear_60730_38558)"/>
<defs>
<linearGradient id="paint0_linear_60730_38558" x1="3.38043" y1="11.8168" x2="19.9928" y2="11.8168" gradientUnits="userSpaceOnUse">
<stop offset="0.00509171" stop-color="#0011D1"/>
<stop offset="1" stop-color="#008FD6"/>
</linearGradient>
</defs>
</svg>
