<svg width="44" height="41" viewBox="0 0 44 41" fill="none" xmlns="http://www.w3.org/2000/svg">
<path d="M41.9005 20.1078L43.8625 13.7706C44.0821 13.0599 44.0183 12.2888 43.6851 11.6264C43.3519 10.9641 42.7765 10.4648 42.0854 10.2381L38.477 9.06523L36.2894 1.96315C36.0688 1.25281 35.583 0.66147 34.9386 0.319004C34.2941 -0.0234612 33.5438 -0.0890522 32.8523 0.136637L22 3.67841L11.1477 0.132001C10.4562 -0.0936881 9.70588 -0.0280972 9.06145 0.314368C8.41702 0.656834 7.93118 1.24817 7.71064 1.95852L5.51401 9.0606L1.90558 10.2335C1.21444 10.4601 0.639081 10.9595 0.305872 11.6218C-0.0273378 12.2841 -0.091156 13.0553 0.128433 13.766L2.09954 20.1078L0.141965 26.4449C-0.0776244 27.1556 -0.0138062 27.9268 0.319403 28.5891C0.652613 29.2514 1.22797 29.7508 1.91911 29.9774L5.52754 31.1503L7.72417 38.2524C7.83234 38.6048 8.00721 38.9318 8.23874 39.2145C8.47026 39.4973 8.75387 39.7302 9.07326 39.8999C9.39265 40.0697 9.74153 40.1729 10.0999 40.2036C10.4582 40.2343 10.8189 40.1919 11.1612 40.0789L22 36.5371L32.8523 40.0835C33.5438 40.3092 34.2941 40.2436 34.9386 39.9012C35.583 39.5587 36.0688 38.9674 36.2894 38.257L38.486 31.1549L42.0944 29.9821C42.7856 29.7554 43.3609 29.2561 43.6941 28.5937C44.0273 27.9314 44.0912 27.1602 43.8716 26.4496L41.9005 20.1078ZM41.3953 12.4447C41.5164 12.4852 41.6171 12.5731 41.6754 12.6895C41.7337 12.8058 41.7449 12.9411 41.7065 13.0659L40.7142 16.2786L39.3204 11.7633L41.3953 12.4447ZM9.86216 2.66316C9.90147 2.53868 9.98706 2.4352 10.1003 2.37529C10.2135 2.31537 10.3451 2.30387 10.4666 2.34329L18.2788 4.89299L8.14816 8.20297L9.86216 2.66316ZM2.60471 27.7708C2.48359 27.7304 2.38292 27.6424 2.32462 27.5261C2.26633 27.4097 2.25514 27.2744 2.29349 27.1496L3.28581 23.937L4.67956 28.4522L2.60471 27.7708ZM34.1424 37.5524C34.103 37.6769 34.0175 37.7803 33.9042 37.8402C33.791 37.9002 33.6594 37.9117 33.5379 37.8722L25.7257 35.3225L35.8564 32.0126L34.1424 37.5524ZM41.3953 27.7708L10.4666 37.8722C10.3451 37.9117 10.2135 37.9002 10.1003 37.8402C9.98706 37.7803 9.90147 37.6769 9.86216 37.5524L2.28898 13.0659C2.25082 12.9405 2.26264 12.8047 2.32183 12.6882C2.38103 12.5718 2.48276 12.4842 2.60471 12.4447L33.5379 2.33865C33.5846 2.32344 33.6333 2.31563 33.6823 2.31547C33.7592 2.31582 33.8349 2.33489 33.9033 2.3711C33.9601 2.40094 34.0105 2.44215 34.0515 2.4923C34.0926 2.54246 34.1235 2.60055 34.1424 2.66316L41.711 27.1496C41.7492 27.275 41.7374 27.4108 41.6782 27.5273C41.619 27.6438 41.5172 27.7313 41.3953 27.7708ZM25.6535 13.5481C26.0477 17.4297 24.9462 21.3155 22.5852 24.3722C20.2242 27.4288 16.7917 29.4128 13.024 29.8986H12.8842C12.5852 29.9171 12.2912 29.8127 12.067 29.6083C11.8429 29.404 11.7069 29.1166 11.6889 28.8092C11.671 28.5018 11.7726 28.1997 11.9714 27.9693C12.1701 27.7389 12.4498 27.5992 12.7489 27.5807C15.9166 27.1702 18.8035 25.5058 20.7957 22.9415C22.7878 20.3771 23.728 17.1152 23.4163 13.8494L21.7609 16.0282C21.6697 16.1482 21.5564 16.2485 21.4275 16.3234C21.2986 16.3983 21.1565 16.4464 21.0095 16.4649C20.7126 16.5023 20.4134 16.4169 20.1777 16.2276C19.9421 16.0382 19.7893 15.7604 19.7529 15.4553C19.7165 15.1501 19.7996 14.8426 19.9838 14.6004L23.3171 10.2056C23.4083 10.0857 23.5216 9.98538 23.6505 9.91043C23.7794 9.83549 23.9215 9.78739 24.0685 9.76888C24.2155 9.75037 24.3646 9.76181 24.5074 9.80255C24.6501 9.84329 24.7836 9.91252 24.9003 10.0063L29.1763 13.4322C29.2929 13.5259 29.3905 13.6424 29.4634 13.7749C29.5363 13.9074 29.5831 14.0534 29.6011 14.2045C29.6191 14.3556 29.608 14.5088 29.5684 14.6555C29.5288 14.8022 29.4614 14.9394 29.3702 15.0594C29.279 15.1793 29.1657 15.2796 29.0368 15.3545C28.9078 15.4294 28.7658 15.4775 28.6188 15.496C28.4718 15.5145 28.3226 15.5031 28.1799 15.4624C28.0372 15.4217 27.9037 15.3524 27.787 15.2587L25.6535 13.5481ZM11.8107 21.6839L12.5279 19.774L10.6695 19.0415C10.5303 18.9873 10.4029 18.9055 10.2945 18.8007C10.186 18.6959 10.0988 18.5702 10.0376 18.4307C9.97646 18.2912 9.94263 18.1407 9.93807 17.9878C9.93351 17.8349 9.95829 17.6826 10.011 17.5395C10.0637 17.3965 10.1433 17.2655 10.2453 17.154C10.3473 17.0426 10.4696 16.9529 10.6053 16.89C10.741 16.8272 10.8875 16.7924 11.0362 16.7877C11.185 16.783 11.3332 16.8085 11.4724 16.8627L13.3308 17.5951L14.0434 15.6852C14.1676 15.4232 14.3833 15.2189 14.6475 15.1131C14.9116 15.0072 15.2049 15.0075 15.4689 15.1139C15.7329 15.2203 15.9481 15.425 16.0718 15.6873C16.1955 15.9495 16.2185 16.25 16.1363 16.5289L15.4372 18.4389L17.3 19.1806C17.4383 19.2351 17.5648 19.317 17.6723 19.4218C17.7798 19.5265 17.8662 19.652 17.9265 19.791C17.9868 19.9301 18.0199 20.08 18.0239 20.2321C18.0278 20.3843 18.0026 20.5358 17.9495 20.678C17.8965 20.8201 17.8168 20.9501 17.7149 21.0606C17.613 21.1711 17.4909 21.2599 17.3556 21.3219C17.2203 21.3839 17.0745 21.4178 16.9264 21.4219C16.7783 21.426 16.631 21.4 16.4926 21.3455L14.6343 20.6131L13.9216 22.523C13.8686 22.6652 13.7889 22.7952 13.687 22.9057C13.5851 23.0162 13.463 23.1049 13.3277 23.1669C13.1924 23.2289 13.0466 23.2629 12.8985 23.267C12.7504 23.271 12.603 23.2451 12.4647 23.1906C12.3264 23.1361 12.1999 23.0541 12.0924 22.9494C11.9849 22.8447 11.8986 22.7192 11.8382 22.5802C11.7779 22.4411 11.7449 22.2912 11.7409 22.139C11.737 21.9869 11.7622 21.8354 11.8152 21.6932L11.8107 21.6839ZM34.846 24.7065C34.793 24.8487 34.7133 24.9787 34.6114 25.0892C34.5095 25.1997 34.3874 25.2885 34.2521 25.3505C34.1168 25.4125 33.971 25.4465 33.8229 25.4505C33.6748 25.4546 33.5274 25.4286 33.3891 25.3741L31.5308 24.6416L30.8136 26.5516C30.7065 26.8386 30.4929 27.0703 30.2197 27.1955C29.9464 27.3206 29.636 27.3292 29.3567 27.2191C29.0774 27.1091 28.852 26.8895 28.7302 26.6087C28.6084 26.3279 28.6001 26.0088 28.7072 25.7217L29.4198 23.8164L27.5615 23.0747C27.4232 23.0202 27.2967 22.9383 27.1892 22.8335C27.0817 22.7288 26.9953 22.6033 26.935 22.4643C26.8747 22.3252 26.8416 22.1753 26.8377 22.0231C26.8337 21.871 26.859 21.7195 26.912 21.5773C27.019 21.2902 27.2327 21.0586 27.5059 20.9334C27.6412 20.8714 27.787 20.8374 27.9351 20.8334C28.0832 20.8293 28.2306 20.8553 28.3689 20.9098L30.2272 21.6422L30.9399 19.7323C30.9935 19.5898 31.0739 19.4596 31.1764 19.3491C31.279 19.2385 31.4017 19.1499 31.5377 19.0881C31.6736 19.0263 31.82 18.9927 31.9686 18.989C32.1171 18.9854 32.2649 19.0119 32.4035 19.067C32.5421 19.1221 32.6688 19.2047 32.7764 19.3101C32.8839 19.4156 32.9702 19.5417 33.0303 19.6814C33.0904 19.8211 33.1232 19.9716 33.1267 20.1243C33.1302 20.277 33.1044 20.4289 33.0508 20.5713L32.3381 22.4813L34.1784 23.2091C34.3184 23.2618 34.4468 23.3424 34.5562 23.4463C34.6657 23.5503 34.754 23.6755 34.8161 23.8147C34.8781 23.954 34.9127 24.1045 34.9179 24.2575C34.923 24.4106 34.8986 24.5632 34.846 24.7065Z" fill="black"/>
</svg>
