<svg width="46" height="42" viewBox="0 0 46 42" fill="none" xmlns="http://www.w3.org/2000/svg">
<rect x="10.2885" y="1.57302" width="35.8651" height="28.4304" rx="2.75" transform="rotate(17.8525 10.2885 1.57302)" fill="white" stroke="#538200" stroke-width="2.5"/>
<rect x="1.5688" y="12.3862" width="35.8651" height="28.4304" rx="2.75" transform="rotate(-17.5545 1.5688 12.3862)" fill="white" stroke="#538200" stroke-width="2.5"/>
<path fill-rule="evenodd" clip-rule="evenodd" d="M31.3379 15.9336C31.3379 16.2198 31.1931 16.5061 31.0483 16.6492L22.7951 24.8069L21.2024 26.3812C21.0576 26.5244 20.768 26.6675 20.4784 26.6675C20.1888 26.6675 19.8992 26.5244 19.7544 26.3812L18.1617 24.8069L14.1075 20.7996C13.9627 20.6565 13.8179 20.3703 13.8179 20.084C13.8179 19.7978 13.9627 19.5116 14.1075 19.3684L15.7002 17.7941C15.845 17.651 16.1346 17.5079 16.4242 17.5079C16.7137 17.5079 17.0033 17.651 17.1481 17.7941L20.4784 21.0859L27.8629 13.7868C28.0077 13.6437 28.2973 13.5006 28.5868 13.5006C28.8764 13.5006 29.166 13.6437 29.3108 13.7868L30.9035 15.3611C31.1931 15.5042 31.3379 15.6474 31.3379 15.9336Z" fill="#538200"/>
<mask id="mask0" style="mask-type:alpha" maskUnits="userSpaceOnUse" x="13" y="13" width="19" height="14">
<path fill-rule="evenodd" clip-rule="evenodd" d="M31.3379 15.9336C31.3379 16.2198 31.1931 16.5061 31.0483 16.6492L22.7951 24.8069L21.2024 26.3812C21.0576 26.5244 20.768 26.6675 20.4784 26.6675C20.1888 26.6675 19.8992 26.5244 19.7544 26.3812L18.1617 24.8069L14.1075 20.7996C13.9627 20.6565 13.8179 20.3703 13.8179 20.084C13.8179 19.7978 13.9627 19.5116 14.1075 19.3684L15.7002 17.7941C15.845 17.651 16.1346 17.5079 16.4242 17.5079C16.7137 17.5079 17.0033 17.651 17.1481 17.7941L20.4784 21.0859L27.8629 13.7868C28.0077 13.6437 28.2973 13.5006 28.5868 13.5006C28.8764 13.5006 29.166 13.6437 29.3108 13.7868L30.9035 15.3611C31.1931 15.5042 31.3379 15.6474 31.3379 15.9336Z" fill="white"/>
</mask>
<g mask="url(#mask0)">
</g>
</svg>
