<svg width="46" height="42" viewBox="0 0 46 42" fill="none" xmlns="http://www.w3.org/2000/svg">
<rect x="10.289" y="1.57302" width="35.8651" height="28.4304" rx="2.75" transform="rotate(17.8525 10.289 1.57302)" fill="white" stroke="black" stroke-width="2.5"/>
<rect x="1.5688" y="12.3862" width="35.8651" height="28.4304" rx="2.75" transform="rotate(-17.5545 1.5688 12.3862)" fill="white" stroke="black" stroke-width="2.5"/>
<path d="M27.2131 15.175C26.7211 14.8479 26.0425 14.9624 25.7032 15.4367C25.3639 15.9109 25.4826 16.565 25.9746 16.8921C27.4337 17.8733 28.2989 19.4759 28.2989 21.1767C28.2989 24.0712 25.8559 26.4261 22.853 26.4261C19.85 26.4261 17.407 24.0876 17.407 21.193C17.407 19.4923 18.2722 17.8897 19.7313 16.9085C20.2233 16.5814 20.342 15.9273 20.0027 15.453C19.6634 14.9788 18.9848 14.8643 18.4928 15.1914C16.4569 16.5487 15.2354 18.8054 15.2354 21.193C15.2354 25.2486 18.6455 28.5357 22.853 28.5357C27.0604 28.5357 30.4706 25.2486 30.4706 21.193C30.4706 18.8054 29.249 16.5487 27.2131 15.175Z" fill="black"/>
<path d="M22.8529 20.9149C23.4467 20.9149 23.9387 20.4407 23.9387 19.8683V14.0465C23.9387 13.4742 23.4467 12.9999 22.8529 12.9999C22.2591 12.9999 21.7671 13.4742 21.7671 14.0465V19.8519C21.7671 20.4407 22.2591 20.9149 22.8529 20.9149Z" fill="black"/>
</svg>
