<svg width="54" height="49" viewBox="0 0 54 49" fill="none" xmlns="http://www.w3.org/2000/svg">
<rect x="11.0566" width="44.7351" height="36.0659" rx="4" transform="rotate(17.8525 11.0566 0)" fill="#538200" fill-opacity="0.4"/>
<rect x="1.88256" y="14.4704" width="41.7351" height="33.0659" rx="2.5" transform="rotate(-17.5545 1.88256 14.4704)" fill="#538200" stroke="#538200" stroke-width="3"/>
<path fill-rule="evenodd" clip-rule="evenodd" d="M36.7886 18.0123C36.8406 18.342 36.7257 18.698 36.585 18.8891L28.5597 29.7837L27.011 31.8862C26.8702 32.0773 26.5627 32.2947 26.2291 32.3473C25.8955 32.3999 25.536 32.2876 25.3433 32.149L23.2229 30.6249L17.8257 26.7452C17.6329 26.6067 17.4142 26.3032 17.3622 25.9736C17.3102 25.6439 17.425 25.2879 17.5658 25.0967L19.1146 22.9943C19.2554 22.8032 19.5629 22.5857 19.8965 22.5332C20.23 22.4806 20.5896 22.5929 20.7823 22.7314L25.2158 25.9183L32.3962 16.1705C32.537 15.9794 32.8446 15.7619 33.1781 15.7094C33.5117 15.6568 33.8712 15.7691 34.064 15.9076L36.1843 17.4318C36.5439 17.544 36.7366 17.6826 36.7886 18.0123Z" fill="white"/>
<mask id="mask0" style="mask-type:alpha" maskUnits="userSpaceOnUse" x="17" y="15" width="20" height="18">
<path fill-rule="evenodd" clip-rule="evenodd" d="M36.7886 18.0123C36.8406 18.342 36.7257 18.698 36.585 18.8891L28.5597 29.7837L27.011 31.8862C26.8702 32.0773 26.5627 32.2947 26.2291 32.3473C25.8955 32.3999 25.536 32.2876 25.3433 32.149L23.2229 30.6249L17.8257 26.7452C17.6329 26.6067 17.4142 26.3032 17.3622 25.9736C17.3102 25.6439 17.425 25.2879 17.5658 25.0967L19.1146 22.9943C19.2554 22.8032 19.5629 22.5857 19.8965 22.5332C20.23 22.4806 20.5896 22.5929 20.7823 22.7314L25.2158 25.9183L32.3962 16.1705C32.537 15.9794 32.8446 15.7619 33.1781 15.7094C33.5117 15.6568 33.8712 15.7691 34.064 15.9076L36.1843 17.4318C36.5439 17.544 36.7366 17.6826 36.7886 18.0123Z" fill="white"/>
</mask>
<g mask="url(#mask0)">
</g>
</svg>
