<svg width="54" height="49" viewBox="0 0 54 49" fill="none" xmlns="http://www.w3.org/2000/svg">
<rect x="12.0988" y="1.88762" width="42.0373" height="33.3096" rx="2.5" transform="rotate(17.8525 12.0988 1.88762)" fill="white" stroke="black" stroke-width="3"/>
<rect x="1.88256" y="14.5617" width="42.0373" height="33.3096" rx="2.5" transform="rotate(-17.5545 1.88256 14.5617)" fill="white" stroke="black" stroke-width="3"/>
<path d="M37.5051 21.2687L35.2065 21.0242C35.182 20.9263 35.1331 20.853 35.0842 20.7552L36.5514 18.97C37.1138 18.2853 37.0405 17.3316 36.4291 16.6958L34.7907 15.0574C34.1794 14.4461 33.2012 14.3972 32.5165 14.9352L30.7314 16.4024C30.6336 16.3535 30.5602 16.329 30.4624 16.2801L30.2179 13.9815C30.1201 13.1256 29.4109 12.4653 28.5306 12.4653H26.2075C25.3271 12.4653 24.618 13.1256 24.5202 13.9815L24.2756 16.2801C24.1778 16.3046 24.1044 16.3535 24.0066 16.4024L22.2215 14.9352C21.5368 14.3727 20.5831 14.4461 19.9473 15.0574L18.3089 16.6958C17.6976 17.3072 17.6486 18.2853 18.1866 18.97L19.6539 20.7552C19.6049 20.853 19.5805 20.9263 19.5316 21.0242L17.2329 21.2687C16.377 21.3665 15.7168 22.0757 15.7168 22.956V25.2791C15.7168 26.1594 16.377 26.8686 17.2329 26.9664L19.5316 27.211C19.556 27.3088 19.6049 27.3821 19.6539 27.4799L18.1866 29.2651C17.6242 29.9498 17.6976 30.9035 18.3089 31.5393L19.9473 33.1777C20.5586 33.789 21.5368 33.8379 22.2215 33.2999L24.0066 31.8327C24.1044 31.8816 24.1778 31.9061 24.2756 31.955L24.5202 34.2536C24.618 35.1095 25.3271 35.7698 26.2075 35.7698H28.5306C29.4109 35.7698 30.1201 35.1095 30.2179 34.2536L30.4624 31.955C30.5602 31.9305 30.6336 31.8816 30.7314 31.8327L32.5165 33.2999C33.2012 33.8624 34.1549 33.789 34.7907 33.1777L36.4291 31.5393C37.0405 30.9279 37.0894 29.9498 36.5514 29.2651L35.0842 27.4799C35.1331 27.3821 35.1575 27.3088 35.2065 27.211L37.5051 26.9664C38.361 26.8686 39.0212 26.1594 39.0212 25.2791V22.956C39.0212 22.0757 38.361 21.3665 37.5051 21.2687ZM34.644 25.5236C34.2283 25.5726 33.8615 25.866 33.7148 26.2573C33.617 26.5262 33.5191 26.7708 33.3969 27.0398C33.2012 27.431 33.2502 27.8957 33.5191 28.2136L35.2309 30.2921L33.617 31.9305L31.5384 30.2188C31.196 29.9498 30.7314 29.9009 30.3646 30.0965C30.0956 30.2188 29.8511 30.341 29.5821 30.4144C29.1664 30.5611 28.8974 30.9279 28.8485 31.3436L28.5795 34.0091H26.2808L26.0118 31.3192C25.9629 30.9035 25.6695 30.5367 25.2782 30.3899C24.9848 30.341 24.7158 30.2188 24.4712 30.0965C24.3245 30.0231 24.1533 29.9742 23.9822 29.9742C23.7376 29.9742 23.4931 30.0476 23.2975 30.2188L21.2189 31.9305L19.5805 30.3166L21.2923 28.238C21.5612 27.8957 21.6102 27.4555 21.4145 27.0642C21.2923 26.7952 21.17 26.5507 21.0966 26.2817C20.9499 25.866 20.5831 25.597 20.1674 25.5481L17.4775 25.2547V22.956L20.1674 22.687C20.5831 22.6381 20.9499 22.3447 21.0966 21.9534C21.1944 21.6844 21.2923 21.4399 21.4145 21.1709C21.6102 20.7796 21.5612 20.315 21.2923 19.9971L19.5805 17.9185L21.1944 16.2801L23.273 17.9919C23.6154 18.2609 24.0555 18.3098 24.4468 18.1142C24.7158 17.9919 24.9603 17.8696 25.2293 17.7963C25.645 17.6495 25.914 17.2827 25.9629 16.867L26.2319 14.2015H28.5306L28.7996 16.8915C28.8485 17.3072 29.1419 17.674 29.5332 17.8207C29.8022 17.9185 30.0467 18.0163 30.3157 18.1386C30.707 18.3342 31.1716 18.2853 31.4895 18.0163L33.568 16.3046L35.2065 17.9185L33.4947 19.9971C33.2257 20.3394 33.1768 20.7796 33.3724 21.1709C33.4947 21.4399 33.617 21.6844 33.6903 21.9534C33.837 22.3447 34.2038 22.6381 34.6196 22.687L37.285 22.956V25.2547L34.644 25.5236Z" fill="black"/>
<path d="M29.5328 21.5867L26.5739 24.9124L25.1311 23.274C24.8132 22.9317 24.2752 22.8828 23.9329 23.2007C23.5905 23.5186 23.5416 24.0565 23.8595 24.3989L25.9381 26.7465C26.1093 26.9176 26.3293 27.0399 26.5739 27.0399C26.8184 27.0399 27.0385 26.9421 27.2097 26.7465L30.8044 22.6871C31.1223 22.3448 31.0734 21.8068 30.731 21.4889C30.3642 21.1955 29.8262 21.2199 29.5328 21.5867Z" fill="black"/>
</svg>
