<svg width="40" height="40" viewBox="0 0 40 40" fill="none" xmlns="http://www.w3.org/2000/svg">
<circle cx="20" cy="20" r="20" fill="#4B7600"/>
<path fill-rule="evenodd" clip-rule="evenodd" d="M28.8301 16.1165C28.8362 16.4093 28.7003 16.707 28.5614 16.8583L19.1108 27.1454C18.9719 27.2967 18.6908 27.4529 18.4067 27.4627C18.1226 27.4725 17.8354 27.3358 17.6903 27.1943L12.03 21.6756C11.8848 21.5341 11.7366 21.2462 11.7305 20.9534C11.7243 20.6606 11.8602 20.363 11.9992 20.2117L13.5279 18.5476C13.6669 18.3963 13.948 18.2401 14.2321 18.2303C14.5162 18.2206 14.8034 18.3572 14.9485 18.4987L18.2866 21.7533L25.3745 14.038C25.5135 13.8867 25.7945 13.7305 26.0787 13.7207C26.3628 13.711 26.65 13.8476 26.7951 13.9891L28.3916 15.5456C28.6788 15.6823 28.8239 15.8238 28.8301 16.1165Z" fill="white"/>
<path fill-rule="evenodd" clip-rule="evenodd" d="M28.8301 16.1165C28.8362 16.4093 28.7003 16.707 28.5614 16.8583L19.1108 27.1454C18.9719 27.2967 18.6908 27.4529 18.4067 27.4627C18.1226 27.4725 17.8354 27.3358 17.6903 27.1943L12.03 21.6756C11.8848 21.5341 11.7366 21.2462 11.7305 20.9534C11.7243 20.6606 11.8602 20.363 11.9992 20.2117L13.5279 18.5476C13.6669 18.3963 13.948 18.2401 14.2321 18.2303C14.5162 18.2206 14.8034 18.3572 14.9485 18.4987L18.2866 21.7533L25.3745 14.038C25.5135 13.8867 25.7945 13.7305 26.0787 13.7207C26.3628 13.711 26.65 13.8476 26.7951 13.9891L28.3916 15.5456C28.6788 15.6823 28.8239 15.8238 28.8301 16.1165Z" fill="white"/>
</svg>
