<svg width="41" height="41" viewBox="0 0 41 41" fill="none" xmlns="http://www.w3.org/2000/svg">
<circle cx="20.5" cy="20.5" r="18" fill="#243413" stroke="#243413" stroke-width="5"/>
<path d="M20.5433 15.1434C18.064 15.1434 15.6641 17.0669 15.6641 19.7876C15.6641 23.1166 18.0138 23.9633 18.2816 26.1217L22.805 26.1217C23.0727 23.9633 25.4225 23.1166 25.4225 19.7876C25.4225 17.0669 23.0226 15.1434 20.5433 15.1434Z" fill="white"/>
<mask id="path-3-outside-1_12623_262673" maskUnits="userSpaceOnUse" x="9.65625" y="8.83997" width="22" height="13" fill="black">
<rect fill="white" x="9.65625" y="8.83997" width="22" height="13"/>
<path d="M20.0566 10.3087C20.0566 10.0498 20.267 9.83997 20.5266 9.83997C20.7862 9.83997 20.9966 10.0498 20.9966 10.3087L20.9966 12.1837C20.9966 12.4426 20.7862 12.6524 20.5266 12.6524C20.267 12.6524 20.0566 12.4426 20.0566 12.1837L20.0566 10.3087Z"/>
<path d="M13.5498 12.7256C13.6416 12.6341 13.76 12.5865 13.8803 12.5865C14.0005 12.5865 14.119 12.6341 14.2108 12.7257L15.54 14.0513C15.7236 14.2344 15.7236 14.5274 15.54 14.7105C15.3565 14.8935 15.0626 14.8935 14.8791 14.7105L13.5498 13.3848C13.3663 13.2018 13.3663 12.9087 13.5498 12.7256Z"/>
<path d="M26.8425 12.7256C26.9343 12.6341 27.0527 12.5865 27.173 12.5865C27.2933 12.5865 27.4116 12.6341 27.5034 12.7256C27.687 12.9087 27.687 13.2017 27.5035 13.3848L26.1742 14.7105C25.9907 14.8935 25.6968 14.8935 25.5132 14.7105C25.3297 14.5274 25.3297 14.2344 25.5132 14.0513L26.8425 12.7256Z"/>
<path d="M10.6562 19.6835C10.6562 19.4246 10.8667 19.2148 11.1263 19.2148L13.0063 19.2148C13.2659 19.2148 13.4764 19.4246 13.4764 19.6835C13.4764 19.9424 13.2659 20.1523 13.0063 20.1523L11.1263 20.1523C10.8667 20.1523 10.6562 19.9424 10.6562 19.6835Z"/>
<path d="M27.5769 19.6835C27.5769 19.4246 27.7873 19.2148 28.0469 19.2148L29.927 19.2148C30.1866 19.2148 30.397 19.4247 30.397 19.6835C30.397 19.9424 30.1866 20.1523 29.927 20.1523L28.0469 20.1523C27.7873 20.1523 27.5769 19.9424 27.5769 19.6835Z"/>
</mask>
<path d="M20.0566 10.3087C20.0566 10.0498 20.267 9.83997 20.5266 9.83997C20.7862 9.83997 20.9966 10.0498 20.9966 10.3087L20.9966 12.1837C20.9966 12.4426 20.7862 12.6524 20.5266 12.6524C20.267 12.6524 20.0566 12.4426 20.0566 12.1837L20.0566 10.3087Z" fill="white"/>
<path d="M13.5498 12.7256C13.6416 12.6341 13.76 12.5865 13.8803 12.5865C14.0005 12.5865 14.119 12.6341 14.2108 12.7257L15.54 14.0513C15.7236 14.2344 15.7236 14.5274 15.54 14.7105C15.3565 14.8935 15.0626 14.8935 14.8791 14.7105L13.5498 13.3848C13.3663 13.2018 13.3663 12.9087 13.5498 12.7256Z" fill="white"/>
<path d="M26.8425 12.7256C26.9343 12.6341 27.0527 12.5865 27.173 12.5865C27.2933 12.5865 27.4116 12.6341 27.5034 12.7256C27.687 12.9087 27.687 13.2017 27.5035 13.3848L26.1742 14.7105C25.9907 14.8935 25.6968 14.8935 25.5132 14.7105C25.3297 14.5274 25.3297 14.2344 25.5132 14.0513L26.8425 12.7256Z" fill="white"/>
<path d="M10.6562 19.6835C10.6562 19.4246 10.8667 19.2148 11.1263 19.2148L13.0063 19.2148C13.2659 19.2148 13.4764 19.4246 13.4764 19.6835C13.4764 19.9424 13.2659 20.1523 13.0063 20.1523L11.1263 20.1523C10.8667 20.1523 10.6562 19.9424 10.6562 19.6835Z" fill="white"/>
<path d="M27.5769 19.6835C27.5769 19.4246 27.7873 19.2148 28.0469 19.2148L29.927 19.2148C30.1866 19.2148 30.397 19.4247 30.397 19.6835C30.397 19.9424 30.1866 20.1523 29.927 20.1523L28.0469 20.1523C27.7873 20.1523 27.5769 19.9424 27.5769 19.6835Z" fill="white"/>
<path d="M20.0566 10.3087H19.0566V10.3087L20.0566 10.3087ZM20.0566 12.1837H21.0566V12.1837L20.0566 12.1837ZM20.5266 12.6524L20.5266 13.6524H20.5266V12.6524ZM20.9966 12.1837H21.9966V12.1837L20.9966 12.1837ZM20.9966 10.3087H19.9966V10.3087L20.9966 10.3087ZM13.8803 12.5865L13.8803 13.5865H13.8803L13.8803 12.5865ZM13.5498 12.7256L12.8437 12.0175L12.8436 12.0176L13.5498 12.7256ZM13.5498 13.3848L12.8436 14.0928L12.8437 14.0929L13.5498 13.3848ZM14.8791 14.7105L15.5853 14.0025L15.5852 14.0024L14.8791 14.7105ZM15.54 14.7105L14.8339 14.0024L14.8339 14.0024L15.54 14.7105ZM15.54 14.0513L14.8339 14.7594L14.8339 14.7594L15.54 14.0513ZM14.2108 12.7257L13.5045 13.4336L13.5046 13.4337L14.2108 12.7257ZM27.173 12.5865L27.1729 13.5865H27.173L27.173 12.5865ZM26.8425 12.7256L26.1363 12.0176L26.1363 12.0176L26.8425 12.7256ZM25.5132 14.0513L26.2194 14.7594L26.2194 14.7594L25.5132 14.0513ZM25.5132 14.7105L24.8071 15.4186L24.8071 15.4186L25.5132 14.7105ZM26.1742 14.7105L25.468 14.0024L25.468 14.0025L26.1742 14.7105ZM27.5035 13.3848L28.2096 14.0929L28.2097 14.0928L27.5035 13.3848ZM27.5034 12.7256L28.2096 12.0176L28.2095 12.0175L27.5034 12.7256ZM11.1263 19.2148L11.1263 20.2148H11.1263L11.1263 19.2148ZM11.1263 20.1523L11.1263 21.1523H11.1263L11.1263 20.1523ZM13.0063 20.1523L13.0063 21.1523H13.0064L13.0063 20.1523ZM13.4764 19.6835L14.4764 19.6835V19.6835L13.4764 19.6835ZM13.0063 19.2148L13.0063 18.2148H13.0063L13.0063 19.2148ZM28.0469 19.2148L28.0468 20.2148H28.0469L28.0469 19.2148ZM27.5769 19.6835L28.5769 19.6836V19.6835L27.5769 19.6835ZM28.0469 20.1523L28.0468 21.1523H28.0469L28.0469 20.1523ZM29.927 20.1523L29.927 21.1523H29.927L29.927 20.1523ZM30.397 19.6835H29.397V19.6836L30.397 19.6835ZM29.927 19.2148L29.927 18.2148H29.927L29.927 19.2148ZM20.5266 8.83997C19.7173 8.83997 19.0566 9.49496 19.0566 10.3087H21.0566C21.0566 10.6047 20.8167 10.84 20.5266 10.84V8.83997ZM19.0566 10.3087L19.0566 12.1837L21.0566 12.1837L21.0566 10.3087L19.0566 10.3087ZM19.0566 12.1837C19.0566 12.9974 19.7173 13.6524 20.5266 13.6524L20.5266 11.6524C20.8168 11.6524 21.0566 11.8877 21.0566 12.1837H19.0566ZM20.5266 13.6524C21.3359 13.6524 21.9966 12.9974 21.9966 12.1837H19.9966C19.9966 11.8877 20.2365 11.6524 20.5266 11.6524V13.6524ZM21.9966 12.1837L21.9966 10.3087L19.9966 10.3087L19.9966 12.1837L21.9966 12.1837ZM21.9966 10.3087C21.9966 9.49492 21.3359 8.83997 20.5266 8.83997V10.84C20.2365 10.84 19.9966 10.6047 19.9966 10.3087H21.9966ZM13.8803 11.5865C13.492 11.5865 13.1206 11.7414 12.8437 12.0175L14.2559 13.4338C14.1626 13.5268 14.028 13.5865 13.8803 13.5865L13.8803 11.5865ZM12.8436 12.0176C12.2683 12.5914 12.2683 13.5191 12.8436 14.0928L14.256 12.6768C14.4642 12.8844 14.4642 13.226 14.2559 13.4337L12.8436 12.0176ZM12.8437 14.0929L14.1729 15.4186L15.5852 14.0024L14.2559 12.6767L12.8437 14.0929ZM14.1728 15.4185C14.7467 15.9909 15.6724 15.9908 16.2462 15.4185L14.8339 14.0024C15.0406 13.7963 15.3784 13.7961 15.5853 14.0025L14.1728 15.4185ZM16.2461 15.4186C16.8216 14.8448 16.8215 13.917 16.2462 13.3432L14.8339 14.7594C14.6257 14.5517 14.6256 14.2101 14.8339 14.0024L16.2461 15.4186ZM16.2462 13.3432L14.9169 12.0176L13.5046 13.4337L14.8339 14.7594L16.2462 13.3432ZM14.917 12.0177C14.64 11.7414 14.2685 11.5865 13.8803 11.5865L13.8803 13.5865C13.7326 13.5865 13.598 13.5269 13.5045 13.4336L14.917 12.0177ZM27.173 11.5865C26.7848 11.5865 26.4133 11.7414 26.1363 12.0176L27.5486 13.4337C27.4552 13.5268 27.3207 13.5865 27.1729 13.5865L27.173 11.5865ZM26.1363 12.0176L24.8071 13.3432L26.2194 14.7594L27.5486 13.4337L26.1363 12.0176ZM24.8071 13.3432C24.2317 13.9171 24.2317 14.8448 24.8071 15.4186L26.2194 14.0024C26.4276 14.2101 26.4276 14.5517 26.2194 14.7594L24.8071 13.3432ZM24.8071 15.4186C25.3809 15.9908 26.3065 15.9909 26.8804 15.4185L25.468 14.0025C25.6748 13.7961 26.0127 13.7963 26.2193 14.0024L24.8071 15.4186ZM26.8803 15.4186L28.2096 14.0929L26.7973 12.6768L25.468 14.0024L26.8803 15.4186ZM28.2097 14.0928C28.7849 13.5191 28.785 12.5914 28.2096 12.0176L26.7973 13.4337C26.589 13.226 26.5891 12.8844 26.7972 12.6768L28.2097 14.0928ZM28.2095 12.0175C27.9327 11.7415 27.5613 11.5865 27.1729 11.5865L27.173 13.5865C27.0252 13.5865 26.8906 13.5268 26.7973 13.4338L28.2095 12.0175ZM11.1263 18.2148C10.317 18.2148 9.65625 18.8698 9.65625 19.6835H11.6562C11.6562 19.9795 11.4164 20.2148 11.1263 20.2148L11.1263 18.2148ZM9.65625 19.6835C9.65625 20.4973 10.317 21.1523 11.1263 21.1523L11.1263 19.1523C11.4164 19.1523 11.6562 19.3876 11.6562 19.6835H9.65625ZM11.1263 21.1523L13.0063 21.1523L13.0063 19.1523L11.1263 19.1523L11.1263 21.1523ZM13.0064 21.1523C13.8156 21.1523 14.4764 20.4973 14.4764 19.6835L12.4764 19.6835C12.4764 19.3876 12.7162 19.1523 13.0063 19.1523L13.0064 21.1523ZM14.4764 19.6835C14.4763 18.8698 13.8156 18.2148 13.0063 18.2148L13.0063 20.2148C12.7162 20.2148 12.4764 19.9795 12.4764 19.6835L14.4764 19.6835ZM13.0063 18.2148L11.1263 18.2148L11.1263 20.2148L13.0063 20.2148L13.0063 18.2148ZM28.047 18.2148C27.2376 18.2147 26.5769 18.8698 26.5769 19.6835L28.5769 19.6835C28.5769 19.9795 28.337 20.2149 28.0468 20.2148L28.047 18.2148ZM26.5769 19.6835C26.5769 20.4973 27.2376 21.1522 28.0468 21.1523L28.047 19.1523C28.337 19.1523 28.5769 19.3875 28.5769 19.6836L26.5769 19.6835ZM28.0469 21.1523L29.927 21.1523L29.927 19.1523L28.0469 19.1523L28.0469 21.1523ZM29.927 21.1523C30.7362 21.1522 31.397 20.4974 31.397 19.6835L29.397 19.6836C29.397 19.3875 29.6369 19.1523 29.9269 19.1523L29.927 21.1523ZM31.397 19.6835C31.397 18.8698 30.7363 18.2148 29.927 18.2148L29.927 20.2148C29.6368 20.2148 29.397 19.9795 29.397 19.6835H31.397ZM29.927 18.2148L28.0469 18.2148L28.0469 20.2148L29.927 20.2148L29.927 18.2148Z" fill="white" mask="url(#path-3-outside-1_12623_262673)"/>
<path d="M18.3203 27.9602C18.3203 27.3907 18.782 26.929 19.3515 26.929H21.7086C22.2782 26.929 22.7399 27.3907 22.7399 27.9602C22.7399 28.5297 22.2782 28.9914 21.7086 28.9914H19.3515C18.782 28.9914 18.3203 28.5297 18.3203 27.9602Z" fill="white"/>
<path d="M19.2031 30.4646C19.2031 30.0578 19.5329 29.728 19.9397 29.728H21.1183C21.5251 29.728 21.8549 30.0578 21.8549 30.4646C21.8549 30.8714 21.5251 31.2012 21.1183 31.2012H19.9397C19.5329 31.2012 19.2031 30.8714 19.2031 30.4646Z" fill="white"/>
<path d="M20.305 19.0219C20.8573 19.0219 21.305 18.5742 21.305 18.0219C21.305 17.4696 20.8573 17.0219 20.305 17.0219L20.305 19.0219ZM17.198 20.3939C17.198 20.9462 17.6457 21.3939 18.198 21.3939C18.7503 21.3939 19.198 20.9462 19.198 20.3939L17.198 20.3939ZM20.305 17.0219H20.198L20.198 19.0219L20.305 19.0219L20.305 17.0219ZM17.198 20.0219L17.198 20.3939L19.198 20.3939L19.198 20.0219L17.198 20.0219ZM20.198 17.0219C18.5411 17.0219 17.198 18.3651 17.198 20.0219L19.198 20.0219C19.198 19.4696 19.6457 19.0219 20.198 19.0219L20.198 17.0219Z" fill="#243413"/>
</svg>
