<svg width="41" height="41" viewBox="0 0 41 41" fill="none" xmlns="http://www.w3.org/2000/svg">
<circle cx="20.5" cy="20.5" r="18" fill="#243413" stroke="#243413" stroke-width="5"/>
<path d="M24.8122 15.7945C24.8122 16.4908 24.8379 17.1871 24.8019 17.8817C24.7814 18.3025 24.9217 18.5318 25.2827 18.7593C27.4417 20.1279 28.5862 22.0988 28.694 24.6564C28.718 25.2501 28.617 25.3408 28.0097 25.3408C26.6411 25.3408 25.281 25.3408 23.9175 25.3408C23.642 25.3408 23.5274 25.4195 23.4555 25.6949C23.0911 27.0995 23.37 26.8753 21.9158 26.8925C21.0074 26.901 20.0972 26.8805 19.1888 26.8925C18.8141 26.8925 18.6088 26.7847 18.525 26.4032C18.4497 26.061 18.4908 25.5991 18.2325 25.4109C17.9433 25.2005 17.4917 25.3476 17.1119 25.3442C16.0033 25.3442 14.8878 25.3442 13.7861 25.3442C13.2078 25.3442 13.1018 25.245 13.1189 24.6787C13.2215 22.0663 14.4105 20.0783 16.6175 18.6909C16.7418 18.6313 16.8452 18.5355 16.9142 18.4162C16.9832 18.2968 17.0145 18.1594 17.0041 18.0219C16.9938 16.5592 16.9562 15.093 17.0366 13.6354C17.1752 11.1565 18.5267 9.44739 20.6396 8.27207C20.8825 8.13691 21.1049 8.21047 21.3239 8.33878C23.6044 9.67321 24.8447 11.6167 24.8259 14.3009C24.8088 14.8005 24.8122 15.2966 24.8122 15.7945Z" fill="#F1F6F1"/>
<path d="M18.9453 30.7513C18.9898 29.9626 19.3593 29.3621 20.0744 29.0405C20.7896 28.7188 21.5235 28.7736 22.1411 29.3125C22.7587 29.8514 23.0068 30.4998 22.7587 31.2936C22.4388 32.3201 21.8417 33.2046 21.2515 34.0873C21.0804 34.3474 20.793 34.4055 20.6116 34.1506C19.9119 33.172 19.2276 32.1781 18.971 30.9685C18.9586 30.8966 18.9501 30.8241 18.9453 30.7513Z" fill="#F1F6F1"/>
<path d="M18.9622 19.0508C18.9622 18.7947 19.013 18.5412 19.1116 18.3049C19.2102 18.0685 19.3547 17.8541 19.5367 17.674C19.7187 17.4939 19.9346 17.3517 20.172 17.2556C20.4093 17.1595 20.6634 17.1114 20.9194 17.1141C21.4358 17.1267 21.9268 17.3411 22.2869 17.7115C22.6471 18.0819 22.8477 18.5786 22.8458 19.0952C22.8445 19.3516 22.7922 19.6051 22.692 19.8411C22.5918 20.077 22.4456 20.2907 22.262 20.4697C22.0785 20.6486 21.8612 20.7892 21.6227 20.8834C21.3843 20.9776 21.1295 21.0234 20.8732 21.0182C20.6169 21.0202 20.3628 20.9703 20.1263 20.8714C19.8898 20.7725 19.6759 20.6267 19.4973 20.4429C19.3187 20.259 19.1792 20.0408 19.0872 19.8016C18.9953 19.5623 18.9528 19.3069 18.9622 19.0508ZM22.0571 19.0815C22.0567 18.8521 21.9884 18.628 21.8607 18.4374C21.7329 18.2469 21.5515 18.0984 21.3395 18.011C21.1274 17.9235 20.8941 17.9009 20.6692 17.946C20.4443 17.991 20.2377 18.1018 20.0758 18.2643C19.9138 18.4267 19.8036 18.6336 19.7592 18.8586C19.7148 19.0837 19.7381 19.3169 19.8262 19.5287C19.9143 19.7405 20.0632 19.9215 20.2542 20.0486C20.4451 20.1758 20.6695 20.2435 20.8989 20.2432C21.2064 20.2423 21.5009 20.1195 21.7181 19.9017C21.9352 19.684 22.0571 19.389 22.0571 19.0815Z" fill="#F1F6F1"/>
<ellipse cx="20.9094" cy="15.9899" rx="2.05" ry="2.05" fill="#243413"/>
</svg>
