<svg width="41" height="40" viewBox="0 0 41 40" fill="none" xmlns="http://www.w3.org/2000/svg">
<circle cx="20.5" cy="20" r="20" fill="#243413"/>
<g clip-path="url(#clip0_3044_10401)">
<path d="M22.4065 9.86671C22.4065 9.24997 21.9343 8.75 21.3518 8.75C20.7693 8.75 20.2971 9.24997 20.2971 9.86671V12.1067C20.2971 12.7235 20.7693 13.2234 21.3518 13.2234C21.9343 13.2234 22.4065 12.7235 22.4065 12.1067V9.86671Z" fill="white"/>
<path d="M13.3088 12.5233C13.7207 12.0865 14.3884 12.0865 14.8003 12.5233L16.2918 14.1049C16.7037 14.5416 16.7037 15.2497 16.2918 15.6865C15.88 16.1232 15.2122 16.1232 14.8003 15.6865L13.3088 14.1049C12.8969 13.6681 12.8969 12.96 13.3088 12.5233Z" fill="white"/>
<path d="M23.2723 30.3269C22.7845 30.918 22.1231 31.25 21.4335 31.25H20.5665C19.8769 31.25 19.2155 30.918 18.7277 30.3269C18.24 29.736 17.966 28.9344 17.966 28.0985V27.5732H24.034V28.0985C24.034 28.9344 23.76 29.736 23.2723 30.3269Z" fill="white"/>
<path d="M17.5081 25.7081C17.7461 25.9112 17.9005 26.2045 17.939 26.5259H24.0098C24.0553 26.1987 24.2133 25.9008 24.4535 25.6897C25.7494 24.6002 26.5247 22.9587 26.5712 21.2057C26.6178 19.4526 25.9309 17.7675 24.6949 16.6023C23.5627 15.5365 22.072 15.0022 20.5623 15.1209C19.0527 15.2396 17.6525 16.0011 16.6812 17.2321C15.7095 18.4631 15.2492 20.0588 15.405 21.6554C15.5608 23.2521 16.3195 24.7142 17.5081 25.7081Z" fill="white"/>
<path d="M10.8062 19.9338C10.2229 19.9338 9.75 20.4345 9.75 21.0521C9.75 21.6698 10.2229 22.1705 10.8062 22.1705H12.9125C13.4958 22.1705 13.9687 21.6698 13.9687 21.0521C13.9687 20.4345 13.4958 19.9338 12.9125 19.9338H10.8062Z" fill="white"/>
<path d="M28.9473 12.5234C29.3592 12.9601 29.3592 13.6682 28.9473 14.105L27.4558 15.6866C27.0439 16.1233 26.3761 16.1233 25.9643 15.6866C25.5524 15.2498 25.5524 14.5417 25.9643 14.105L27.4558 12.5234C27.8677 12.0866 28.5354 12.0866 28.9473 12.5234Z" fill="white"/>
<path d="M31.1935 21.9339C31.7768 21.9339 32.2497 21.4332 32.2497 20.8155C32.2497 20.1979 31.7768 19.6972 31.1935 19.6972L29.0873 19.6972C28.5039 19.6972 28.0311 20.1979 28.0311 20.8155C28.0311 21.4332 28.5039 21.9339 29.0873 21.9339H31.1935Z" fill="white"/>
</g>
<defs>
<clipPath id="clip0_3044_10401">
<rect width="30" height="30" fill="white" transform="translate(6 5)"/>
</clipPath>
</defs>
</svg>
