<svg width="34" height="34" viewBox="0 0 34 34" fill="none" xmlns="http://www.w3.org/2000/svg">
<circle cx="17" cy="17" r="14.5" fill="#243413" stroke="#243413" stroke-width="5"/>
<path d="M23.2089 17.1424C23.7248 17.1448 24.234 17.0257 24.6953 16.7948C25.1566 16.5639 25.5571 16.2276 25.8643 15.8132L25.8643 15.783L25.8915 15.7256L25.8915 15.6682L25.9277 15.6319L25.9277 15.6108L25.9277 15.5534L25.9066 15.496C25.8993 15.4801 25.8891 15.4657 25.8764 15.4537L25.8371 15.4054L25.822 15.3903C25.822 15.3903 25.8009 15.3903 25.7888 15.3752C25.7719 15.3637 25.7536 15.3546 25.7344 15.348C25.7143 15.3463 25.6941 15.3463 25.674 15.348L25.6256 15.3299L22.6712 15.3299L21.8193 13.8194L22.6682 12.309L25.6256 12.309C25.6256 12.309 25.6468 12.309 25.6589 12.309C25.679 12.3107 25.6992 12.3107 25.7193 12.309C25.7385 12.3023 25.7568 12.2932 25.7737 12.2818C25.7737 12.2818 25.7978 12.2818 25.8069 12.2818C25.816 12.2818 25.8069 12.2818 25.822 12.2667L25.8613 12.2183C25.874 12.2063 25.8842 12.1919 25.8915 12.176L25.9126 12.1186L25.9126 12.0612L25.9126 12.0069L25.9126 11.9706L25.9126 11.9132L25.8854 11.8558C25.8854 11.8558 25.8854 11.8347 25.8854 11.8256C25.5294 11.3555 25.0546 10.9885 24.5099 10.7625C23.9652 10.5365 23.3702 10.4595 22.7858 10.5395C22.2015 10.6194 21.649 10.8534 21.1851 11.2175C20.7211 11.5816 20.3624 12.0625 20.1457 12.611L12.9077 12.611C12.6991 12.2424 12.396 11.9361 12.0296 11.7237C11.6632 11.5113 11.2468 11.4005 10.8232 11.4027C10.1823 11.4027 9.56758 11.6573 9.11436 12.1105C8.66113 12.5638 8.40652 13.1785 8.40651 13.8194C8.40651 14.4604 8.66113 15.0751 9.11436 15.5283C9.56758 15.9815 10.1823 16.2361 10.8232 16.2361C11.2468 16.2384 11.6632 16.1275 12.0296 15.9151C12.396 15.7027 12.6991 15.3964 12.9077 15.0278L20.1155 15.0278C20.3586 15.6505 20.7839 16.1854 21.3357 16.5627C21.8876 16.9399 22.5404 17.142 23.2089 17.1424Z" fill="white"/>
<path d="M25.674 22.3956C25.7454 22.384 25.8104 22.3471 25.857 22.2917C25.9035 22.2362 25.9286 22.1659 25.9277 22.0935L25.9277 20.6465C25.9286 20.574 25.9035 20.5037 25.857 20.4483C25.8104 20.3928 25.7454 20.3559 25.674 20.3444L22.6531 19.861C22.6097 19.8541 22.5653 19.8567 22.523 19.8687C22.4808 19.8807 22.4416 19.9018 22.4084 19.9305C22.3748 19.9592 22.348 19.9949 22.3297 20.0351C22.3114 20.0753 22.3022 20.119 22.3026 20.1631L22.3026 22.5798C22.3026 22.6235 22.3121 22.6666 22.3303 22.7062C22.3486 22.7458 22.3752 22.7811 22.4084 22.8094C22.4416 22.8381 22.4808 22.8592 22.523 22.8712C22.5653 22.8832 22.6097 22.8858 22.6531 22.8789L25.674 22.3956ZM15.3546 23.184L15.3546 22.2777L21.6984 22.2777L21.6985 20.4652L15.3546 20.4652L15.3546 19.5589C15.3546 19.4788 15.3227 19.402 15.2661 19.3453C15.2094 19.2887 15.1326 19.2568 15.0525 19.2568L14.1462 19.2568C14.0661 19.2568 13.9892 19.2887 13.9326 19.3453C13.8759 19.402 13.8441 19.4788 13.8441 19.5589L13.8441 19.861L9.91694 19.861C9.51635 19.861 9.13216 20.0202 8.84889 20.3034C8.56563 20.5867 8.40649 20.9709 8.40649 21.3715C8.40649 21.7721 8.56563 22.1563 8.84889 22.4395C9.13216 22.7228 9.51635 22.8819 9.91694 22.8819L13.8441 22.8819L13.8441 23.184C13.8441 23.2641 13.8759 23.341 13.9326 23.3976C13.9892 23.4543 14.0661 23.4861 14.1462 23.4861L15.0525 23.4861C15.1326 23.4861 15.2094 23.4543 15.2661 23.3976C15.3227 23.341 15.3546 23.2641 15.3546 23.184Z" fill="white"/>
</svg>
