<svg width="201" height="205" viewBox="0 0 201 205" fill="none" xmlns="http://www.w3.org/2000/svg">
<circle cx="100.5" cy="104.879" r="100" fill="#FFBE2E"/>
<mask id="mask0_9759_175341" style="mask-type:alpha" maskUnits="userSpaceOnUse" x="0" y="4" width="201" height="201">
<circle cx="100.5" cy="104.877" r="100" fill="#7FB135"/>
</mask>
<g mask="url(#mask0_9759_175341)">
<rect x="27.3281" y="-0.00195312" width="146.341" height="204.878" rx="12" fill="#E6E6E6"/>
</g>
<rect x="27.3281" width="146.341" height="113.821" rx="12" fill="#E6E6E6"/>
<path opacity="0.05" fill-rule="evenodd" clip-rule="evenodd" d="M68.607 0H39.3281C32.7007 0 27.3281 5.37259 27.3281 12V36.7177C10.6835 54.578 0.5 78.5392 0.5 104.879C0.5 160.107 45.2715 204.879 100.5 204.879C137.681 204.879 170.123 184.587 187.355 154.473C171.668 165.242 152.673 171.544 132.207 171.544C78.326 171.544 34.6465 127.864 34.6465 73.9828C34.6465 44.3996 47.8136 17.8917 68.607 0Z" fill="#5C5C5C"/>
<path d="M93.2047 36.4792C92.1005 36.4829 91.2026 37.3862 91.2053 38.498L91.2192 60.0409C91.2195 61.1525 92.1172 62.0525 93.2238 62.049L135.786 61.9246C136.273 61.9226 136.744 61.7422 137.11 61.4171L149.27 50.6108C149.703 50.2275 149.948 49.6769 149.948 49.0974C149.949 48.5202 149.7 47.9706 149.27 47.5886L137.093 36.8517C136.727 36.5304 136.256 36.3531 135.769 36.355L93.2047 36.4792Z" fill="#4B7600"/>
<path d="M109.558 68.2672C110.667 68.264 111.564 69.1616 111.567 70.2759L111.581 91.8188C111.581 92.9304 110.683 93.8336 109.577 93.837L66.9456 93.9622C66.459 93.9641 65.9859 93.7865 65.6198 93.4628L53.4262 82.7285C52.9937 82.3462 52.7448 81.7967 52.745 81.2195C52.7432 80.6396 52.9902 80.0893 53.4233 79.706L65.6029 68.8974C65.9688 68.5723 66.4398 68.3942 66.9288 68.3926L109.558 68.2672Z" fill="#7FB135"/>
<path d="M95.6224 100.172C94.9449 100.175 94.394 100.4 94.3939 100.679L94.4114 176.614C94.4114 176.893 94.962 177.116 95.6392 177.115L106.071 177.083C106.748 177.081 107.296 176.856 107.297 176.577L107.279 100.64C107.279 100.363 106.731 100.14 106.054 100.142L95.6224 100.172Z" fill="#4B7600"/>
</svg>
