<svg width="45" height="45" viewBox="0 0 45 45" fill="none" xmlns="http://www.w3.org/2000/svg">
<circle cx="22.5" cy="22.5" r="22.5" fill="#ECE6F2"/>
<path d="M28.0927 17.5425C28.2608 17.543 28.422 17.4761 28.5401 17.3568L29.9722 15.9256H29.9723C30.0944 15.8077 30.164 15.6459 30.1655 15.4761C30.1671 15.3065 30.1003 15.1433 29.9803 15.0233C29.8605 14.9032 29.6972 14.8364 29.5274 14.8379C29.3577 14.8393 29.1957 14.9087 29.0777 15.0308L27.6457 16.4611C27.5274 16.5797 27.4609 16.7405 27.4609 16.9081C27.4611 17.0757 27.5275 17.2365 27.646 17.3551C27.7643 17.4738 27.925 17.5407 28.0926 17.541L28.0927 17.5425Z" fill="#6F4C8D"/>
<path d="M16.4562 17.3564C16.6166 17.5168 16.8504 17.5796 17.0697 17.5209C17.2889 17.4621 17.4602 17.2908 17.519 17.0716C17.5776 16.8524 17.5149 16.6186 17.3545 16.4581L15.9192 15.0237C15.7589 14.8634 15.5252 14.8009 15.3062 14.8595C15.0873 14.9181 14.9162 15.0893 14.8576 15.3081C14.7989 15.5272 14.8615 15.7608 15.0217 15.9211L16.4562 17.3564Z" fill="#6F4C8D"/>
<path d="M22.95 32.8678C23.6672 32.8678 24.3551 32.5421 24.8624 31.9624C25.3696 31.3829 25.6545 30.5967 25.6545 29.7768V29.2616H19.3438V29.7768C19.3438 30.5967 19.6287 31.3829 20.1359 31.9624C20.6432 32.5421 21.3311 32.8678 22.0483 32.8678H22.95Z" fill="#6F4C8D"/>
<path d="M18.8705 27.4323C19.1181 27.6315 19.2786 27.9192 19.3187 28.2344H25.6324C25.6798 27.9135 25.8441 27.6213 26.0939 27.4143C27.4417 26.3457 28.248 24.7357 28.2963 23.0164C28.3448 21.297 27.6304 19.6442 26.3449 18.5014C25.1675 17.4561 23.6171 16.9321 22.0469 17.0485C20.477 17.1649 19.0207 17.9118 18.0105 19.1191C17 20.3265 16.5213 21.8915 16.6833 23.4574C16.8453 25.0235 17.6344 26.4573 18.8705 27.432L18.8705 27.4323Z" fill="#6F4C8D"/>
<rect x="10.8008" y="21.769" width="4.3875" height="2.19375" rx="1.09687" fill="#6F4C8D"/>
<rect x="15.2773" y="13.7252" width="4.3875" height="2.19375" rx="1.09687" transform="rotate(45 15.2773 13.7252)" fill="#6F4C8D"/>
<rect x="23.9648" y="10.8" width="4.3875" height="2.19375" rx="1.09687" transform="rotate(90 23.9648 10.8)" fill="#6F4C8D"/>
<rect x="31.543" y="15.2765" width="4.3875" height="2.19375" rx="1.09687" transform="rotate(135 31.543 15.2765)" fill="#6F4C8D"/>
<rect x="34.1992" y="23.7307" width="4.3875" height="2.19375" rx="1.09687" transform="rotate(-180 34.1992 23.7307)" fill="#6F4C8D"/>
</svg>
