<svg width="32" height="32" viewBox="0 0 32 32" fill="none" xmlns="http://www.w3.org/2000/svg">
<rect width="32" height="32" rx="16" fill="#6F4C8D"/>
<g clip-path="url(#clip0_27277_165)">
<path d="M10.1298 15.7157H21.8391C21.9149 15.7157 21.9717 15.6589 21.9717 15.5831V14.8062C21.9717 14.7304 21.9149 14.6736 21.8391 14.6736H20.8349C20.4939 12.8168 19.1107 11.3389 17.3108 10.8273V10.581C17.3108 10.5052 17.2539 10.4484 17.1781 10.4484H16.4581V10.1642C16.4581 10.0884 16.4013 10.0315 16.3255 10.0315H16.155V8.62945H17.6518C17.7655 8.62945 17.8413 8.53472 17.8413 8.43998V7.49262C17.8413 7.37894 17.7465 7.30315 17.6518 7.30315H16.155V7.11368C16.155 7.05684 16.0981 7 16.0413 7H15.9276C15.8708 7 15.8139 7.05684 15.8139 7.11368V10.0315H15.6245C15.5487 10.0315 15.4918 10.0884 15.4918 10.1642V10.4484H14.7719C14.6961 10.4484 14.6392 10.5052 14.6392 10.581V10.8273C12.8393 11.32 11.4751 12.8168 11.1151 14.6736H10.1109C10.0351 14.6736 9.97824 14.7304 9.97824 14.8062V15.5831C9.99719 15.6399 10.054 15.7157 10.1298 15.7157Z" fill="white"/>
<path d="M23.3356 23.9579H22.7292V23.0484C22.7292 22.9726 22.6724 22.9158 22.5966 22.9158H21.9714V16.1896C21.9714 16.1138 21.9145 16.0569 21.8387 16.0569H10.1294C10.0537 16.0569 9.99682 16.1138 9.99682 16.1896V22.9158H9.37156C9.29577 22.9158 9.23894 22.9726 9.23894 23.0484V23.9579H8.63263C8.55684 23.9579 8.5 24.0147 8.5 24.0905V24.8674C8.5 24.9432 8.55684 25 8.63263 25H23.3545C23.4303 25 23.4871 24.9432 23.4871 24.8674V24.0905C23.4682 24.0147 23.4113 23.9579 23.3356 23.9579ZM15.4157 17.099H16.5714V22.9348H15.4157V17.099ZM14.3736 22.9158H13.2178V17.0801H14.3736V22.9158ZM17.5946 17.099H18.7504V22.9348H17.5946V17.099ZM19.7924 17.099H20.9482V22.9348H19.7924V17.099ZM11.0389 17.099H12.1947V22.9348H11.0389V17.099Z" fill="white"/>
</g>
<defs>
<clipPath id="clip0_27277_165">
<rect width="24" height="24" fill="white" transform="translate(4 4)"/>
</clipPath>
</defs>
</svg>
