<svg fill="none" height="32" viewBox="0 0 32 32" width="32" xmlns="http://www.w3.org/2000/svg"><rect fill="#6f4c8d" height="32" rx="16" width="32"/><g fill="#fff"><path d="m8.5001 12.7998h12.9l-1.9 1.9c-.3.3-.3.9 0 1.3.2.2.4.3.6.3s.5-.1.6-.3l3.4-3.4s0 0 0-.1c.1-.1.1-.1.1-.2.1-.2.1-.5 0-.7 0-.1-.1-.2-.1-.2s0 0 0-.1l-3.4-3.4c-.3-.3-.9-.3-1.3 0s-.3.9 0 1.3l2 1.8h-12.9c-.5 0-.9.4-.9.9s.4.9.9.9z"/><path d="m23.5 19.2002h-12.9l1.9-1.9c.3-.3.3-.9 0-1.3s-.9-.3-1.3 0l-3.4 3.4c-.1.1-.1.2-.2.3 0 .1-.1.2-.1.3s0 .2.1.3c0 .1.1.2.2.3l3.4 3.4c.2.2.4.3.6.3s.5-.1.6-.3c.3-.3.3-.9 0-1.3l-1.8-1.7h12.9c.5 0 .9-.4.9-.9s-.4-.9-.9-.9z"/></g></svg>