<svg fill="none" height="32" viewBox="0 0 32 32" width="32" xmlns="http://www.w3.org/2000/svg"><rect fill="#6f4c8d" height="32" rx="16" width="32"/><g fill="#fff"><path d="m9.9999 25.1992c-1.7 0-3.1-1.4-3.1-3.1v-10.3c0-1.7 1.4-3.09998 3.1-3.09998h4.3c.5 0 .9.4 1 .9 0 .3-.1.49998-.3.69998s-.4.3-.7.3h-4.4c-.6 0-1.1.5-1.1 1.1v10.2c0 .6.5 1.1 1.1 1.1h10.2c.6 0 1.1-.5 1.1-1.1v-.2-4.2c0-.5.4-1 1-1 .5 0 1 .4 1 1v4.5c0 1.7-1.4 3.1-3.1 3.1l-9.9792.1z"/><path d="m12.6998 20.7996c-.4 0-.8-.2-1-.4-.3-.3-.4-.7-.4-1.1l.2-2.4c0-.4.2-.7.4-.9l8.5-8.49999c.3-.3.6-.4 1-.4s.8.2 1 .4l2.3 2.3c.3.29999.4.69999.4 1.09999s-.2.8-.4 1l-8.5 8.5c-.3.3-.6.4-1 .4zm.5-2 1.7-.1.4-.4-1.6-1.6-.4.4zm3.6-1.9 4.1-4-1.6-1.6-4.1 4zm5.4-5.5.8-.8-1.6-1.59999-.8.8z"/></g></svg>