<svg fill="none" height="32" viewBox="0 0 32 32" width="32" xmlns="http://www.w3.org/2000/svg"><rect fill="#6f4c8d" height="32" rx="16" width="32"/><g fill="#fff"><path d="m23.5 13.7c0-.1 0-.2 0-.2v-.1c0-.1-.1-.2-.2-.3l-5.9-5.9c-.1-.1-.2-.1-.3-.2h-.1c-.1 0-.1 0-.2 0 0 0 0 0-.1 0h-7.3c-.5 0-.9.4-.9.9v16.2c0 .5.4.9.9.9h13.2c.5 0 .9-.4.9-.9zm-5.9-3.6 2.8 2.8h-2.8zm-7.3 13.1v-14.4h5.5v5c0 .5.4.9.9.9h5v8.5z"/><path d="m18.6 16.0996h-5.9c-.5 0-.9.4-.9.9s.4.9.9.9h5.9c.5 0 .9-.4.9-.9s-.4-.9-.9-.9z"/><path d="m18.6 19.2998h-5.9c-.5 0-.9.4-.9.9s.4.9.9.9h5.9c.5 0 .9-.4.9-.9s-.4-.9-.9-.9z"/><path d="m12.7 14.7004h.7c.5 0 .9-.4.9-.9s-.4-.9-.9-.9h-.7c-.5 0-.9.4-.9.9s.4.9.9.9z"/></g></svg>