<svg fill="none" height="32" viewBox="0 0 32 32" width="32" xmlns="http://www.w3.org/2000/svg"><rect fill="#6f4c8d" height="32" rx="16" width="32"/><g fill="#fff"><path d="m22.7998 21.2002s-13.4 0-13.5 0c-.6 0-1 .4-1 1v1h15.5v-1c0-.6-.5-1-1-1z"/><path d="m11.8 15.0996v6.1c0 .6-.4 1-1 1s-.99995-.4-.99995-1v-6.1c0-.6.39995-1 .99995-1s1 .4 1 1z"/><path d="m22.2002 15.0996v6.1c0 .6-.4 1-1 1s-1-.4-1-1v-6.1c0-.6.4-1 1-1s1 .4 1 1z"/><path d="m17.0002 15.0996v6.1c0 .6-.4 1-1 1s-1-.4-1-1v-6.1c0-.6.4-1 1-1s1 .4 1 1z"/></g><path d="m8.99988 14.8002h14.00002c.5 0 .7-.6.2-.9l-6.5-3.6c-.5-.3-1.1-.3-1.5 0l-6.40002 3.7c-.5.2-.3.8.2.8z" stroke="#fff" stroke-miterlimit="10" stroke-width="1.78"/><path d="m17 8.7002v1c0 .6-.4 1-1 1s-1-.4-1-1v-1c0-.6.4-1 1-1 .5 0 1 .4 1 1z" fill="#fff"/></svg>