<svg fill="none" height="32" viewBox="0 0 32 32" width="32" xmlns="http://www.w3.org/2000/svg"><rect fill="#6f4c8d" height="32" rx="16" width="32"/><g fill="#fff"><path d="m16.0001 8.8c-3.4 0-6.30003 2.4-7.00003 5.6-.1.5-.6.8-1.1.7s-.8-.6-.7-1.1c.9-4 4.50003-7 8.80003-7 2.9 0 5.6 1.4 7.2 3.6v-2.5c0-.5.4-.9.9-.9s.9.4.9.9v4.5c0 .5-.4.9-.9.9h-4.5c-.5 0-.9-.4-.9-.9s.4-.9.9-.9h2.2c-1.3-1.8-3.4-2.9-5.8-2.9z"/><path d="m24.1 16.9c.5.1.8.6.7 1.1-.9 4-4.5 7-8.8 7-2.9 0-5.6-1.4-7.2-3.6v2.5c0 .5-.4.9-.9.9s-.9-.4-.9-.9v-4.5c0-.5.4-.9.9-.9h4.5c.5 0 .9.4.9.9s-.4.9-.9.9h-2.2c1.3 1.8 3.4 2.9 5.8 2.9 3.4 0 6.3-2.4 7-5.6.1-.5.6-.8 1.1-.7z"/></g></svg>