<svg width="19" height="20" viewBox="0 0 19 20" fill="none" xmlns="http://www.w3.org/2000/svg">
<rect y="0.5" width="19" height="19" rx="5" fill="#4D8055"/>
<path d="M4 14.43H5.986V8.472H4V14.43ZM14.923 8.9685C14.923 8.42235 14.4761 7.9755 13.93 7.9755H10.7971L11.2688 5.7065L11.2837 5.54761C11.2837 5.34405 11.1992 5.15538 11.0652 5.02132L10.5389 4.5L7.27193 7.77194C7.08823 7.95068 6.979 8.19893 6.979 8.472V13.437C6.979 13.9832 7.42585 14.43 7.972 14.43H12.4405C12.8526 14.43 13.2051 14.1818 13.3541 13.8243L14.8535 10.3239C14.8982 10.2098 14.923 10.0906 14.923 9.9615V8.9685Z" fill="#F2F7EB"/>
</svg>
