<svg width="19" height="19" viewBox="0 0 19 19" fill="none" xmlns="http://www.w3.org/2000/svg">
<rect width="19" height="19" rx="5" fill="#2378C3"/>
<path fill-rule="evenodd" clip-rule="evenodd" d="M11.8471 10.4885L14.0315 8.30413L14.4773 8.74992C14.7225 8.9951 15.1197 8.99912 15.3599 8.75884C15.6002 8.51856 15.5962 8.12136 15.351 7.87618L10.8932 3.41831C10.648 3.17312 10.2508 3.16911 10.0105 3.40939C9.77022 3.64967 9.77424 4.04687 10.0194 4.29205L10.4652 4.73784L8.28085 6.92219C7.55564 7.6474 6.37288 7.63545 5.63287 6.89545L4.75913 7.76919L7.42048 10.4305L4.36238 13.4886L4.3713 14.3713L5.25395 14.3802L8.31205 11.3221L11.0001 14.0102L11.8739 13.1365C11.1339 12.3965 11.1219 11.2137 11.8471 10.4885Z" fill="white"/>
</svg>
