<svg width="19" height="20" viewBox="0 0 19 20" fill="none" xmlns="http://www.w3.org/2000/svg">
<rect y="0.5" width="19" height="19" rx="5" fill="#2378C3"/>
<path fill-rule="evenodd" clip-rule="evenodd" d="M11.847 10.9886L14.0314 8.80426L14.4772 9.25004C14.7224 9.49523 15.1195 9.49924 15.3598 9.25896C15.6001 9.01868 15.5961 8.62148 15.3509 8.3763L10.893 3.91843C10.6479 3.67325 10.2507 3.66923 10.0104 3.90951C9.7701 4.14979 9.77411 4.54699 10.0193 4.79217L10.4651 5.23796L8.28073 7.42232C7.55552 8.14752 6.37276 8.13558 5.63275 7.39557L4.75901 8.26931L7.42036 10.9307L4.36226 13.9888L4.37117 14.8714L5.25383 14.8803L8.31193 11.8222L11 14.5103L11.8738 13.6366C11.1338 12.8966 11.1218 11.7138 11.847 10.9886Z" fill="white"/>
</svg>
