<svg width="134" height="134" viewBox="0 0 134 134" fill="none" xmlns="http://www.w3.org/2000/svg">
<path d="M86.459 94.271H97.9174V98.4376C97.9174 100.208 99.2715 101.563 101.042 101.563C102.813 101.563 104.168 100.209 104.168 98.4376V94.271C105.938 94.271 107.293 92.9168 107.293 91.1459C107.293 89.375 105.938 88.0209 104.168 88.0209V59.8955C104.168 58.4371 103.23 57.1872 101.772 56.8747C100.418 56.5622 98.9591 57.1872 98.23 58.4372L83.646 85.5199C83.4377 85.9366 83.3335 86.4574 83.3335 86.9783V91.145C83.3335 92.9158 84.688 94.271 86.459 94.271ZM89.584 87.8126L97.9174 72.2912V88.0206H89.584V87.8126Z" fill="#0076D6"/>
<path d="M66.667 101.563C73.0211 101.563 78.1254 96.4588 78.1254 90.1046V68.2299C78.1254 61.8758 73.0212 56.7715 66.667 56.7715C60.3127 56.7715 55.2086 61.8756 55.2086 68.2299V90.1046C55.2086 96.4587 60.3127 101.563 66.667 101.563ZM61.4587 68.2296C61.4587 65.313 63.7504 63.0214 66.667 63.0214C69.5835 63.0214 71.8752 65.3131 71.8752 68.2296V90.1043C71.8752 93.021 69.5835 95.3126 66.667 95.3126C63.7504 95.3126 61.4587 93.0208 61.4587 90.1043V68.2296Z" fill="#0076D6"/>
<path d="M29.167 94.271H40.6254V98.4376C40.6254 100.208 41.9795 101.563 43.7504 101.563C45.5214 101.563 46.8755 100.209 46.8755 98.4376V94.271C48.6463 94.271 50.0006 92.9168 50.0006 91.1459C50.0006 89.375 48.6464 88.0208 46.8755 88.0208V59.8955C46.8755 58.4371 45.938 57.1872 44.4796 56.8747C43.0213 56.5622 41.6671 57.1872 40.938 58.4372L26.354 85.5199C26.1457 85.9366 26.0415 86.4574 26.0415 86.9783V91.145C26.0415 92.9158 27.396 94.271 29.167 94.271ZM32.292 87.8126L40.6254 72.2912V88.0206H32.292V87.8126Z" fill="#0076D6"/>
<path d="M14.5843 132.292H118.751C126.251 132.292 132.292 126.251 132.292 118.751V14.5843C132.292 7.0843 126.251 1.04297 118.751 1.04297H14.5843C7.0843 1.04297 1.04297 7.08457 1.04297 14.5843V118.751C1.04297 126.251 7.08457 132.292 14.5843 132.292ZM7.29257 14.5843C7.29257 10.5218 10.5218 7.29257 14.5843 7.29257H118.751C122.814 7.29257 126.043 10.5218 126.043 14.5843V30.2096H7.29337L7.29257 14.5843ZM7.29257 36.459H126.042V118.751C126.042 122.814 122.813 126.043 118.75 126.043H14.5835C10.521 126.043 7.29177 122.814 7.29177 118.751L7.29257 36.459Z" fill="#0076D6"/>
<path d="M22.9176 15.6256H18.751C16.9802 15.6256 15.6259 16.9798 15.6259 18.7507C15.6259 20.5216 16.98 21.8758 18.751 21.8758H22.9176C24.6884 21.8758 26.0427 20.5216 26.0427 18.7507C26.0427 16.9798 24.6886 15.6256 22.9176 15.6256Z" fill="#0076D6"/>
<path d="M39.5843 15.6256H35.4176C33.6468 15.6256 32.2926 16.9798 32.2926 18.7507C32.2926 20.5216 33.6467 21.8758 35.4176 21.8758H39.5843C41.3551 21.8758 42.7094 20.5216 42.7094 18.7507C42.7094 16.9798 41.3552 15.6256 39.5843 15.6256Z" fill="#0076D6"/>
<path d="M7.45504 21.627C7.45504 13.5326 7.47208 13.1763 7.91567 11.9907C8.54483 10.3091 10.3091 8.54483 11.9907 7.91567L13.2218 7.45504H120.112L121.343 7.91567C123.025 8.54483 124.789 10.3091 125.418 11.9907C125.862 13.1763 125.879 13.5326 125.879 21.627V30.0323H7.45504V21.627ZM24.4944 21.5655C25.3103 21.1579 26.1984 19.6871 26.1984 18.7436C26.1984 17.827 25.3113 16.3631 24.4978 15.9373C23.4334 15.3801 18.3516 15.3692 17.2678 15.9218C16.2499 16.4409 15.7174 17.2585 15.6137 18.4615C15.5045 19.7287 15.9932 20.7705 17.018 21.4551C17.685 21.9007 17.9769 21.9385 20.7453 21.9382C23.1782 21.9379 23.8906 21.8671 24.4944 21.5655ZM41.0927 21.5655C42.258 20.9713 42.7053 20.1885 42.7053 18.7436C42.7053 17.2988 42.258 16.516 41.0927 15.9218C40.1417 15.4369 35.1042 15.3817 33.9974 15.8441C31.6891 16.8086 31.6581 20.6362 33.9505 21.6341C35.0051 22.0931 40.1549 22.0437 41.0927 21.5655Z" fill="#E8F5FF"/>
<path d="M11.9302 125.408C10.3094 124.786 8.52936 122.984 7.91567 121.343L7.45504 120.112V36.635H125.879V120.112L125.418 121.343C124.789 123.025 123.025 124.789 121.343 125.418L120.112 125.879L13.0993 125.857L11.9302 125.408ZM45.371 101.201C46.6275 100.529 46.9323 99.7377 47.0341 96.883L47.1234 94.3785L47.7265 94.246C50.3857 93.662 50.8973 89.8458 48.5113 88.3911C48.1295 88.1583 47.6494 87.9675 47.4444 87.967C47.0932 87.9662 47.0714 87.1551 47.0666 73.962C47.0638 66.1795 46.9741 59.5792 46.8648 59.1057C46.6195 58.043 45.4789 56.9494 44.4059 56.7481C43.4063 56.5606 42.1707 56.9295 41.478 57.6222C41.1808 57.9194 37.5734 64.4158 33.4615 72.0585L25.9854 85.9545V89.0588C25.9854 91.9316 26.0214 92.2171 26.4689 92.8868C27.4106 94.2965 27.73 94.3553 34.4518 94.3557L40.4689 94.356L40.4736 96.6457C40.4791 99.3329 40.8645 100.474 42.0007 101.167C42.8964 101.713 44.3857 101.728 45.371 101.201ZM70.5901 100.982C73.7216 99.8617 76.188 97.4352 77.4851 94.1985L78.0621 92.7586L78.1231 79.7201C78.1767 68.2595 78.1423 66.5197 77.8389 65.3431C76.8642 61.5631 74.0535 58.5375 70.3284 57.2582C68.3078 56.5643 65.0262 56.5643 63.0055 57.2582C59.284 58.5362 56.463 61.5614 55.4825 65.3258C55.0055 67.1571 55.0132 91.1179 55.4913 92.9801C56.5396 97.0622 59.5769 100.136 63.6851 101.272C65.3494 101.732 68.9115 101.582 70.5901 100.982ZM102.666 101.201C103.922 100.529 104.227 99.7377 104.329 96.883L104.418 94.3785L105.021 94.246C107.681 93.662 108.192 89.8458 105.806 88.3911C105.424 88.1583 104.944 87.9675 104.739 87.967C104.388 87.9662 104.366 87.1551 104.362 73.962C104.359 66.2596 104.271 59.5876 104.166 59.1352C103.628 56.8192 100.765 55.9304 98.9566 57.5182C98.4431 57.9691 96.1332 62.0649 90.761 72.0503L83.2804 85.9545V89.0588C83.2804 91.9316 83.3164 92.2171 83.7639 92.8868C84.7052 94.2959 85.0274 94.3553 91.7249 94.3557L97.7201 94.3561L97.7988 96.9653C97.8856 99.8431 98.1047 100.44 99.3522 101.201C100.191 101.712 101.71 101.712 102.666 101.201Z" fill="#E8F5FF"/>
<path d="M90.7005 85.996C91.2831 84.9124 93.0719 81.5818 94.6756 78.5946C96.2792 75.6073 97.6301 73.1233 97.6776 73.0745C97.725 73.0257 97.7639 76.3564 97.7639 80.476V87.9662H89.6411L90.7005 85.996Z" fill="#E8F5FF"/>
<path d="M64.963 94.9295C63.8512 94.5791 62.1205 92.7503 61.7999 91.5871C61.6005 90.8638 61.5511 87.7026 61.5987 78.701L61.6616 66.7735L62.1941 65.8249C64.166 62.3125 69.168 62.3125 71.1398 65.8249L71.6723 66.7735L71.7353 78.701C71.7828 87.7026 71.7335 90.8638 71.5341 91.5871C71.1905 92.8334 69.4752 94.5839 68.2397 94.949C67.1929 95.2582 65.9831 95.251 64.963 94.9295Z" fill="#E8F5FF"/>
<path d="M32.6121 87.487C33.7093 85.4 40.319 73.1441 40.3849 73.0745C40.4311 73.0257 40.4689 76.3564 40.4689 80.476V87.9662H32.3602L32.6121 87.487Z" fill="#E8F5FF"/>
<path d="M86.459 94.271H97.9174V98.4376C97.9174 100.208 99.2715 101.563 101.042 101.563C102.813 101.563 104.168 100.209 104.168 98.4376V94.271C105.938 94.271 107.293 92.9168 107.293 91.1459C107.293 89.375 105.938 88.0209 104.168 88.0209V59.8955C104.168 58.4371 103.23 57.1872 101.772 56.8747C100.418 56.5622 98.9591 57.1872 98.23 58.4372L83.646 85.5199C83.4377 85.9366 83.3335 86.4574 83.3335 86.9783V91.145C83.3335 92.9158 84.688 94.271 86.459 94.271ZM89.584 87.8126L97.9174 72.2912V88.0206H89.584V87.8126Z" stroke="#E8F5FF" stroke-width="0.212993"/>
<path d="M66.667 101.563C73.0211 101.563 78.1254 96.4588 78.1254 90.1046V68.2299C78.1254 61.8758 73.0212 56.7715 66.667 56.7715C60.3127 56.7715 55.2086 61.8756 55.2086 68.2299V90.1046C55.2086 96.4587 60.3127 101.563 66.667 101.563ZM61.4587 68.2296C61.4587 65.313 63.7504 63.0214 66.667 63.0214C69.5835 63.0214 71.8752 65.3131 71.8752 68.2296V90.1043C71.8752 93.021 69.5835 95.3126 66.667 95.3126C63.7504 95.3126 61.4587 93.0208 61.4587 90.1043V68.2296Z" stroke="#E8F5FF" stroke-width="0.212993"/>
<path d="M29.167 94.271H40.6254V98.4376C40.6254 100.208 41.9795 101.563 43.7504 101.563C45.5214 101.563 46.8755 100.209 46.8755 98.4376V94.271C48.6463 94.271 50.0006 92.9168 50.0006 91.1459C50.0006 89.375 48.6464 88.0208 46.8755 88.0208V59.8955C46.8755 58.4371 45.938 57.1872 44.4796 56.8747C43.0213 56.5622 41.6671 57.1872 40.938 58.4372L26.354 85.5199C26.1457 85.9366 26.0415 86.4574 26.0415 86.9783V91.145C26.0415 92.9158 27.396 94.271 29.167 94.271ZM32.292 87.8126L40.6254 72.2912V88.0206H32.292V87.8126Z" stroke="#E8F5FF" stroke-width="0.212993"/>
<path d="M14.5843 132.292H118.751C126.251 132.292 132.292 126.251 132.292 118.751V14.5843C132.292 7.0843 126.251 1.04297 118.751 1.04297H14.5843C7.0843 1.04297 1.04297 7.08457 1.04297 14.5843V118.751C1.04297 126.251 7.08457 132.292 14.5843 132.292ZM7.29257 14.5843C7.29257 10.5218 10.5218 7.29257 14.5843 7.29257H118.751C122.814 7.29257 126.043 10.5218 126.043 14.5843V30.2096H7.29337L7.29257 14.5843ZM7.29257 36.459H126.042V118.751C126.042 122.814 122.813 126.043 118.75 126.043H14.5835C10.521 126.043 7.29177 122.814 7.29177 118.751L7.29257 36.459Z" stroke="#E8F5FF" stroke-width="0.212993"/>
<path d="M22.9176 15.6256H18.751C16.9802 15.6256 15.6259 16.9798 15.6259 18.7507C15.6259 20.5216 16.98 21.8758 18.751 21.8758H22.9176C24.6884 21.8758 26.0427 20.5216 26.0427 18.7507C26.0427 16.9798 24.6886 15.6256 22.9176 15.6256Z" stroke="#E8F5FF" stroke-width="0.212993"/>
<path d="M39.5843 15.6256H35.4176C33.6468 15.6256 32.2926 16.9798 32.2926 18.7507C32.2926 20.5216 33.6467 21.8758 35.4176 21.8758H39.5843C41.3551 21.8758 42.7094 20.5216 42.7094 18.7507C42.7094 16.9798 41.3552 15.6256 39.5843 15.6256Z" stroke="#E8F5FF" stroke-width="0.212993"/>
<path d="M7.45504 21.627C7.45504 13.5326 7.47208 13.1763 7.91567 11.9907C8.54483 10.3091 10.3091 8.54483 11.9907 7.91567L13.2218 7.45504H120.112L121.343 7.91567C123.025 8.54483 124.789 10.3091 125.418 11.9907C125.862 13.1763 125.879 13.5326 125.879 21.627V30.0323H7.45504V21.627ZM24.4944 21.5655C25.3103 21.1579 26.1984 19.6871 26.1984 18.7436C26.1984 17.827 25.3113 16.3631 24.4978 15.9373C23.4334 15.3801 18.3516 15.3692 17.2678 15.9218C16.2499 16.4409 15.7174 17.2585 15.6137 18.4615C15.5045 19.7287 15.9932 20.7705 17.018 21.4551C17.685 21.9007 17.9769 21.9385 20.7453 21.9382C23.1782 21.9379 23.8906 21.8671 24.4944 21.5655ZM41.0927 21.5655C42.258 20.9713 42.7053 20.1885 42.7053 18.7436C42.7053 17.2988 42.258 16.516 41.0927 15.9218C40.1417 15.4369 35.1042 15.3817 33.9974 15.8441C31.6891 16.8086 31.6581 20.6362 33.9505 21.6341C35.0051 22.0931 40.1549 22.0437 41.0927 21.5655Z" stroke="#E8F5FF" stroke-width="0.212993"/>
<path d="M11.9302 125.408C10.3094 124.786 8.52936 122.984 7.91567 121.343L7.45504 120.112V36.635H125.879V120.112L125.418 121.343C124.789 123.025 123.025 124.789 121.343 125.418L120.112 125.879L13.0993 125.857L11.9302 125.408ZM45.371 101.201C46.6275 100.529 46.9323 99.7377 47.0341 96.883L47.1234 94.3785L47.7265 94.246C50.3857 93.662 50.8973 89.8458 48.5113 88.3911C48.1295 88.1583 47.6494 87.9675 47.4444 87.967C47.0932 87.9662 47.0714 87.1551 47.0666 73.962C47.0638 66.1795 46.9741 59.5792 46.8648 59.1057C46.6195 58.043 45.4789 56.9494 44.4059 56.7481C43.4063 56.5606 42.1707 56.9295 41.478 57.6222C41.1808 57.9194 37.5734 64.4158 33.4615 72.0585L25.9854 85.9545V89.0588C25.9854 91.9316 26.0214 92.2171 26.4689 92.8868C27.4106 94.2965 27.73 94.3553 34.4518 94.3557L40.4689 94.356L40.4736 96.6457C40.4791 99.3329 40.8645 100.474 42.0007 101.167C42.8964 101.713 44.3857 101.728 45.371 101.201ZM70.5901 100.982C73.7216 99.8617 76.188 97.4352 77.4851 94.1985L78.0621 92.7586L78.1231 79.7201C78.1767 68.2595 78.1423 66.5197 77.8389 65.3431C76.8642 61.5631 74.0535 58.5375 70.3284 57.2582C68.3078 56.5643 65.0262 56.5643 63.0055 57.2582C59.284 58.5362 56.463 61.5614 55.4825 65.3258C55.0055 67.1571 55.0132 91.1179 55.4913 92.9801C56.5396 97.0622 59.5769 100.136 63.6851 101.272C65.3494 101.732 68.9115 101.582 70.5901 100.982ZM102.666 101.201C103.922 100.529 104.227 99.7377 104.329 96.883L104.418 94.3785L105.021 94.246C107.681 93.662 108.192 89.8458 105.806 88.3911C105.424 88.1583 104.944 87.9675 104.739 87.967C104.388 87.9662 104.366 87.1551 104.362 73.962C104.359 66.2596 104.271 59.5876 104.166 59.1352C103.628 56.8192 100.765 55.9304 98.9566 57.5182C98.4431 57.9691 96.1332 62.0649 90.761 72.0503L83.2804 85.9545V89.0588C83.2804 91.9316 83.3164 92.2171 83.7639 92.8868C84.7052 94.2959 85.0274 94.3553 91.7249 94.3557L97.7201 94.3561L97.7988 96.9653C97.8856 99.8431 98.1047 100.44 99.3522 101.201C100.191 101.712 101.71 101.712 102.666 101.201Z" stroke="#E8F5FF" stroke-width="0.212993"/>
<path d="M90.7005 85.996C91.2831 84.9124 93.0719 81.5818 94.6756 78.5946C96.2792 75.6073 97.6301 73.1233 97.6776 73.0745C97.725 73.0257 97.7639 76.3564 97.7639 80.476V87.9662H89.6411L90.7005 85.996Z" stroke="#E8F5FF" stroke-width="0.212993"/>
<path d="M64.963 94.9295C63.8512 94.5791 62.1205 92.7503 61.7999 91.5871C61.6005 90.8638 61.5511 87.7026 61.5987 78.701L61.6616 66.7735L62.1941 65.8249C64.166 62.3125 69.168 62.3125 71.1398 65.8249L71.6723 66.7735L71.7353 78.701C71.7828 87.7026 71.7335 90.8638 71.5341 91.5871C71.1905 92.8334 69.4752 94.5839 68.2397 94.949C67.1929 95.2582 65.9831 95.251 64.963 94.9295Z" stroke="#E8F5FF" stroke-width="0.212993"/>
<path d="M32.6121 87.487C33.7093 85.4 40.319 73.1441 40.3849 73.0745C40.4311 73.0257 40.4689 76.3564 40.4689 80.476V87.9662H32.3602L32.6121 87.487Z" stroke="#E8F5FF" stroke-width="0.212993"/>
</svg>
