<svg xmlns="http://www.w3.org/2000/svg" xmlns:xlink="http://www.w3.org/1999/xlink" width="100" height="100" viewBox="0 0 100 100"><svg viewBox="0 0 99.999997 99.999997"><g transform="translate(-149.6453,-589.21878)"><path d="m 199.64552,591.21879 a 48.000099,48.000099 0 0 0 -48.00022,48.00022 48.000099,48.000099 0 0 0 48.00022,47.99977 48.000099,48.000099 0 0 0 47.99977,-47.99977 48.000099,48.000099 0 0 0 -47.99977,-48.00022 z m 0,5.42088 a 42.107528,42.578935 0 0 1 42.10718,42.57934 42.107528,42.578935 0 0 1 -42.10718,42.57887 42.107528,42.578935 0 0 1 -42.10763,-42.57887 42.107528,42.578935 0 0 1 42.10763,-42.57934 z" fill="#2c608a"/></g></svg><g transform="translate(50 50) scale(0.69 0.69) rotate(0) translate(-50 -50)" style="fill:#2c608a"><svg fill="#2c608a" xmlns="http://www.w3.org/2000/svg" xmlns:xlink="http://www.w3.org/1999/xlink" xmlns:sketch="http://www.bohemiancoding.com/sketch/ns" viewBox="0 0 44 43" version="1.1" x="0px" y="0px"><title>Down</title><desc>Created with Sketch.</desc><g stroke="none" stroke-width="1" fill="none" fill-rule="evenodd" sketch:type="MSPage"><g sketch:type="MSArtboardGroup" transform="translate(-1.000000, -1.000000)" fill="#2c608a"><g sketch:type="MSLayerGroup" transform="translate(23.000000, 23.000000) rotate(-180.000000) translate(-23.000000, -23.000000) "><g transform="translate(2.000000, 2.000000)" sketch:type="MSShapeGroup"><rect x="19" y="0" width="4" height="40"/></g><g transform="translate(23.000000, 23.707107) rotate(45.000000) translate(-23.000000, -23.707107) translate(7.500000, 8.207107)" sketch:type="MSShapeGroup"><rect x="6.03961325e-14" y="26" width="30" height="4"/><rect x="26" y="6.39488462e-14" width="4" height="30"/></g></g></g></g></svg></g></svg>
