<svg clip-rule="evenodd" fill-rule="evenodd" stroke-linejoin="round" stroke-miterlimit="2" viewBox="0 0 132 33" xmlns="http://www.w3.org/2000/svg"><g fill="#2e4153" fill-rule="nonzero"><path d="m16.054 20.845v-9.551h3.375c.95-.071 1.899.155 2.716.646.288.208.519.484.674.803s.229.672.215 1.026c.013.441-.11.874-.351 1.242-.331.415-.77.731-1.269.911.436.093.84.295 1.176.588.252.228.436.521.53.847.091.288.137.588.136.89.033.378-.031.758-.185 1.104-.154.347-.394.648-.696.876-.844.49-1.816.712-2.788.639zm1.863-5.605h1.799c.375.012.746-.085 1.068-.279.151-.098.273-.233.353-.393.081-.161.117-.34.105-.519.01-.182-.027-.365-.107-.529-.081-.165-.201-.306-.351-.411-.344-.227-.75-.34-1.161-.323h-1.706zm0 4.112h1.691c.455.031.907-.093 1.283-.352.144-.107.26-.247.34-.407.08-.161.121-.339.119-.518.01-.186-.028-.371-.109-.538-.082-.167-.204-.31-.357-.417-.34-.23-.744-.345-1.154-.33h-1.813z"/><path d="m32.344 17.207c.016.685-.108 1.367-.365 2.002-.23.555-.639 1.017-1.161 1.313-.669.327-1.408.482-2.151.452-.743.031-1.483-.127-2.15-.459-.53-.302-.947-.767-1.189-1.327-.253-.654-.374-1.352-.359-2.053v-5.841h1.914v5.992c-.046.567.134 1.13.502 1.564.175.164.382.292.607.376.225.083.464.122.704.112.487.018.961-.158 1.319-.488.188-.211.331-.459.42-.728.088-.269.121-.554.096-.836v-5.992h1.899z"/><path d="m37.72 20.946c-.458.001-.914-.059-1.355-.18-.431-.111-.843-.29-1.218-.531-.361-.232-.668-.538-.903-.897-.244-.373-.39-.803-.423-1.248h1.928c.039.202.118.394.233.566.114.171.262.318.433.431.39.239.841.359 1.297.345.46.014.916-.087 1.326-.294.171-.08.315-.208.415-.369.099-.16.149-.347.144-.536.008-.162-.03-.324-.11-.466s-.198-.259-.341-.337c-.35-.198-.73-.336-1.125-.409l-1.613-.309c-.636-.096-1.225-.395-1.677-.854-.432-.481-.663-1.111-.645-1.758-.016-.553.147-1.097.466-1.55.328-.449.771-.801 1.283-1.019 1.241-.491 2.624-.478 3.856.036.509.218.945.58 1.254 1.041.282.426.436.924.444 1.435h-1.885c-.002-.209-.056-.415-.156-.599s-.243-.34-.417-.456c-.373-.212-.797-.316-1.226-.301-.424-.024-.844.092-1.197.33-.138.092-.25.217-.328.363-.078.147-.118.31-.116.476-.005.125.016.249.062.366.045.116.115.221.203.309.3.22.65.363 1.018.416l1.598.337c.482.083.944.256 1.362.51.285.18.53.418.719.699.189.28.317.597.377.93.055.264.084.533.086.803.005.505-.162.995-.473 1.392-.346.436-.801.772-1.318.976-.629.251-1.302.37-1.978.352z"/><path d="m43.137 11.294h1.878v9.551h-1.878z"/><path d="m53.228 11.294h1.885v9.551h-1.699l-4.429-6.573v6.573h-1.877v-9.551h1.863l4.257 6.322z"/><path d="m57.199 20.845v-9.551h6.4v1.622h-4.515v2.289h3.92v1.593h-3.927v2.375h4.587v1.643z"/><path d="m68.975 20.945c-.458.001-.913-.059-1.355-.179-.432-.112-.843-.291-1.218-.531-.36-.233-.668-.539-.903-.897-.244-.374-.39-.803-.423-1.249h1.928c.039.203.118.395.233.566.114.171.261.318.433.432.39.237.841.357 1.297.344.46.015.916-.086 1.326-.294.172-.08.316-.208.415-.369.099-.16.149-.346.144-.535.008-.163-.03-.325-.11-.467s-.198-.259-.341-.337c-.35-.198-.73-.336-1.125-.409l-1.613-.337c-.636-.096-1.225-.396-1.677-.854-.433-.481-.662-1.111-.638-1.758-.019-.553.142-1.097.459-1.55.33-.45.776-.802 1.29-1.019.581-.244 1.205-.366 1.835-.359.697-.022 1.39.113 2.028.395.507.219.94.581 1.247 1.04.281.427.436.924.444 1.436h-1.885c-.005-.21-.06-.415-.161-.599s-.245-.34-.419-.456c-.373-.212-.797-.317-1.226-.302-.424-.024-.844.092-1.197.33-.138.092-.25.217-.328.364-.078.146-.117.31-.116.476-.005.125.016.249.062.365.045.116.115.222.203.309.3.221.65.364 1.018.417l1.598.337c.482.083.944.255 1.362.509.307.193.567.453.759.761.167.265.282.56.338.868.054.265.083.534.086.804.004.504-.163.995-.474 1.392-.34.454-.795.808-1.318 1.026-.63.243-1.303.356-1.978.33z"/><path d="m78.032 20.946c-.457.001-.912-.059-1.354-.18-.431-.111-.842-.29-1.218-.531-.365-.222-.68-.517-.925-.868-.244-.374-.389-.803-.422-1.248h1.927c.04.202.119.394.233.566.114.171.262.317.434.431.39.239.84.358 1.297.344.46.015.916-.086 1.326-.294.171-.079.315-.207.414-.368.1-.161.15-.347.145-.536.008-.163-.031-.325-.11-.467-.08-.142-.198-.259-.341-.337-.35-.198-.731-.336-1.126-.409l-1.613-.337c-.636-.096-1.224-.395-1.676-.854-.433-.481-.664-1.111-.646-1.758-.015-.553.148-1.097.467-1.55.33-.45.776-.802 1.289-1.019 1.242-.491 2.625-.478 3.856.036.51.218.946.58 1.254 1.041.282.426.437.924.445 1.435h-1.892c-.002-.209-.056-.415-.156-.599s-.243-.34-.417-.456c-.373-.212-.797-.316-1.226-.301-.424-.024-.845.092-1.197.33-.138.092-.251.217-.329.363-.077.147-.117.31-.115.476-.005.125.016.249.061.366.046.116.115.221.204.309.299.22.65.363 1.018.416l1.598.337c.481.083.943.256 1.362.51.289.182.537.423.727.707.19.285.318.606.376.943.055.264.084.534.086.804.005.504-.162.995-.473 1.392-.346.435-.801.772-1.318.976-.626.241-1.294.353-1.965.33z"/><path d="m82.943 18.743h2.064v2.102h-2.064z"/><path d="m92.947 11.294h1.885v9.551h-1.663l-4.429-6.573v6.573h-1.877v-9.551h1.863l4.257 6.322z"/><path d="m100.222 18.19c.012.516-.053 1.032-.193 1.529-.112.392-.368.728-.716.94-.459.236-.971.345-1.484.315-.308-.002-.615-.028-.918-.079-.316-.052-.554-.095-.717-.129v-1.765l.43.108c.176.044.357.066.538.064.164.022.33.001.483-.061.153-.061.287-.161.391-.29.179-.355.258-.752.229-1.148v-6.38h1.885z"/><path d="m101.297 18.743h2.064v2.102h-2.064z"/><path d="m108.693 20.946c-.784.022-1.558-.185-2.228-.596-.629-.416-1.126-1.004-1.434-1.693-.361-.815-.537-1.699-.515-2.591-.024-.902.16-1.798.537-2.619.325-.705.848-1.301 1.505-1.715.68-.411 1.463-.62 2.258-.602.519-.007 1.035.088 1.52.279.436.164.839.408 1.188.718.33.297.597.655.789 1.055.192.382.3.8.315 1.227h-1.985c-.079-.446-.298-.855-.624-1.17-.162-.164-.357-.293-.572-.378-.214-.085-.444-.125-.674-.117-.402-.005-.797.11-1.133.33-.36.256-.633.617-.781 1.034-.216.604-.316 1.245-.294 1.887-.031.671.081 1.341.33 1.966.17.411.47.757.853.983.338.187.717.285 1.103.287.297.006.592-.062.858-.197.264-.135.492-.334.662-.578.14-.218.236-.462.279-.718l.072-.581h-1.928v-1.32h3.898v5.023h-1.282v-1.263c-.176.233-.373.449-.588.646-.259.225-.555.404-.875.531-.404.134-.829.192-1.254.172z"/><path d="m118.584 20.945c-.805.023-1.6-.181-2.294-.588-.648-.403-1.164-.987-1.483-1.679-.369-.823-.547-1.718-.523-2.62-.025-.903.153-1.801.523-2.626.324-.704.848-1.297 1.504-1.708.689-.405 1.475-.612 2.273-.595.794-.019 1.576.188 2.257.595.65.412 1.167 1.006 1.483 1.708.373.824.553 1.722.531 2.626.021.899-.158 1.791-.523 2.612-.316.695-.83 1.281-1.476 1.687-.687.405-1.475.609-2.272.588zm0-1.586c.311.012.62-.051.902-.183s.528-.33.717-.577c.466-.751.678-1.632.602-2.512.075-.901-.136-1.802-.602-2.576-.193-.247-.439-.448-.722-.585-.281-.138-.591-.21-.905-.21s-.622.072-.905.21c-.281.137-.528.338-.721.585-.467.774-.676 1.675-.603 2.576-.074.88.136 1.761.603 2.512.19.252.437.455.721.592.285.137.597.205.913.197z"/><path d="m132 11.294-3.217 9.551h-2.151l-3.189-9.551h1.799l2.465 7.312 2.48-7.312z"/><path d="m15.717 23.636h-1.734l-.015.144-.172.215-.165.323-.795.502.079.208-.337.201-.172.065h-.315l-.574.229-.071.266-.302.115-.229.251-.1.237-.344.323-.015.136-.229.344-.064.144-.251.222v.431l-.803 1.141v.064l-.724.617-.781.244-.122.008v-.015l-.05-.1.294-.983.251-.28.043-.187.172-.323.028-.15.101-.194-.122-.66-.366-.144-.365-.222-.358.064-.151-.035-.158.021-.731-.596-.379.675-.043.014-.251-.236-.108-.496-.157-.028-.065-.173-.272-.093-.66-.359-.028.029-.251-.158-.058-.172-.394.007-.193-.194-.208-.308-.186-.1-.251-.216-.086-.193-.746-.539-.136.086-.165-.222.022-.065h.222l.215-1.212-.294-.266-.079-.215.481-.509.028-.244.151-.266.086-.029.071-.201 1.548-.014-.795-.667.559-.416.229-.043.301.035.516-.114.294-.137.158-.15.559-.216.079-.732.752-.394.072-.251 1.154-.768.638-.165.401-.424.021-.078 1.721-.625-1.606-.746-.179-.101-.222-.466-.294-.344-.208-.065-.301-.258-.215-.998-.745.158-.215-.122-.108-.351.086-.373-.028-.496-.617-.581-.437.201-.079.029-.079-.022-.05-.05.007-.186-.071-.244.05-.223-.05-.186.057-.323-.1-.208v-.008l.15-.437-.079-.259.129-.114.086-.137h.043l.273-.014.638-.517-.158-.38.932-1.256-1.197.007-.144-.143.029-.093.215-.165.394-.151.437-.345.015-.079.337-.459v-.107l.057-.115.616-.416.237-.381.129-.129.236-.473-.036-.23.266-.517.422-.452.008-.064.243-.108.093-.143.316-.051.193-.086 2.76 1.586.867.538 4.185 2.217-.681 1.787-.265.459h1.62l.229-.516h.151l.337-1.306.086-.617.25-.976h-.121v-.015l-1.118-.179-2.322-1.263-1.649-.847-4.293-2.511-.602.323-.344.072-.559.308-.222.129-1.261 1.744-.022.409-.15.222-.445.316-.294.294-.401.682-.365.172-.301.216-1.226.035.494 1.091-.1.28.358.761.101.1.043.057-.308.216-.595.767-.136.575.057.208-.093.566.071.302-.014.287.014.057-.014.036.007.452.05.129.015.338.236.531.265.265.309.215.401.151.344 1.112.566.366.452.201.172.287.358.388.366.294.222.344-.158.029-.695.366-.287.208-.494.309-.33.294-.538.373-.329.316-.244.452-.057.222-.136.101-.115.057-.215-.022-.294.015-.509.136-1.433.998h-.366l-.114.351-.445.323.223.187-.187.294-.122.294-.258.287-.344.746.043.373.122.524.05.122-.272.739v.517l.201.423 1.146 1.299.223-.136.207.251.158.079.237.38.207.086.215.287.036.201h.595l.667.337.121.345.043.007.015.072.043.021.129.589h.58l.552.38.774-.23.101-.043.143.115h.014l-.222.653-.093.05-.1.89-.323.768 1.347.753h.194l.064.022.466-.022.394-.086.18.165.953-.61.666-.545.258-.258.258-.417.896-1.277v-.308l.158-.287.337-.388.222-.373.616-.359.466-.194.516-.301.953-.717-.036-.108.373-.502.086-.129.359.078v-.803l.157-.172z"/></g></svg>