<svg xmlns="http://www.w3.org/2000/svg" xmlns:xlink="http://www.w3.org/1999/xlink" width="100" height="100" viewBox="0 0 100 100"><svg viewBox="0 0 99.999997 99.999997"><g transform="translate(-149.6453,-589.21878)"><path d="m 199.64552,591.21879 a 48.000099,48.000099 0 0 0 -48.00022,48.00022 48.000099,48.000099 0 0 0 48.00022,47.99977 48.000099,48.000099 0 0 0 47.99977,-47.99977 48.000099,48.000099 0 0 0 -47.99977,-48.00022 z m 0,5.42088 a 42.107528,42.578935 0 0 1 42.10718,42.57934 42.107528,42.578935 0 0 1 -42.10718,42.57887 42.107528,42.578935 0 0 1 -42.10763,-42.57887 42.107528,42.578935 0 0 1 42.10763,-42.57934 z" fill="#417095"/></g></svg><g transform="translate(50 50) scale(0.69 0.69) rotate(0) translate(-50 -50)" style="fill:#417095"><svg fill="#417095" xmlns="http://www.w3.org/2000/svg" xmlns:xlink="http://www.w3.org/1999/xlink" version="1.1" x="0px" y="0px" viewBox="0 0 100 100" enable-background="new 0 0 100 100" xml:space="preserve"><path d="M75.934,18.779h-4.502c-0.314,5.671-5.016,10.192-10.764,10.192H39.333c-5.749,0-10.448-4.521-10.763-10.192h-4.504  c-4.342,0-7.894,3.552-7.894,7.894v60.435c0,4.343,3.551,7.894,7.894,7.894h51.868c4.344,0,7.896-3.551,7.896-7.894V26.673  C83.828,22.331,80.275,18.779,75.934,18.779z M26.866,38.271c0.92-0.613,2.161-0.364,2.774,0.555l1.498,2.246l5.133-5.402  c0.76-0.8,2.026-0.833,2.827-0.072c0.801,0.761,0.833,2.027,0.072,2.828l-5.838,6.145c-0.625,0.657-1.459,1.021-2.32,1.021  c-0.087,0-0.175-0.004-0.263-0.012c-0.953-0.082-1.817-0.605-2.371-1.437l-2.066-3.099C25.699,40.125,25.947,38.884,26.866,38.271z   M39.17,69.861l-5.838,6.143c-0.625,0.657-1.458,1.021-2.319,1.021c-0.087,0-0.175-0.004-0.264-0.012  c-0.954-0.082-1.818-0.607-2.373-1.44l-2.065-3.097c-0.613-0.92-0.365-2.16,0.554-2.773c0.92-0.614,2.161-0.364,2.774,0.555  l1.499,2.248l5.132-5.4c0.761-0.799,2.026-0.832,2.828-0.071C39.899,67.795,39.931,69.061,39.17,69.861z M39.171,53.749  l-5.838,6.146c-0.627,0.658-1.46,1.022-2.322,1.022c-0.088,0-0.177-0.004-0.266-0.013c-0.953-0.082-1.816-0.607-2.369-1.439  l-2.064-3.094c-0.613-0.919-0.365-2.161,0.554-2.773c0.917-0.615,2.161-0.365,2.773,0.553l1.499,2.246l5.132-5.402  c0.76-0.8,2.026-0.833,2.828-0.072C39.899,51.682,39.932,52.947,39.171,53.749z M72.023,76.711H45.207c-1.104,0-2-0.896-2-2  s0.896-2,2-2h26.818c1.104,0,2,0.896,2,2S73.129,76.711,72.023,76.711z M72.023,60.604H45.207c-1.104,0-2-0.896-2-2  c0-1.104,0.896-2,2-2h26.818c1.104,0,2,0.896,2,2C74.025,59.708,73.129,60.604,72.023,60.604z M72.023,45.276H45.207  c-1.104,0-2-0.896-2-2s0.896-2,2-2h26.818c1.104,0,2,0.896,2,2S73.129,45.276,72.023,45.276z"/><path d="M39.333,24.472h21.335c3.471,0,6.293-2.824,6.292-6.293c0-3.471-2.821-6.292-6.293-6.292h-4.996  c0.006-0.016,0.011-0.029,0.017-0.045l0.061-0.164v-0.93C55.748,7.58,53.17,5,50,5s-5.749,2.58-5.748,5.748  c0,0,0.071,1.123,0.077,1.139h-4.996c-3.47,0-6.293,2.821-6.293,6.292C33.04,21.649,35.863,24.472,39.333,24.472z"/></svg></g></svg>
