<svg width="100pt" height="100pt" version="1.1" viewBox="0 0 100 100" xmlns="http://www.w3.org/2000/svg">
 <g fill="#407095">
  <path d="m88.398 61.699c-2.6992 1-7 2.1992-11.801 3.3008-1.6992 2.8008-4.8008 5.1992-9.6016 6.1016-1.1016 0.19922-2.3984 0.30078-3.8008 0.39844-3.3984 0.10156-7.3984-0.19922-11.801-0.60156-0.30078 0-0.60156 0-0.89844-0.10156-1.1016-0.10156-2-0.89844-2.1016-2-0.10156-1.3984 1-2.5 2.3008-2.3984 0.30078 0 0.69922 0.10156 1 0.10156 5.6992 0.5 11.102 0.89844 14.5 0.19922 6.3008-1.1992 8-5.1016 7.6016-8.3008-0.39844-2.6016-2.3008-5.1016-5.3984-4.8984-4.3984 0.39844-9.6016 0-14.699-0.30078-5.8008-0.39844-11.699-0.5-16 0-4.6992 0.60156-14.199 4.1016-22.602 9.8984-4.1016 2.8008-8.6992 6.1992-11.398 8.1992-1.3984 1-1.6992 3-0.60156 4.3984l12.301 15.801c1.1016 1.3984 3 1.6016 4.3984 0.5l4.5-3.5c1.1016-0.80078 2.5-1.1016 3.6992-0.69922 8.1992 2.6016 17 4.1992 22.801 4.5 12.602 0.70312 36.602-14.297 43.504-19.098 6.8008-4.8008 1.8008-14.398-5.9023-11.5z"/>
  <path d="m59.602 29.5h2.3008c0.80078 0 1.5 0.30078 2 0.89844 0.5 0.60156 0.80078 1.3008 0.69922 2.1016-0.10156 1.3984-1.3984 2.3984-2.8984 2.3984h-3.1016c-0.80078 0-1.3984-0.5-1.6016-1.3008-0.10156-0.60156-0.69922-1.1016-1.3984-1.1016l-3.6016 0.003906c-0.39844 0-0.80078 0.19922-1.1016 0.5-0.30078 0.30078-0.39844 0.69922-0.39844 1.1016 0.39844 3.6992 3.1992 6.6016 6.8008 7.1016v2.8008c0 0.80078 0.69922 1.5 1.5 1.5h3.5c0.80078 0 1.5-0.69922 1.5-1.5v-3c3.8984-0.89844 6.8008-4.1016 7.1992-8 0.30078-2.6016-0.60156-5.1016-2.3008-7-1.6992-1.8984-4.1992-3-6.8008-3h-2.6016c-0.80078 0-1.5-0.30078-2-0.89844-0.5-0.60156-0.80078-1.3008-0.69922-2.1016 0.10156-1.3984 1.3984-2.3984 2.8984-2.3984h3.1016c0.80078 0 1.3984 0.5 1.6016 1.3008 0.10156 0.69922 0.69922 1.1016 1.3984 1.1016h3.5c0.39844 0 0.80078-0.19922 1.1016-0.5 0.30078-0.30078 0.39844-0.69922 0.39844-1.1016-0.39844-3.6992-3.1992-6.6016-6.8008-7.1016l0.003906-2.7031c0-0.80078-0.69922-1.5-1.5-1.5h-3.5c-0.80078 0-1.5 0.69922-1.5 1.5v2.8984c-4.5 1-7.6992 5.1016-7.1992 9.8008 0.5 4.5977 4.6992 8.1992 9.5 8.1992z"/>
 </g>
</svg>
