<svg width="100pt" height="100pt" version="1.1" viewBox="0 0 100 100" xmlns="http://www.w3.org/2000/svg">
 <g fill="#407095">
  <path d="m52.398 62.301c-1.8008-0.89844-4.6016-2.6016-7.5-4.6016-2.3008 0.5-5.1016 0-7.8984-2.1016-0.69922-0.5-1.3984-1.1016-2.1016-1.8008-1.6992-1.6992-3.5-4-5.5-6.5-0.19922-0.19922-0.30078-0.39844-0.5-0.60156-0.5-0.60156-0.39844-1.6016 0.19922-2.1016 0.69922-0.60156 1.6992-0.5 2.3008 0.19922 0.19922 0.19922 0.30078 0.39844 0.5 0.60156 2.6016 3.1992 5 6.3008 7 7.6992 3.6992 2.6992 6.6016 1.6992 8.1016-0.10156 1.1992-1.5 1.6016-3.6992-0.10156-5.1992-2.3984-2.1992-4.6992-5-7-7.8008-2.6016-3.1992-5.3984-6.5-7.8008-8.3984-1.3984-1-4.1992-2.3008-7.1992-3.6016-0.69922-0.30078-2.1016-0.89844-2.1016-0.89844l-5.7969-5.4922c-0.5-0.5-1.1992-0.5-1.6016 0l-12.598 12.5c-0.5 0.5-0.5 1.1992 0 1.6016l5.6016 5.6016c2.8008 5.8984 6.3984 12.898 9.3008 16.301 5.8984 6.8984 25.5 12.102 31.398 13.398 6 1.1953 8.5-6.1055 3.2969-8.7031z"/>
  <path d="m97.199 64.199-5.6016-5.6016c-2.8008-5.8984-6.3984-12.898-9.3008-16.301-5.8984-6.7969-25.598-12.098-31.496-13.297-5.8984-1.1992-8.5 6.1016-3.1992 8.6992 1.8008 0.89844 4.6016 2.6016 7.5 4.6016 2.3008-0.5 5.1016 0 7.8984 2.1016 0.69922 0.5 1.3984 1.1016 2.1016 1.8008 1.6992 1.6992 3.5 4 5.5 6.5 0.19922 0.19922 0.30078 0.39844 0.5 0.60156 0.5 0.60156 0.39844 1.6016-0.19922 2.1016-0.69922 0.60156-1.6992 0.5-2.3008-0.19922-0.19922-0.19922-0.30078-0.39844-0.5-0.60156-2.6016-3.1992-5-6.3008-7-7.6992-3.6992-2.6992-6.6016-1.6992-8.1016 0.10156-1.1992 1.5-1.6016 3.6992 0.10156 5.1992 2.3984 2.1992 4.6992 5 7 7.8008 2.6016 3.1992 5.3984 6.5 7.8008 8.3984 1.3984 1 4.1992 2.3008 7.1992 3.6016 0.69922 0.30078 2.1016 0.89844 2.1016 0.89844l5.6016 5.6016c0.5 0.5 1.1992 0.5 1.6016 0l12.5-12.5c0.69531-0.60937 0.69531-1.3086 0.29297-1.8086z"/>
 </g>
</svg>
