<svg width="24" height="24" viewBox="0 0 24 24" fill="none" xmlns="http://www.w3.org/2000/svg">
<g clip-path="url(#clip0_4754_38829)">
<path d="M7.99992 20C9.06091 20 10.0783 19.5787 10.8285 18.8285C11.5785 18.0782 12 17.0609 12 16.0001L12 15.0002L9.99994 15.0002L9.99994 16.0001C9.99994 16.7146 9.61873 17.3748 9.00002 17.7321C8.38113 18.0894 7.61871 18.0894 6.99996 17.7321C6.38125 17.3748 6.00004 16.7146 6.00004 16.0001L6.00004 8.00003C6.00004 7.28556 6.38125 6.62533 6.99996 6.26801C7.61867 5.91069 8.38113 5.91069 9.00002 6.26801C9.61873 6.62533 9.99994 7.28556 9.99994 8.00003L9.99994 9.00013L12 9.00013L12 8.00003C12 6.57109 11.2376 5.25046 9.99994 4.53599C8.7623 3.82134 7.23764 3.82134 5.99999 4.53599C4.76235 5.25046 3.99993 6.57109 3.99993 8.00003L3.99993 16.0001C3.99993 17.0609 4.42125 18.0783 5.17146 18.8285C5.92169 19.5787 6.93906 20 7.99983 20L7.99992 20Z" fill="#1B1B1B"/>
<path d="M7.9997 13.0011L16.5846 13.0011L14.5845 15.0012L15.9997 16.4161L19.7072 12.7087C19.895 12.521 20.0005 12.2666 20.0005 12.0011C20.0005 11.7357 19.895 11.4813 19.7072 11.2936L15.9997 7.58615L14.5845 9.00112L16.5846 11.0012L7.9997 11.0012L7.9997 13.0011Z" fill="#1B1B1B"/>
</g>
<defs>
<clipPath id="clip0_4754_38829">
<rect width="24" height="24" fill="white"/>
</clipPath>
</defs>
</svg>
