<svg width="58" height="64" viewBox="0 0 58 64" fill="none" xmlns="http://www.w3.org/2000/svg">
<path d="M52.2609 0.000680471H12.755C11.3279 0.000680471 9.95882 0.566586 8.94926 1.57439C7.9385 2.5822 7.36866 3.94923 7.36569 5.37633V7.87322H6.22206C4.57059 7.87716 2.98801 8.53656 1.82173 9.70478C0.655476 10.874 0 12.4586 0 14.1099V57.7781C0.00393674 59.4266 0.660389 61.0071 1.82665 62.1734C2.9929 63.3396 4.57342 63.9961 6.22194 64H44.065C45.7165 64 47.3 63.3445 48.4691 62.1783C49.6382 61.012 50.2967 59.4295 50.3007 57.7779V56.1275H52.2621C53.6863 56.1235 55.0513 55.5557 56.0591 54.5488C57.0659 53.541 57.6338 52.176 57.6377 50.7519V5.37553C57.6337 3.95143 57.0659 2.58542 56.0591 1.57862C55.0513 0.570819 53.6862 0.00393044 52.2621 0L52.2609 0.000680471ZM46.0664 57.7781C46.0586 58.8794 45.164 59.7671 44.0636 59.7671H6.22057C5.12222 59.7671 4.23155 58.8764 4.23155 57.7781V14.1099C4.23155 13.0086 5.12025 12.114 6.22057 12.1061H44.0636C45.1669 12.114 46.0586 13.0067 46.0664 14.1099V57.7781ZM53.4035 50.7235C53.4035 51.3543 52.8918 51.8661 52.2609 51.8661H50.2994V14.1087C50.2994 12.4543 49.6419 10.8689 48.4727 9.69858C47.3035 8.52938 45.7169 7.87194 44.0636 7.87194H11.5266V5.37505C11.5345 4.74124 12.0502 4.2324 12.683 4.2324H52.2595C52.8904 4.2324 53.4022 4.74416 53.4022 5.37505L53.4035 50.7235ZM40.1544 22.3487C40.1544 23.518 39.2076 24.4657 38.0384 24.4657H11.7246C10.5564 24.4657 9.60866 23.518 9.60866 22.3487C9.60866 21.1805 10.5564 20.2328 11.7246 20.2328H38.0384C39.2076 20.2328 40.1544 21.1805 40.1544 22.3487ZM40.1544 32.973C40.1544 34.1422 39.2076 35.09 38.0384 35.09H11.7246C10.5564 35.09 9.60866 34.1422 9.60866 32.973C9.60866 31.8048 10.5564 30.857 11.7246 30.857H38.0384C39.2076 30.857 40.1544 31.8048 40.1544 32.973ZM40.1544 43.5973C40.1544 44.7665 39.2076 45.7143 38.0384 45.7143H11.7246C10.5564 45.7143 9.60866 44.7665 9.60866 43.5973C9.60866 42.4291 10.5564 41.4813 11.7246 41.4813H38.0384C39.2076 41.4813 40.1544 42.4291 40.1544 43.5973Z" fill="#4B79A7"/>
</svg>
