<svg xmlns="http://www.w3.org/2000/svg" xmlns:xlink="http://www.w3.org/1999/xlink" width="100" height="100" viewBox="0 0 100 100"><svg viewBox="0 0 99.999997 99.999997"><g transform="translate(-149.6453,-589.21878)"><path d="m 199.64552,591.21879 a 48.000099,48.000099 0 0 0 -48.00022,48.00022 48.000099,48.000099 0 0 0 48.00022,47.99977 48.000099,48.000099 0 0 0 47.99977,-47.99977 48.000099,48.000099 0 0 0 -47.99977,-48.00022 z m 0,5.42088 a 42.107528,42.578935 0 0 1 42.10718,42.57934 42.107528,42.578935 0 0 1 -42.10718,42.57887 42.107528,42.578935 0 0 1 -42.10763,-42.57887 42.107528,42.578935 0 0 1 42.10763,-42.57934 z" fill="#417095"/></g></svg><g transform="translate(50 50) scale(0.69 0.69) rotate(0) translate(-50 -50)" style="fill:#417095"><svg fill="#417095" xmlns="http://www.w3.org/2000/svg" xmlns:xlink="http://www.w3.org/1999/xlink" xml:space="preserve" version="1.1" style="shape-rendering:geometricPrecision;text-rendering:geometricPrecision;image-rendering:optimizeQuality;" viewBox="0 0 846.66 846.66" x="0px" y="0px" fill-rule="evenodd" clip-rule="evenodd"><defs><style type="text/css">

    .fil0 {fill:#417095}

  </style></defs><g><path class="fil0" d="M160.9 94.8l117.28 0c-2.44,-0.06 -4.44,-2.09 -4.44,-4.55l0 -27.4c0,-21.34 17.47,-38.81 38.81,-38.81l221.57 0c21.34,0 38.8,17.47 38.8,38.81l0 27.4c0,2.46 -1.99,4.49 -4.44,4.55l117.28 0c21.35,0 38.81,17.46 38.81,38.81l0 650.19c0,21.35 -17.46,38.81 -38.81,38.81l-524.86 0c-21.34,0 -38.81,-17.46 -38.81,-38.81l0 -650.19c0,-21.35 17.47,-38.81 38.81,-38.81zm371.95 112.67c3.78,-2.12 8.45,-2.12 12.24,0 7.38,3.71 68.36,67.71 79.49,78.84 11.64,11.64 -6.07,29.34 -17.7,17.71l-55.39 -55.39 0 129.81c-0.21,7.32 -5.83,12.52 -12.52,12.52l-251.54 0 0 137.86c25.25,5.71 44.18,28.33 44.18,55.28 0,31.28 -25.42,56.67 -56.68,56.67 -31.29,0 -56.67,-25.37 -56.67,-56.67 0,-26.94 18.89,-49.56 44.14,-55.28l0 -150.38c0.15,-7.09 5.65,-12.51 12.51,-12.51l251.55 0 0 -117.3 -55.39 55.39c-11.64,11.63 -29.35,-6.07 -17.71,-17.71 11.2,-11.2 72.01,-75.06 79.49,-78.84zm-116.61 319.96c31.24,0 56.67,25.43 56.67,56.67 0,31.28 -25.41,56.67 -56.67,56.67 -31.3,0 -56.67,-25.37 -56.67,-56.67 0,-31.25 25.42,-56.67 56.67,-56.67zm0 25.03c-17.48,0 -31.64,14.15 -31.64,31.64 0,17.46 14.17,31.64 31.64,31.64 17.49,0 31.64,-14.13 31.64,-31.64 0,-17.53 -14.11,-31.64 -31.64,-31.64zm-145.04 -236.14c-16.47,0 -16.47,-25.03 0,-25.03l28.87 0 0 -28.87c0,-16.46 25.03,-16.46 25.03,0l0 28.87 28.87 0c16.46,0 16.46,25.03 0,25.03l-28.87 0 0 28.87c0,16.47 -25.03,16.47 -25.03,0l0 -28.87 -28.87 0zm3.73 236.14c-17.48,0 -31.64,14.15 -31.64,31.64 0,17.46 14.18,31.64 31.64,31.64 17.49,0 31.64,-14.13 31.64,-31.64 0,-17.53 -14.11,-31.64 -31.64,-31.64z"/></g></svg></g></svg>
