<svg xmlns="http://www.w3.org/2000/svg" xmlns:xlink="http://www.w3.org/1999/xlink" width="100" height="100" viewBox="0 0 100 100"><svg viewBox="0 0 99.999997 99.999997"><g transform="translate(-149.6453,-589.21878)"><path d="m 199.64552,591.21879 a 48.000099,48.000099 0 0 0 -48.00022,48.00022 48.000099,48.000099 0 0 0 48.00022,47.99977 48.000099,48.000099 0 0 0 47.99977,-47.99977 48.000099,48.000099 0 0 0 -47.99977,-48.00022 z m 0,5.42088 a 42.107528,42.578935 0 0 1 42.10718,42.57934 42.107528,42.578935 0 0 1 -42.10718,42.57887 42.107528,42.578935 0 0 1 -42.10763,-42.57887 42.107528,42.578935 0 0 1 42.10763,-42.57934 z" fill="#417095"/></g></svg><g transform="translate(50 50) scale(0.69 0.69) rotate(0) translate(-50 -50)" style="fill:#417095"><svg fill="#417095" xmlns="http://www.w3.org/2000/svg" xmlns:xlink="http://www.w3.org/1999/xlink" version="1.1" x="0px" y="0px" viewBox="0 0 100 100" style="enable-background:new 0 0 100 100;" xml:space="preserve"><path d="M54.1,45.7l-4.9-1.6c-1.2,0.8-3.7,2.7-4.9,3.5c-4.2,2.9-8.7,1-11-1.9l-0.9-1.1l7.8-6.4l-11.7,0.2l-8.5,18.5l29.2,17.6  c0.7,0.4,1.7,0.4,2.3-0.2l0.9-0.7l-4-2.9c-0.7-0.5-0.8-1.4-0.3-2c0.5-0.7,1.4-0.8,2-0.3l5.3,3.9c0.1,0.1,0.2,0.1,0.3,0.2l0.2,0.1  c0.6,0.4,1.4,0.4,1.9-0.1c0.4-0.3,0.6-0.7,0.6-1.2c0-0.5-0.2-0.9-0.5-1.3l-5.5-5.1c-0.6-0.5-0.6-1.5-0.1-2.1  c0.5-0.6,1.5-0.6,2.1-0.1l5.5,5.1c0,0,0,0,0,0c0,0,0,0,0,0l1.9,1.8c0.7,0.7,1.9,0.7,2.6,0c0.4-0.4,0.6-0.9,0.6-1.4s-0.2-1.1-0.6-1.5  l-7.4-7.5c-0.6-0.6-0.6-1.5,0-2.1c0.6-0.6,1.5-0.6,2.1,0l7.4,7.5c0.1,0.1,0.1,0.1,0.2,0.2c0,0,0,0,0,0l1.5,1.5c0.7,0.7,2,0.8,2.7,0  c0.4-0.4,0.6-0.9,0.6-1.4c0-0.6-0.2-1.1-0.6-1.5L54.1,45.7z M16,29.8L5,53.8L15.9,59l11-23.9L16,29.8z M68.3,40.1l-2-1.4  c-1.5-1-3.2-1.6-5-1.7c-3.9-0.1-10.2-0.4-12.9-0.5c-0.9,0-1.5,0.1-1.9,0.4l-9.8,8c1.2,1,3.4,2.1,6,0.3c1.5-1,5.4-3.8,5.5-3.9  l0.6-0.4l7,2.2l0.3,0.3l16.5,17.3l7.6-4l-7.4-18.3L68.3,40.1z M74.3,34.6l9.9,24.4L95,54.5l-9.9-24.4L74.3,34.6z"/></svg></g></svg>
