<svg fill="none" height="32" viewBox="0 0 32 32" width="32" xmlns="http://www.w3.org/2000/svg"><rect fill="#6f4c8d" height="32" rx="16" width="32"/><g fill="#fff"><path d="m16 7.2002c-4.8 0-8.80005 3.9-8.80005 8.8s3.90005 8.8 8.80005 8.8 8.7999-3.9 8.7999-8.8-3.9999-8.8-8.7999-8.8zm0 15.8c-3.9 0-7.00005-3.1-7.00005-7s3.10005-7 7.00005-7 7 3.1 7 7-3.1 7-7 7z"/><path d="m19.1 15.3002h-2.2v-2.2c0-.5-.4-.9-.9-.9s-.9.4-.9.9v2.2h-2.2c-.5 0-.9.4-.9.9s.4.9.9.9h2.2v2.1c0 .5.4.9.9.9s.9-.4.9-.9v-2.1h2.2c.5 0 .9-.4.9-.9s-.4-.9-.9-.9z"/></g></svg>