<svg fill="none" height="32" viewBox="0 0 32 32" width="32" xmlns="http://www.w3.org/2000/svg"><rect fill="#6f4c8d" height="32" rx="16" width="32"/><path d="m16 24.9004c-.5 0-1-.4-1-1v-1.1c-1.9-.4-3.3-1.9-3.3-3.7 0-.5.4-1 1-1 .5 0 1 .4 1 1 0 1.1 1 1.9 2.3 1.9s2.3-.9 2.3-1.9c0-.9-.5-1.5-1.3-1.8l-2.6-.8c-1.6-.5-2.7-1.9-2.7-3.7.1-1.8 1.4-3.40001 3.4-3.80001v-1.1c0-.5.4-1 1-1s1 .4 1 1v1.1c1.9.4 3.3 1.90001 3.3 3.70001 0 .5-.4 1-1 1-.5 0-1-.4-1-1 0-1.1-1-1.9-2.3-1.9s-2.3.9-2.3 1.9c0 .9.5 1.5 1.3 1.8l2.6.8c1.6.5 2.7 2 2.7 3.7 0 1.8-1.4 3.4-3.3 3.8v1.1c-.1.6-.6 1-1.1 1z" fill="#fff"/></svg>